<?xml version="1.0" encoding="utf-8"?>
<!-- Generator: Adobe Illustrator 17.1.0, SVG Export Plug-In . SVG Version: 6.00 Build 0)  -->
<!DOCTYPE svg PUBLIC "-//W3C//DTD SVG 1.0//EN" "http://www.w3.org/TR/2001/REC-SVG-20010904/DTD/svg10.dtd">
<svg version="1.0" id="AD_1_" xmlns="http://www.w3.org/2000/svg" xmlns:xlink="http://www.w3.org/1999/xlink" x="0px" y="0px"
	 viewBox="0 0 69 101" enable-background="new 0 0 69 101" xml:space="preserve">
<g id="AD">
	<g>
		<path fill-rule="evenodd" clip-rule="evenodd" fill="#FF7977" d="M0.1,33.7h46.5V10.5H0.1V33.7z M29.4,43.3c-0.6,0-1,0.1-1.2,0.1
			V51c0.2,0.1,0.6,0.1,0.9,0.1c2.4,0,3.9-1.3,3.9-4.1C33.1,44.6,31.6,43.3,29.4,43.3z M46.4,35.1h-0.1v0.1h-46v-0.1H0.2v0.1H0.1
			v23.2h46.5V35.2h-0.1V35.1z M21.3,53l-0.9-3h-3.3l-0.8,3h-2.7l3.5-11.6h3.4L24.1,53H21.3z M33.9,51.6c-1.2,1-3.1,1.5-5.3,1.5
			c-1.4,0-2.3-0.1-3-0.2V41.5c1-0.2,2.2-0.2,3.5-0.2c2.2,0,3.6,0.4,4.7,1.2c1.2,0.9,2,2.3,2,4.4C35.8,49.1,35,50.6,33.9,51.6z
			 M24.1,84.4h-0.1v15.8h22.6v-16H24.1V84.4z M0.1,100.3h22.5v-16H0.1V100.3z M0.1,82.9h46.5V59.8H0.1V82.9z M18.7,43.3L18.7,43.3
			c-0.2,0.7-0.4,1.6-0.6,2.2L17.4,48H20l-0.7-2.5C19.1,44.9,18.9,44,18.7,43.3z M47.9,58.3h20.4V37.2H47.9V58.3z M47.9,100.9h20.4
			v-4.2H47.9V100.9z M47.9,25h20.4V10.5H47.9V25z M0.1,0.4v5.9h0.1v0.1h0.1V6.3h67.7v0.1h0.1V6.3h0.1V0.4H0.1z M58.8,35.8h9.5v-9.5
			h-9.5V35.8z M0.1,9.1h68.2V6.9H0.1V9.1z M68.2,75.6h-0.1v0.1H48.2v-0.1h-0.1v0.1h-0.1v19.7h20.4V75.7h-0.1V75.6z M47.9,26.3v9.5
			h9.5v-9.5H47.9z M47.9,74.5h20.4V59.8H47.9V74.5z"/>
	</g>
</g>
</svg>
