<?xml version="1.0" encoding="utf-8"?>
<!-- Generator: Adobe Illustrator 17.1.0, SVG Export Plug-In . SVG Version: 6.00 Build 0)  -->
<!DOCTYPE svg PUBLIC "-//W3C//DTD SVG 1.0//EN" "http://www.w3.org/TR/2001/REC-SVG-20010904/DTD/svg10.dtd">
<svg version="1.0" id="Shape_4_1_" xmlns="http://www.w3.org/2000/svg" xmlns:xlink="http://www.w3.org/1999/xlink" x="0px" y="0px"
	 viewBox="0 0 69 77" enable-background="new 0 0 69 77" xml:space="preserve">
<g id="Shape_4">
	<g>
		<path fill-rule="evenodd" clip-rule="evenodd" fill="#3EB24F" d="M55.4,38.5c9.9-7.8,15.1-15.2,13-19.1
			c-2.3-3.9-11.6-3.1-23.3,1.5C43.3,8.5,39.4,0,34.9,0c-4.5,0-8.4,8.4-10.2,20.9c-11.8-4.7-20.9-5.5-23.1-1.5
			c-2.3,3.8,2.9,11.3,13,19.1C4.4,46.5-0.7,54,1.5,57.8c2.2,3.9,11.4,3,23.1-1.7C26.5,68.8,30.4,77,34.9,77c4.5,0,8.4-8.4,10.1-21
			c11.9,4.8,21.1,5.8,23.2,1.8C70.5,54,65.4,46.4,55.4,38.5z M3.1,56.9c-1.9-3.4,3.3-10,12.7-17.4c2.3,1.9,4.9,3.7,7.8,5.4
			c0.1,3.6,0.4,6.8,0.9,9.8C13.5,59.1,4.9,60.2,3.1,56.9z M23.4,43c-2.2-1.4-4.4-3-6.5-4.5c1.9-1.4,4.1-3.1,6.5-4.6
			c-0.1,1.5-0.1,3.1-0.1,4.6C23.3,40,23.3,41.7,23.4,43z M23.6,32.1c-2.9,1.8-5.4,3.8-7.8,5.5c-9.5-7.2-14.7-14-12.7-17.3
			C5,16.9,13.6,18,24.6,22.3C24,25.2,23.8,28.5,23.6,32.1z M44.5,30.9c-1.1-0.8-2.4-1.6-3.9-2.4c-1.3-0.8-2.7-1.5-4-2.1
			c2.4-1.2,4.7-2.3,7-3.4C44.3,25.4,44.5,28.1,44.5,30.9z M34.9,1.7c4,0,7.2,8,8.8,19.8C41,22.6,38,23.9,35,25.4
			c-3-1.5-5.9-2.8-8.8-4C27.9,9.5,31.1,1.7,34.9,1.7z M26,23c2.3,0.9,4.7,2,7.2,3.4c-1.4,0.6-2.8,1.3-4.1,2.1
			c-1.3,0.9-2.8,1.6-4,2.4C25.5,28.1,25.6,25.3,26,23z M25.4,46.1c1.1,0.9,2.5,1.6,3.9,2.4c1.3,0.8,2.6,1.5,4.1,2.1
			C30.8,52,28.3,53.1,26,54C25.6,51.6,25.4,49,25.4,46.1z M34.9,75.3c-3.9,0-7.1-7.9-8.8-19.8c2.8-1.2,5.8-2.4,8.8-4.1
			c3,1.7,5.8,3,8.7,4.1C42,67.6,38.8,75.3,34.9,75.3z M43.8,54c-2.3-0.9-4.7-2-7.2-3.4c1.3-0.6,2.8-1.3,4.1-2.1
			c1.3-0.8,2.7-1.5,3.9-2.4C44.5,48.9,44.2,51.7,43.8,54z M44.6,44.1c-1.5,1.2-3.2,2-4.7,3c-1.7,1-3.4,1.8-5,2.7
			c-1.5-0.8-3.2-1.7-4.8-2.6c-1.6-1-3.3-1.9-4.8-3C25,42.4,25,40.5,25,38.5c0-1.8,0-3.8,0.2-5.6c1.4-0.9,3.2-2,4.9-3
			c1.6-1,3.3-1.8,4.9-2.6c1.5,0.9,3.2,1.7,4.9,2.7c1.7,1.1,3.2,1.9,4.7,2.9c0.2,1.7,0.2,3.6,0.2,5.6S44.6,42.4,44.6,44.1z M67,20.1
			c1.9,3.4-3.5,10.2-12.9,17.4c-2.4-1.9-5-3.8-7.9-5.6c-0.1-3.6-0.4-6.6-0.9-9.6C56.4,17.9,65,16.7,67,20.1z M46.4,33.9
			c2.4,1.5,4.4,3.1,6.5,4.6c-2,1.6-4.2,3.1-6.5,4.6c0.1-1.4,0.1-3,0.1-4.6S46.5,35.3,46.4,33.9z M67,57.1
			c-1.9,3.4-10.4,2.1-21.7-2.6c0.5-2.8,0.8-6,0.9-9.4c2.9-1.8,5.5-3.7,7.9-5.6C63.7,46.9,68.9,53.6,67,57.1z M34.9,34.6
			c-2.2,0-4,1.7-4,3.9c0,2.2,1.7,3.9,4,3.9c2.2,0,4-1.7,4-3.9C38.9,36.3,37.1,34.6,34.9,34.6z"/>
	</g>
</g>
</svg>
