<?xml version="1.0" encoding="utf-8"?>
<!-- Generator: Adobe Illustrator 17.1.0, SVG Export Plug-In . SVG Version: 6.00 Build 0)  -->
<!DOCTYPE svg PUBLIC "-//W3C//DTD SVG 1.0//EN" "http://www.w3.org/TR/2001/REC-SVG-20010904/DTD/svg10.dtd">
<svg version="1.0" id="Shape_5_1_" xmlns="http://www.w3.org/2000/svg" xmlns:xlink="http://www.w3.org/1999/xlink" x="0px" y="0px"
	 viewBox="0 0 58 58" enable-background="new 0 0 58 58" xml:space="preserve">
<g id="Shape_5">
	<g>
		<path fill-rule="evenodd" clip-rule="evenodd" fill="#2EC1D7" d="M24.2,44.1l-5.5,5.5c-1.4,1.4-3.7,1.4-5.2,0l-5.2-5.2
			c-1.4-1.4-1.4-3.7,0-5.2l15.5-15.5c1.4-1.4,3.7-1.4,5.2,0l5.2,5.2l5.2-5.2l-5.2-5.2c-4.3-4.3-11.2-4.3-15.5,0L3.2,34.2
			C1.1,36.3,0,39,0,41.8V42c0,2.8,1.1,5.5,3.2,7.6l5.2,5.2c2.1,2.1,4.9,3.2,7.7,3.2h0c2.8,0,5.6-1.1,7.7-3.2l8.7-8.7
			C29.7,46.3,26.8,45.6,24.2,44.1z M54.8,8.4l-5.2-5.2C47.5,1.1,44.7,0,41.9,0h0c-2.8,0-5.6,1.1-7.7,3.2l-8.7,8.7
			c2.9-0.2,5.8,0.5,8.4,2l5.5-5.5c1.4-1.4,3.7-1.4,5.2,0l5.2,5.2c1.4,1.4,1.4,3.7,0,5.2L34.2,34.2c-1.4,1.4-3.7,1.4-5.2,0L23.8,29
			l-5.2,5.2l5.2,5.2c4.3,4.3,11.2,4.3,15.5,0l15.5-15.5c2.1-2.1,3.2-4.9,3.2-7.7v0C58,13.3,56.9,10.5,54.8,8.4z"/>
	</g>
</g>
</svg>
