<?xml version="1.0" encoding="utf-8"?>
<!-- Generator: Adobe Illustrator 17.1.0, SVG Export Plug-In . SVG Version: 6.00 Build 0)  -->
<!DOCTYPE svg PUBLIC "-//W3C//DTD SVG 1.0//EN" "http://www.w3.org/TR/2001/REC-SVG-20010904/DTD/svg10.dtd">
<svg version="1.0" id="Shape_2_1_" xmlns="http://www.w3.org/2000/svg" xmlns:xlink="http://www.w3.org/1999/xlink" x="0px" y="0px"
	 viewBox="0 0 82 84" enable-background="new 0 0 82 84" xml:space="preserve">
<g id="Shape_2">
	<g>
		<path fill-rule="evenodd" clip-rule="evenodd" fill="#FF7977" d="M7.1,44.8C7.1,30.4,16.8,18,30.3,14v4l17.8-9L30.3,0v6.4
			C13,10.9,0,26.3,0,44.8c0,2.6,0.2,5.2,0.7,7.6l0.5-3.8l7.3,5.9C7.6,51.5,7.1,48.2,7.1,44.8z M66.6,50.5l-1.2,19.9L82,59.6
			l-5.4-3.3c1.2-3.6,1.7-7.4,1.7-11.4c0-17.1-11.1-31.6-26.3-37L55,9.7l-9,3.8c14.5,3.3,25.1,16.1,25.1,31.3c0,2.6-0.5,5.2-0.9,7.6
			L66.6,50.5z M62.8,66.4c-5.9,6.4-14.2,10.4-23.7,10.4c-8.5,0-16.4-3.6-22-9l3.6-1.9L4,55L5.2,75l5.5-3.3C17.8,79.2,28,84,39.1,84
			c9.7,0,18.5-3.6,25.4-9.5l-3.6,1.4L62.8,66.4z M45,32c-1.2-0.7-1.4-0.9-1.9-1.4c-0.5-0.5-0.5-0.9,0-1.4c0.2-0.2,0.7-0.5,0.9-0.7
			h-0.2c-0.2,0-2.8,0.5-3.8,0.7c-1.9,0.5-3.8,1.2-5.5,2.4c-1.2,0.9-1.9,1.9-2.1,3.3c0,0.7,0,3.3,0,4.5c0,0.2,0,0.7-0.5,0.5
			c-0.9-0.2-0.5,1.7-0.5,1.9c0.2,0.7,0.5,1.2,0.7,1.9c0.2,0.5,0.5,0.5,0.5,0.5c0.2,1.2,0.7,3.3,1.7,4.7c0.2,0.2,0.2,0.5,0.2,0.7
			c-0.2,0.7-0.2,1.7-0.2,2.4c0,0.2-0.2,0.5-0.5,0.5c-0.7,0-0.9,0.5-0.9,1.2c0,1.2-0.7,2.1-1.2,2.4c-1.7,0.7-7.8,2.6-9.7,3.1
			c-1.4,0.5-1.7,0.9-1.9,1.4v2.4c7.6,0,33.4,0,39.1,0l0-2.4c-0.5-0.9-0.9-0.9-1.7-1.2c-3.6-1.4-6.6-1.9-10-3.1
			c-0.2-0.2-1.2-0.7-1.2-2.4c0-0.7-0.2-1.2-0.9-1.2c-0.2,0-0.2,0-0.2-0.5C45,50.5,45,49.8,45,49.6c0-0.2,0.2-0.5,0.2-0.5
			c1.2-1.7,1.4-3.6,1.7-4.7c0,0,0.2,0.2,0.5-0.5c0.2-0.7,0.2-0.9,0.5-1.9c0.2-0.7,0.2-1.9-0.5-1.9c-0.5,0.2-0.5,0-0.5-0.5v-4.5
			C46.7,33.5,45.7,32.5,45,32z"/>
	</g>
</g>
</svg>
