<?xml version="1.0" encoding="utf-8"?>
<!-- Generator: Adobe Illustrator 17.1.0, SVG Export Plug-In . SVG Version: 6.00 Build 0)  -->
<!DOCTYPE svg PUBLIC "-//W3C//DTD SVG 1.0//EN" "http://www.w3.org/TR/2001/REC-SVG-20010904/DTD/svg10.dtd">
<svg version="1.0" id="circle_1_" xmlns="http://www.w3.org/2000/svg" xmlns:xlink="http://www.w3.org/1999/xlink" x="0px" y="0px"
	 viewBox="0 0 455 455" enable-background="new 0 0 455 455" xml:space="preserve">
<g id="circle">
	<g>
		<path fill="#999999" d="M227.5,3c30.3,0,59.7,5.9,87.4,17.6c26.7,11.3,50.7,27.5,71.4,48.1c20.6,20.6,36.8,44.6,48.1,71.4
			c11.7,27.7,17.6,57.1,17.6,87.4s-5.9,59.7-17.6,87.4c-11.3,26.7-27.5,50.7-48.1,71.4c-20.6,20.6-44.6,36.8-71.4,48.1
			c-27.7,11.7-57.1,17.6-87.4,17.6s-59.7-5.9-87.4-17.6c-26.7-11.3-50.7-27.5-71.4-48.1c-20.6-20.6-36.8-44.6-48.1-71.4
			C8.9,287.2,3,257.8,3,227.5s5.9-59.7,17.6-87.4c11.3-26.7,27.5-50.7,48.1-71.4c20.6-20.6,44.6-36.8,71.4-48.1
			C167.8,8.9,197.2,3,227.5,3 M227.5,0C101.9,0,0,101.9,0,227.5S101.9,455,227.5,455S455,353.1,455,227.5S353.1,0,227.5,0L227.5,0z"
			/>
	</g>
</g>
</svg>
