<?xml version="1.0" encoding="utf-8"?>
<!-- Generator: Adobe Illustrator 17.1.0, SVG Export Plug-In . SVG Version: 6.00 Build 0)  -->
<!DOCTYPE svg PUBLIC "-//W3C//DTD SVG 1.0//EN" "http://www.w3.org/TR/2001/REC-SVG-20010904/DTD/svg10.dtd">
<svg version="1.0" id="Shape_6_1_" xmlns="http://www.w3.org/2000/svg" xmlns:xlink="http://www.w3.org/1999/xlink" x="0px" y="0px"
	 viewBox="0 0 49 57" enable-background="new 0 0 49 57" xml:space="preserve">
<g id="Shape_6">
	<g>
		<path fill-rule="evenodd" clip-rule="evenodd" fill="#DBB041" d="M13.2,8.2c-1-0.8-2.2-1.3-3.6-1.3c-3,0-5.5,2.5-5.5,5.5
			c0,0.8,0.2,1.6,0.5,2.3C7,12,9.9,9.8,13.2,8.2z M28.6,8V7V6V3.4h2.1c0.7,0,1.3-0.8,1.3-1.7C32,0.8,31.5,0,30.8,0H18.2
			C17.5,0,17,0.8,17,1.7c0,0.9,0.6,1.7,1.3,1.7h2.1V6v1v1c-2.1,0.4-4,1-5.9,1.8c-3.4,1.5-6.3,3.8-8.6,6.6C2.2,20.7,0,26.2,0,32.3
			C0,46,11,57,24.5,57C38,57,49,46,49,32.3C49,20.1,40.2,10,28.6,8z M24.5,52.8c-11.2,0-20.3-9.2-20.3-20.5c0-5.6,2.3-10.7,5.9-14.4
			c1.4-1.4,3-2.6,4.7-3.6c2.9-1.6,6.2-2.5,9.7-2.5c11.2,0,20.3,9.2,20.3,20.5C44.8,43.6,35.7,52.8,24.5,52.8z M36.8,19.9
			c-0.8-0.8-1.6-1.5-2.6-2.1c-0.5-0.3-0.9-0.6-1.4-0.9c-0.6-0.3-1.3-0.6-1.9-0.9c-1.6-0.7-3.4-1.1-5.3-1.2c-0.4,0-0.7,0-1.1,0
			c-3,0-5.8,0.8-8.3,2.1c-0.5,0.3-1,0.6-1.4,0.9c-0.9,0.6-1.8,1.3-2.6,2.1c-3.1,3.2-5.1,7.6-5.1,12.4c0,4.8,1.9,9.2,5.1,12.4
			c0.8,0.8,1.6,1.5,2.6,2.1c0.5,0.3,0.9,0.6,1.4,0.9c2.5,1.3,5.3,2.1,8.3,2.1c0.4,0,0.7,0,1.1,0c1.8-0.1,3.6-0.5,5.3-1.2
			c0.7-0.3,1.3-0.6,1.9-0.9c0.5-0.3,1-0.6,1.4-0.9c0.9-0.6,1.8-1.3,2.6-2.1c3.1-3.2,5.1-7.5,5.1-12.4S39.9,23.1,36.8,19.9z
			 M24.5,31.5L20,18.7c-0.4-1.1,4.5-1.9,4.5-0.3V31.5z"/>
	</g>
</g>
</svg>
