<?xml version="1.0" encoding="utf-8"?>
<!-- Generator: Adobe Illustrator 17.1.0, SVG Export Plug-In . SVG Version: 6.00 Build 0)  -->
<!DOCTYPE svg PUBLIC "-//W3C//DTD SVG 1.0//EN" "http://www.w3.org/TR/2001/REC-SVG-20010904/DTD/svg10.dtd">
<svg version="1.0" id="Shape_9_1_" xmlns="http://www.w3.org/2000/svg" xmlns:xlink="http://www.w3.org/1999/xlink" x="0px" y="0px"
	 viewBox="0 0 47 54" enable-background="new 0 0 47 54" xml:space="preserve">
<g id="Shape_9">
	<g>
		<path fill-rule="evenodd" clip-rule="evenodd" fill="#C2202A" d="M45.8,49.8l-1.2-3.4c-2.2-6.4-8-10.7-14.7-11
			c-0.6,0.5-1.2,0.8-1.8,1.2c-1,2.5-4.2,3.2-6.1,1.3c-2.2-0.2-4.3-1.1-6.1-2.5C9.3,35.7,3.5,40,1.3,46.4l-1.2,3.4
			c-0.3,1-0.2,2,0.4,2.9C1.2,53.5,2.2,54,3.2,54h39.6c1,0,2-0.5,2.6-1.3C46,51.8,46.2,50.8,45.8,49.8z M7.2,25.2
			c0.5,2.1,3.5,1.5,3.5-0.4c0-7.9,0.4-8.7-0.7-9.5c2.4-15,23.4-14.9,26,0c-1.1,0.9-0.7,1.6-0.7,9.5c0,0.6,0.3,1.1,0.8,1.5
			c0,6.2-2.5,5.8-10.1,7.8c-1.2-1.3-3.3-0.4-3.3,1.3c0,2.1,3.1,2.6,3.7,0.5c6.1-1.6,11.4-2.1,11.4-8.2v-1.2c0.5-0.2,0.8-0.6,0.9-1.2
			c5.9-0.1,5.9-8.9,0-9c-0.1-0.5-0.4-0.9-0.8-1.1c0.2-1.8-0.2-4.2-1.3-6.4C33.8,2.6,28.6,0,23.4,0h0C15.8,0,8.2,5.5,8,14
			c0,0.5,0,0.8,0,1.1c-0.4,0.2-0.7,0.6-0.8,1.1c-2.5,0-4.4,2-4.4,4.5C2.7,23.2,4.7,25.2,7.2,25.2z M27.4,32.9
			c3.9-2.7,6.6-8.7,6.6-14.5c0-16.5-22-16.5-22,0c0,7.1,4,14.4,9.2,15.8c0.5-1.4,1.9-2.5,3.5-2.5C25.8,31.6,26.7,32.1,27.4,32.9z"/>
	</g>
</g>
</svg>
