<?xml version="1.0" encoding="utf-8"?>
<!-- Generator: Adobe Illustrator 17.1.0, SVG Export Plug-In . SVG Version: 6.00 Build 0)  -->
<!DOCTYPE svg PUBLIC "-//W3C//DTD SVG 1.0//EN" "http://www.w3.org/TR/2001/REC-SVG-20010904/DTD/svg10.dtd">
<svg version="1.0" id="Shape_11_1_" xmlns="http://www.w3.org/2000/svg" xmlns:xlink="http://www.w3.org/1999/xlink" x="0px"
	 y="0px" viewBox="0 0 70 104" enable-background="new 0 0 70 104" xml:space="preserve">
<g id="Shape_11">
	<g>
		<path fill-rule="evenodd" clip-rule="evenodd" fill="#FF7977" d="M15.1,53.7c1.1,0.6,2.4,0.2,3-0.8c0.6-1.1,0.2-2.4-0.8-3
			c-11.5-6.7-15.4-21.5-8.8-33C15.1,5.3,29.8,1.3,41.3,8c11.5,6.7,15.4,21.5,8.8,33c-0.6,1.1-0.2,2.4,0.8,3c1.1,0.6,2.4,0.2,3-0.8
			C61.8,29.6,57.1,12,43.5,4.1C29.9-3.7,12.5,1,4.7,14.6C-3.2,28.3,1.5,45.8,15.1,53.7z M43.2,39.6c1.1,0.6,2.4,0.3,3-0.8
			c5.4-9.4,2.2-21.4-7.1-26.8c-9.3-5.4-21.3-2.2-26.7,7.2c-5.4,9.4-2.2,21.4,7.1,26.8c1.1,0.6,2.4,0.2,3-0.8c0.6-1.1,0.2-2.4-0.8-3
			c-7.2-4.2-9.7-13.5-5.5-20.7c4.2-7.3,13.4-9.7,20.6-5.6c7.2,4.2,9.7,13.5,5.5,20.7C41.8,37.6,42.1,38.9,43.2,39.6z M64.6,55.2
			c-2.5,0-4.5,2.1-4.5,4.6v8c0,0.5-0.4,0.9-0.9,0.9c-0.5,0-0.9-0.4-0.9-0.9V55.3c0-2.5-2-4.6-4.5-4.6c-2.5,0-4.5,2.1-4.5,4.6v9
			c0,0.5-0.4,0.9-0.9,0.9c-0.5,0-0.9-0.4-0.9-0.9V51.7c0-2.5-2-4.6-4.5-4.6c-2.5,0-4.5,2.1-4.5,4.6v9c0,0.5-0.4,0.9-0.9,0.9
			c-0.5,0-0.9-0.4-0.9-0.9V34.8c0-2.5-2-4.6-4.5-4.6c-2.5,0-4.5,2.1-4.5,4.6v40c0,0.4-0.2,0.7-0.6,0.8c-0.3,0.1-0.7,0-0.9-0.2
			L15.8,63.2L15.7,63c-0.8-0.8-2-1.3-3.1-1.3h0c-1.2,0-2.3,0.5-3.2,1.3c-1,1.1-1.9,3.1,0.2,6.7C12.6,75.2,16,80.4,19,85
			c2.2,3.4,4.3,6.6,5.9,9.4c1,1.7,3.1,6.3,4.2,8.7h34.5v0c1.3-4.2,5.6-19,5.6-24.4V59.8C69.2,57.3,67.1,55.2,64.6,55.2z"/>
	</g>
</g>
</svg>
