<?xml version="1.0" encoding="utf-8"?>
<!-- Generator: Adobe Illustrator 17.1.0, SVG Export Plug-In . SVG Version: 6.00 Build 0)  -->
<!DOCTYPE svg PUBLIC "-//W3C//DTD SVG 1.0//EN" "http://www.w3.org/TR/2001/REC-SVG-20010904/DTD/svg10.dtd">
<svg version="1.0" id="Shape_3_1_" xmlns="http://www.w3.org/2000/svg" xmlns:xlink="http://www.w3.org/1999/xlink" x="0px" y="0px"
	 viewBox="0 0 67 91" enable-background="new 0 0 67 91" xml:space="preserve">
<g id="Shape_3">
	<g>
		<path fill-rule="evenodd" clip-rule="evenodd" fill="#FF7977" d="M64.9,63.8c1.9-3.8,2-8.4-1.2-11.3c1.5-4.3,0.3-9.7-4.1-11.3
			c0.8-2.6,1-5.6-0.4-8c-1.3-2.1-3.8-2.7-6.2-2.6c2.5-5.5,6.4-12.3,11.4-17.2l0.7-0.7l-0.6-0.8c-0.4-0.5-10.2-13.2-22.6-9.4
			l-0.9,0.3l0.1,0.9c0,0.2,1.6,22.2-3,32c-0.4,0.2-0.8,0.5-1.3,0.7c-0.7-2.1-1.5-4.2-2.5-6.2c-2-4.7-5.1-10.9-9.4-16.2
			c2-1.8,1-4.6,0.2-6.2c2.6-2.3,6.6-4.9,11.1-5.4c0.4,1.2,1.5,3.4,3.3,4.1c-0.1-1.6-0.1-2.6-0.1-2.7L39.3,2L41,1.4
			c0.7-0.2,1.3-0.4,2-0.5l-0.7-0.2C30-3.1,20.2,9.6,19.8,10.1l-0.6,0.8l0.7,0.7c5.4,5.2,9.4,12.7,11.9,18.3
			c-7.6,2.6-10.3,9.1-12.7,14.9c-1.7,4-3.2,7.5-5.9,8.8l-0.1-0.3l-0.8-2.6L0,54.8v0L11.8,91l12.3-4l-0.7-2.2
			c11.1-3.2,22.7-4.5,33.9-7.2c3.5-0.8,7-1.6,9-4.9C66.7,71.9,67,71,67,70v-0.1C67,67.8,66.1,65.5,64.9,63.8z M6.7,60.6L5.5,57
			l3.6-1.2l1.2,3.6L6.7,60.6z M43.1,24c0.3,1.4,1.5,2.7,3.1,3.5c2.5,1.2,5.3,0.6,6.1-1.3c0.9-1.9-0.5-4.3-3-5.5
			c-2.5-1.2-5.2-0.6-6.1,1.2c0.4-5.1,0.4-10.1,0.3-13.6c2.5,0,3.9-2.8,4.4-4.3c4.5,0.5,8.4,3.1,11.1,5.4c-0.8,1.5-1.8,4.4,0.2,6.2
			c-4,5-7,10.7-9,15.2c-3.1,0.6-6.2,1.8-9.2,3.2C42.1,31.1,42.8,27.6,43.1,24z M32,30.3C32,30.3,32,30.3,32,30.3L31.9,30
			C31.9,30.1,32,30.2,32,30.3z M61.4,71.9c-2.9,1.8-7.2,2.3-10.4,3c-9.3,1.9-19.6,3.1-28.8,5.8l-7.6-22.8c4.3-1.8,6.8-6.7,8.7-11.1
			c2.1-5,4.3-10.1,9.7-12.1c0.7,1.6,1.1,3.2,1.7,5.1c0.3,1,1.5,1.3,2.3,0.8c4.4-2.4,9.1-5,14.1-5.8c0,0,0.1,0,0.1,0c0,0,0,0,0-0.1
			c0.1,0,0.2,0,0.2,0c1.5-0.2,4-0.4,4.7,1.3c0.6,1.3,0.4,2.8,0.1,4.1c-0.2,0.8-0.5,1.9-0.6,2.1c-0.3,0.8,0,2,1,2.2
			c4,0.5,4.6,5,3.1,8.1c-0.3,0.6-0.2,1.4,0.3,1.8c3.2,2.2,2.6,5.8,0.9,8.8c-0.2,0.4-0.2,1.1,0.1,1.5C62.7,66.6,64.3,70.1,61.4,71.9z
			 M34.9,19c-2.5,1.2-3.8,3.6-3,5.5c0.9,1.9,3.6,2.4,6.1,1.3c0.4-0.2,0.7-0.4,1.1-0.6c0.3-2.1,0.4-4.2,0.5-6.3
			C38.3,18.2,36.6,18.2,34.9,19z"/>
	</g>
</g>
</svg>
