<?xml version="1.0" encoding="utf-8"?>
<!-- Generator: Adobe Illustrator 17.1.0, SVG Export Plug-In . SVG Version: 6.00 Build 0)  -->
<!DOCTYPE svg PUBLIC "-//W3C//DTD SVG 1.0//EN" "http://www.w3.org/TR/2001/REC-SVG-20010904/DTD/svg10.dtd">
<svg version="1.0" id="Shape_13_1_" xmlns="http://www.w3.org/2000/svg" xmlns:xlink="http://www.w3.org/1999/xlink" x="0px"
	 y="0px" viewBox="0 0 83 67" enable-background="new 0 0 83 67" xml:space="preserve">
<g id="Shape_13">
	<g>
		<path fill-rule="evenodd" clip-rule="evenodd" fill="#FF7977" d="M34.2,34.5c0-4.1,0-5.8,0-12.4c0,0,0,0,0,0c-0.2-2-7-2.1-8.4-2.1
			c-1.4,0-8.2,0.1-8.4,2.1c0,0,0,0,0,0c0,8.2,0,8.9,0,16c3.2-2,6.6-3.5,10.2-3.9C29.6,33.9,31.8,34.1,34.2,34.5z M18.7,22.2
			c0.7-0.4,3.1-0.9,7-0.9c3.9,0,6.3,0.5,7,0.9c-0.7,0.4-3.1,0.9-7,0.9C21.8,23.1,19.4,22.6,18.7,22.2z M76.9,41.9
			c-4,2.5-7,11-12.8,12.6c-4.5,1.2-10.3-3.8-15.8-4.9c6.9-0.6,17.3-0.3,16.5-6.2c-1-6.8-11.4-3.6-17.5-4.1c-7-0.6-14-3.8-19.6-3.1
			C17,37.5,7.8,49.3,0.6,52.4l13.5,13.5c14.6-8.6,35.5,5.2,54.9-1.9c7.4-2.7,11.2-10.8,13.4-19.6C83.2,40.9,81.4,39.1,76.9,41.9z
			 M47.5,37.2c1.6,0.2,3.5,0,5.4-0.1c0.7,0,1.3-0.1,2-0.1c0-9.4,0-19.7,0-24.9c0,0,0,0,0,0c-0.2-2-7-2.1-8.4-2.1
			c-1.4,0-8.2,0.1-8.4,2.1c0,0,0,0,0,0c0,4.9,0,14.3,0,23.2c0.4,0.1,0.8,0.2,1.2,0.3C41.9,36.3,44.7,37,47.5,37.2z M46.5,11.3
			c3.9,0,6.3,0.5,7,0.9c-0.7,0.4-3.1,0.9-7,0.9c-3.9,0-6.3-0.6-7-0.9C40.2,11.8,42.6,11.3,46.5,11.3z M66.8,43.1
			c0.2,1.7-0.1,3.2-1.1,4.4c-1.4,1.8-4,2.7-6.9,3.2c0,0.4,0,0.7,0,1c1.9,0.8,3.6,1.2,4.8,0.9c2.7-0.7,4.9-3.7,7-6.6
			c1.6-2.2,3.2-4.4,5.1-5.6c0-13.9,0-32.2,0-38.2c0,0,0,0,0,0c-0.2-2-7-2.1-8.4-2.1c-1.4,0-8.2,0.1-8.4,2.1c0,0,0,0,0,0
			c0,5.5,0,21.5,0,34.9C61.6,37.1,66.1,38.1,66.8,43.1z M67.2,1.3c3.9,0,6.3,0.6,7,0.9c-0.7,0.4-3.1,0.9-7,0.9c-3.9,0-6.3-0.6-7-0.9
			C60.9,1.8,63.3,1.3,67.2,1.3z"/>
	</g>
</g>
</svg>
