<?xml version="1.0" encoding="utf-8"?>
<!-- Generator: Adobe Illustrator 17.1.0, SVG Export Plug-In . SVG Version: 6.00 Build 0)  -->
<!DOCTYPE svg PUBLIC "-//W3C//DTD SVG 1.0//EN" "http://www.w3.org/TR/2001/REC-SVG-20010904/DTD/svg10.dtd">
<svg version="1.0" id="Shape_10_1_" xmlns="http://www.w3.org/2000/svg" xmlns:xlink="http://www.w3.org/1999/xlink" x="0px"
	 y="0px" viewBox="0 0 48 57" enable-background="new 0 0 48 57" xml:space="preserve">
<g id="Shape_10">
	<g>
		<path fill-rule="evenodd" clip-rule="evenodd" fill="#FF7977" d="M20.1,29.7c-0.2,0.3-0.3,0.6-0.3,0.9c0,0.3,0,0.7,0.1,1
			c0.1,0.3,0.4,0.5,0.6,0.7c0.3,0.2,0.6,0.3,0.9,0.5c0.3,0.1,0.6,0.2,0.9,0.3v-4.6C21.5,28.6,20.6,29,20.1,29.7z M27.9,37.9
			c-0.2-0.2-0.5-0.4-0.8-0.6c-0.6-0.3-1.3-0.5-2-0.7v5.1c1.1-0.1,2.3-0.5,2.9-1.5c0.3-0.5,0.3-1.1,0.2-1.6
			C28.3,38.3,28.1,38.1,27.9,37.9z M27,12.4c4.4-3.6,7.3-11.8,5.5-12.2c-2.4-0.5-7.6,1.6-10.2,2c-3.6,0.4-7.5-3.8-9.7-1.5
			c-1.8,1.9,1.3,8.9,6.1,12c-14.3,6.9-34.3,41.6,0.7,44.1C67.9,60.3,43.6,19.1,27,12.4z M31.2,39.7c-0.1,1.4-0.9,2.6-2,3.4
			c-1.1,0.9-2.6,1.3-4,1.4V46c0,0.4-0.2,0.8-0.5,1.1c-0.4,0.4-1,0.5-1.5,0.2c-0.5-0.2-0.8-0.7-0.8-1.3v-1.6c-0.2,0-0.5-0.1-0.7-0.2
			c-1.3-0.4-2.6-1.1-3.5-2.1c-0.5-0.5-0.8-1.1-1.1-1.7C17,40.2,17,40,16.9,39.9c0-0.2-0.1-0.3-0.1-0.5c0-0.3,0-0.5,0.2-0.8
			c0.3-0.5,0.8-0.8,1.4-0.7c0.6,0,1,0.4,1.2,1c0.1,0.2,0.1,0.3,0.2,0.5c0.1,0.2,0.1,0.3,0.2,0.5c0.2,0.3,0.4,0.6,0.6,0.8
			c0.5,0.5,1.1,0.8,1.8,1V36c-1.3-0.3-2.7-0.8-3.7-1.6c-0.5-0.4-1-0.9-1.3-1.5c-0.3-0.6-0.4-1.3-0.4-2c0-0.7,0.1-1.4,0.4-2
			c0.3-0.6,0.7-1.1,1.2-1.6c1-1,2.4-1.5,3.8-1.7v-0.1v-1.4c0-0.4,0.2-0.8,0.5-1.1c0.4-0.4,1-0.5,1.5-0.2c0.5,0.2,0.8,0.7,0.8,1.3
			v1.4v0.1c0.2,0,0.4,0.1,0.6,0.1c1.4,0.2,2.7,0.8,3.7,1.8c0.5,0.5,0.9,1,1.1,1.6c0.1,0.2,0.1,0.3,0.2,0.5c0.1,0.2,0.1,0.3,0.1,0.5
			c0,0.3,0,0.6-0.1,0.8c-0.2,0.5-0.8,0.8-1.4,0.8c-0.6,0-1.1-0.4-1.3-0.9c-0.1-0.2-0.1-0.3-0.2-0.5c-0.1-0.2-0.1-0.3-0.2-0.4
			c-0.2-0.3-0.4-0.5-0.7-0.7c-0.6-0.4-1.3-0.6-2-0.8v5.3c0.8,0.2,1.6,0.4,2.4,0.7c1.2,0.5,2.3,1.2,3,2.3c0,0,0,0,0,0
			c0.2,0.3,0.1,0.2,0,0C31.1,37.6,31.3,38.7,31.2,39.7z M30.6,36.7C30.5,36.6,30.4,36.5,30.6,36.7L30.6,36.7z"/>
	</g>
</g>
</svg>
