<?xml version="1.0" encoding="utf-8"?>
<!-- Generator: Adobe Illustrator 17.1.0, SVG Export Plug-In . SVG Version: 6.00 Build 0)  -->
<!DOCTYPE svg PUBLIC "-//W3C//DTD SVG 1.0//EN" "http://www.w3.org/TR/2001/REC-SVG-20010904/DTD/svg10.dtd">
<svg version="1.0" id="Layer_1" xmlns="http://www.w3.org/2000/svg" xmlns:xlink="http://www.w3.org/1999/xlink" x="0px" y="0px"
	 viewBox="0 0 612 792" enable-background="new 0 0 612 792" xml:space="preserve">
<path fill="#F9F9F9" d="M63.3,274.6v-20.8c0-5.2,4.2-9.5,9.5-9.5h465.8c5.2,0,9.5,4.2,9.5,9.5v277.1h20.8V238.9
	c0-8.2-6.7-14.8-14.8-14.8H57.9c-8.2,0-14.8,6.7-14.8,14.8v291.9h20.3V274.6L63.3,274.6z"/>
<path fill="#B2B2B2" d="M42,238.9c0-8.8,7.1-15.9,15.9-15.9h496.1c8.8,0,15.9,7.1,15.9,15.9v291.9h1.1V238.9c0-9.5-7.7-17-17-17
	H57.9c-9.5,0-17,7.7-17,17v291.9H42V238.9L42,238.9z M43.1,238.9c0-8.1,6.6-14.8,14.8-14.8h496.1c8.2,0,14.8,6.7,14.8,14.8v291.9
	h1.1V238.9c0-8.8-7.1-15.9-15.9-15.9H57.9c-8.8,0-15.9,7.1-15.9,15.9v291.9h1.1V238.9L43.1,238.9z"/>
<path fill="#FFFFFF" d="M65.5,275.7h480.3v255.3H65.5V275.7z M545.8,253.7c0-4-3.2-7.2-7.2-7.2H72.9c-4,0-7.2,3.2-7.2,7.2v19.6
	h480.3v-19.6L545.8,253.7z"/>
<path fill="#B2B2B2" d="M64.4,275.7c-0.7,0-1.1-0.4-1.1-1.1v256.4h1.1V275.7z M546.9,275.7v255.3h1.1V274.6
	C548,275.1,547.6,275.7,546.9,275.7z M64.4,273.4v-19.7c0-4.7,3.8-8.4,8.4-8.4h465.8c4.7,0,8.4,3.8,8.4,8.4v19.6
	c0.7,0,1.1,0.4,1.1,1.1v-20.7c0-5.2-4.2-9.5-9.5-9.5H72.9c-5.2,0-9.5,4.2-9.5,9.5v20.7C63.3,273.9,63.8,273.4,64.4,273.4z
	 M65.5,275.7h-1.1v255.3h1.1V275.7z M545.8,275.7v255.3h1.1V275.7H545.8z M65.5,273.4v-19.7c0-4,3.2-7.2,7.2-7.2h465.8
	c4,0,7.2,3.2,7.2,7.2v19.6h1.1v-19.6c0-4.7-3.8-8.4-8.4-8.4H72.9c-4.7,0-8.4,3.8-8.4,8.4v19.6h1L65.5,273.4z M65.5,274.6h480.3v1.1
	H65.5L65.5,274.6z M65.5,273.4h480.3v1.1H65.5L65.5,273.4z M64.4,275.7v-2.2c-0.7,0-1.1,0.4-1.1,1.1S63.8,275.7,64.4,275.7z
	 M546.9,273.4v2.2c0.7,0,1.1-0.4,1.1-1.1S547.6,273.4,546.9,273.4z M65.5,275.7v-1.1h-1.1v1.1H65.5z M545.8,275.7h1.1v-1.1h-1.1
	V275.7z M65.5,273.4h-1.1v1.1h1.1V273.4z M545.8,273.4v1.1h1.1v-1.1H545.8z"/>
<path fill="#F9F9F9" d="M600,533.2h-52.3c-0.2,0.1-0.4,0.2-0.7,0.2H64.4c-0.2,0-0.4-0.1-0.7-0.2H12c-5.5,0-9.8,4.5-9.8,9.8v15
	c0,5.5,4.5,9.8,9.8,9.8H600c5.5,0,9.8-4.5,9.8-9.8v-15C609.8,537.5,605.4,533.2,600,533.2z M273.5,550.5v-1.1h64.8v2.2h-64.8V550.5
	L273.5,550.5z M64.4,533.4h482.5c0.2,0,0.4-0.1,0.7-0.2H63.7C64,533.3,64.2,533.4,64.4,533.4z"/>
<path fill="#B2B2B2" d="M600,530.9h-28.7v1.1H600c6,0,10.9,4.9,10.9,10.9v15c0,6-4.9,10.9-10.9,10.9H12c-6,0-10.9-4.9-10.9-10.9v-15
	c0-6,4.9-10.9,10.9-10.9h28.7v-1.1H12c-6.7,0-12,5.5-12,12v15c0,6.7,5.5,12,12,12H600c6.7,0,12-5.5,12-12v-15
	C612,536.3,606.7,530.9,600,530.9z M43.1,530.9h20.3v1.1H43.1L43.1,530.9z M548,530.9h20.8v1.1H548V530.9z M570.1,530.9h1.1v1.1
	h-1.1V530.9z M40.9,530.9H42v1.1h-1.1V530.9z M42,530.9h1.1v1.1H42V530.9z M569,530.9h1.1v1.1H569V530.9z M65.5,530.9h480.3v0.2
	H65.5L65.5,530.9z M546.9,530.9h1.1v1.1h-1.1V530.9z M63.3,530.9h1.1v1.1h-1.1V530.9z M545.8,530.9v0.2H65.5v-0.2h-1.1v1.1h482.5
	v-1.1H545.8z M600,533.2c5.5,0,9.8,4.5,9.8,9.8v15c0,5.5-4.5,9.8-9.8,9.8H12c-5.5,0-9.8-4.5-9.8-9.8v-15c0-5.5,4.5-9.8,9.8-9.8h28.7
	V532H12c-6,0-10.9,4.9-10.9,10.9v15c0,6,4.9,10.9,10.9,10.9H600c6,0,10.9-4.9,10.9-10.9v-15c0-6-4.9-10.9-10.9-10.9h-28.7v1.1H600z
	 M548,532.3c0,0.3-0.2,0.7-0.4,0.9h21.3V532H548V532.3z M63.3,532.3V532H43.1v1.1h20.7C63.5,532.9,63.3,532.6,63.3,532.3L63.3,532.3
	z M40.9,532H42v1.1h-1.1V532z M570.1,532h1.1v1.1h-1.1V532z M42,532h1.1v1.1H42V532z M569,532h1.1v1.1H569V532z M548,532.3V532h-1.1
	v0.2H64.4V532h-1.1v0.2c0,0.3,0.2,0.7,0.4,0.9h483.9C547.9,532.9,548,532.6,548,532.3z M64.4,532h482.5v0.2H64.4L64.4,532z
	 M338.4,551.6v-2.2h-64.8v1.1h64.8h-64.8v1.1H338.4z M82.9,267.1c-3.7,0-6.7-3-6.7-6.7s3-6.7,6.7-6.7s6.7,3,6.7,6.7
	S86.6,267.1,82.9,267.1z M82.9,256c-2.5,0-4.5,2-4.5,4.5s2,4.5,4.5,4.5s4.5-2,4.5-4.5S85.3,256,82.9,256z M103.8,267.1
	c-3.7,0-6.7-3-6.7-6.7s3-6.7,6.7-6.7c3.7,0,6.7,3,6.7,6.7S107.5,267.1,103.8,267.1z M103.8,256c-2.5,0-4.5,2-4.5,4.5s2,4.5,4.5,4.5
	c2.5,0,4.5-2,4.5-4.5S106.3,256,103.8,256z M124.8,267.1c-3.7,0-6.7-3-6.7-6.7s3-6.7,6.7-6.7s6.7,3,6.7,6.7S128.5,267.1,124.8,267.1
	z M124.8,256c-2.5,0-4.5,2-4.5,4.5s2,4.5,4.5,4.5s4.5-2,4.5-4.5S127.2,256,124.8,256z"/>
<path fill="#FFFFFF" d="M99.3,315.7h62.3"/>
<path fill="#B2B2B2" d="M161.6,316.8H99.3c-0.7,0-1.1-0.4-1.1-1.1s0.4-1.1,1.1-1.1h62.3c0.7,0,1.1,0.4,1.1,1.1
	S162.1,316.8,161.6,316.8z"/>
<path fill="#FFFFFF" d="M99.3,335.3h181.5"/>
<path fill="#B2B2B2" d="M280.8,336.4H99.3c-0.7,0-1.1-0.4-1.1-1.1s0.4-1.1,1.1-1.1h181.5c0.7,0,1.1,0.4,1.1,1.1
	S281.4,336.4,280.8,336.4z"/>
<path fill="#FFFFFF" d="M99.3,451.7h62.3"/>
<path fill="#B2B2B2" d="M161.6,452.8H99.3c-0.7,0-1.1-0.4-1.1-1.1c0-0.7,0.4-1.1,1.1-1.1h62.3c0.7,0,1.1,0.4,1.1,1.1
	C162.7,452.4,162.1,452.8,161.6,452.8z"/>
<path fill="#FFFFFF" d="M99.3,471.3h181.5"/>
<path fill="#B2B2B2" d="M280.8,472.4H99.3c-0.7,0-1.1-0.4-1.1-1.1c0-0.7,0.4-1.1,1.1-1.1h181.5c0.7,0,1.1,0.4,1.1,1.1
	C281.9,472,281.4,472.4,280.8,472.4z"/>
<path fill="#FFFFFF" d="M99.3,374.5h62.3"/>
<path fill="#B2B2B2" d="M161.6,375.6H99.3c-0.7,0-1.1-0.4-1.1-1.1c0-0.7,0.4-1.1,1.1-1.1h62.3c0.7,0,1.1,0.4,1.1,1.1
	C162.7,375.2,162.1,375.6,161.6,375.6z"/>
<path fill="#FFFFFF" d="M99.3,394.6h181.5"/>
<path fill="#B2B2B2" d="M280.8,395.7H99.3c-0.7,0-1.1-0.4-1.1-1.1s0.4-1.1,1.1-1.1h181.5c0.7,0,1.1,0.4,1.1,1.1
	S281.4,395.7,280.8,395.7z"/>
<path fill="#FFFFFF" d="M99.3,414.6h127.8"/>
<path fill="#B2B2B2" d="M227.1,415.7H99.3c-0.7,0-1.1-0.4-1.1-1.1c0-0.7,0.4-1.1,1.1-1.1h127.9c0.7,0,1.1,0.4,1.1,1.1
	C228.3,415.3,227.7,415.7,227.1,415.7L227.1,415.7z"/>
<path fill="#FFFFFF" d="M434.5,422.4l54.4,56.5c8,0,14.5-6.5,14.5-14.5v-0.3l-52.7-55.9"/>
<path fill="#FF7977" d="M488.9,480c-0.3,0-0.6-0.1-0.8-0.3l-54.4-56.5c-0.4-0.4-0.4-1.1,0-1.6s1.1-0.4,1.6,0l54,56.2
	c7.1-0.2,12.8-6,12.9-13.3l-52.4-55.6c-0.4-0.4-0.4-1.1,0-1.6s1.1-0.4,1.6,0l52.7,55.9c0.2,0.2,0.3,0.4,0.3,0.8v0.3
	C504.5,473,497.5,480,488.9,480L488.9,480z"/>
<g>
	<circle id="a" fill="#FFFFFF" cx="403.3" cy="370.6" r="60.5"/>
</g>
<g>
	<path id="b" fill="#FF7977" d="M403.3,432.2c-34,0-61.6-27.6-61.6-61.6s27.6-61.6,61.6-61.6s61.6,27.6,61.6,61.6
		S437.3,432.2,403.3,432.2z M403.3,311.3c-32.8,0-59.4,26.6-59.4,59.4s26.6,59.4,59.4,59.4s59.4-26.6,59.4-59.4
		S436.1,311.3,403.3,311.3z"/>
</g>
<path fill="#FFFFFF" d="M434.2,409.7c-8.5,6.7-19.3,10.7-30.9,10.7c-19.6,0-36.7-11.4-44.8-27.9"/>
<path fill="#FF7977" d="M403.3,421.6c-19.6,0-37.1-10.9-45.8-28.5c-0.2-0.6,0-1.2,0.6-1.4c0.6-0.2,1.2,0,1.4,0.6
	c8.2,16.8,25.1,27.3,43.8,27.3c11.1,0,21.5-3.7,30.2-10.5c0.4-0.3,1.2-0.3,1.6,0.2c0.3,0.4,0.3,1.2-0.2,1.6
	C425.8,417.8,414.9,421.6,403.3,421.6L403.3,421.6z"/>
</svg>
