<?xml version="1.0" encoding="utf-8"?>
<!-- Generator: Adobe Illustrator 17.1.0, SVG Export Plug-In . SVG Version: 6.00 Build 0)  -->
<!DOCTYPE svg PUBLIC "-//W3C//DTD SVG 1.0//EN" "http://www.w3.org/TR/2001/REC-SVG-20010904/DTD/svg10.dtd">
<svg version="1.0" id="Shape_1_1_" xmlns="http://www.w3.org/2000/svg" xmlns:xlink="http://www.w3.org/1999/xlink" x="0px" y="0px"
	 viewBox="0 0 92 66" enable-background="new 0 0 92 66" xml:space="preserve">
<g id="Shape_1">
	<g>
		<path fill-rule="evenodd" clip-rule="evenodd" fill="#FF7977" d="M72.8,40.6C56.3,24.3,64.1,32,55.2,23.1c0,0-2.7-2.6-6.2-1.1
			c-2.5,1.1-5.6,2.5-8,3.7c-2.6,1.4-4.5,1.8-5.4,1.8c-5.1,0-9.2-4.1-9.2-9.1c0-3.3,1.7-6.1,4.4-7.7c3.7-2.5,12.1-7,12.1-7
			s-2.6-3.2-8.2-3.2c-5.6,0-17.4,7.6-17.4,7.6s-3.3,2.1-8.1,0.2L0,5.1v31.6c0,0,2.6,0.8,5,1.7c0.5-1.5,1.4-2.9,2.6-4
			c3.9-3.7,10.4-3.7,13.9-0.1c1.1,1.1,1.8,2.4,2.2,3.9c1.4,0.4,2.7,1.2,3.8,2.3c1.1,1.1,1.8,2.4,2.2,3.9c1.4,0.4,2.7,1.2,3.8,2.3
			c1.2,1.2,2,2.7,2.3,4.2c1.5,0.4,2.8,1.2,3.9,2.3c2.1,2.2,2.9,5.1,2.4,8c0,0,0,0,0,0c0,0,1.3,1.5,2.1,2.3c1.6,1.6,4.1,1.6,5.7,0
			c1.6-1.6,1.6-4.1,0-5.7c-0.1-0.1-5.7-5.9-5.2-6.3c0.4-0.4,7.6,6.9,7.7,7.1c1.6,1.6,4.1,1.6,5.7,0c1.6-1.6,1.6-4.1,0-5.7
			c-0.1-0.1-0.4-0.4-0.5-0.5c0,0-7.1-6.3-6.6-6.8c0.5-0.5,9.4,7.6,9.4,7.6c1.6,1.4,4,1.4,5.6-0.1c1.5-1.5,1.5-3.8,0.2-5.4
			c0-0.1-6.7-7-6.2-7.5c0.5-0.5,7.2,6.2,7.2,6.2c1.6,1.6,4.1,1.6,5.7,0C74.5,44.8,74.5,42.2,72.8,40.6
			C72.9,40.7,72.9,40.6,72.8,40.6z M77.6,11.3c-2.3,0.5-3.7-0.7-3.7-0.7s-4.4-3.8-9.3-7.9c-4-3.4-6.1-3.2-9-1.7
			c-4.8,2.5-16.4,9-21.8,12.3c-2,1.1-3.4,2.6-3.4,4.9c0,2.9,3.8,6.7,8.3,4.3c2.4-1.2,8.2-4.1,12-6.2c4.2-2.2,6.9,0.3,6.9,0.3
			S72.7,31.8,77,35.9c2.8,2.7,6.6,1.4,7.9,1.3C86,37,92,35.8,92,35.8V8.2C92,8.2,83.2,10.1,77.6,11.3z M31.2,55
			c0.7-1.9,0.5-4-0.9-5.4c-1.3-1.3-3.1-1.6-4.9-1.2c0.5-1.7,0.2-3.6-1.1-4.9c-1.3-1.3-3.1-1.6-4.9-1.2c0.5-1.7,0.2-3.6-1.1-4.9
			c-2-2-5.5-2-7.8,0.2c-2.3,2.2-3.7,6.1-1.7,8.4c2,2.3,4.3,0.9,6.1,0.5c-0.5,1.7-2,3.4-0.2,5.6c1.8,2.3,4.3,0.9,6.1,0.5
			c-0.5,1.7-1.9,3.5-0.2,5.6c1.8,2.1,4.7,1,6.6,0.4c-0.7,1.9-2.3,3.9-0.3,6.2c2,2.3,6.7,1.2,9-0.9c2.3-2.2,2.5-5.6,0.5-7.6
			C35.2,54.7,33.1,54.4,31.2,55z"/>
	</g>
</g>
</svg>
