<?xml version="1.0" encoding="utf-8"?>
<!-- Generator: Adobe Illustrator 17.1.0, SVG Export Plug-In . SVG Version: 6.00 Build 0)  -->
<!DOCTYPE svg PUBLIC "-//W3C//DTD SVG 1.0//EN" "http://www.w3.org/TR/2001/REC-SVG-20010904/DTD/svg10.dtd">
<svg version="1.0" id="Shape_8_1_" xmlns="http://www.w3.org/2000/svg" xmlns:xlink="http://www.w3.org/1999/xlink" x="0px" y="0px"
	 viewBox="0 0 56 56" enable-background="new 0 0 56 56" xml:space="preserve">
<g id="Shape_8">
	<g>
		<path fill-rule="evenodd" clip-rule="evenodd" fill="#7C3A67" d="M23,45.5L21.7,45c0.1-0.9,0.1-1.9-0.1-2.8l1.2-0.6
			c0.8-0.4,1.1-1.3,0.8-2L22.9,38c-0.4-0.8-1.3-1.1-2-0.8l-1.2,0.6c-0.6-0.7-1.3-1.4-2.1-1.9l0.5-1.3c0.3-0.8-0.1-1.7-0.9-2L15.5,32
			c-0.8-0.3-1.7,0.1-2,0.9L13,34.2c-0.9-0.1-1.9-0.1-2.8,0.1l-0.6-1.2c-0.4-0.8-1.3-1.1-2-0.8L6,33c-0.8,0.4-1.1,1.3-0.8,2l0.6,1.2
			c-0.7,0.6-1.4,1.3-1.9,2.1l-1.3-0.5c-0.8-0.3-1.7,0.1-2,0.9l-0.6,1.6c-0.1,0.4-0.1,0.8,0,1.2C0.3,42,0.6,42.3,1,42.4l1.3,0.5
			c-0.1,0.9-0.1,1.9,0.1,2.8l-1.2,0.6c-0.8,0.4-1.1,1.3-0.8,2l0.7,1.6c0.4,0.8,1.3,1.1,2,0.8l1.2-0.6C5,50.9,5.7,51.5,6.5,52L6,53.3
			c-0.1,0.4-0.1,0.8,0,1.2c0.2,0.4,0.5,0.7,0.9,0.8l1.6,0.6c0.4,0.1,0.8,0.1,1.2,0c0.4-0.2,0.7-0.5,0.8-0.9l0.5-1.3
			c0.9,0.1,1.9,0.1,2.8-0.1l0.6,1.2c0.4,0.8,1.3,1.1,2,0.8l1.6-0.7c0.8-0.4,1.1-1.3,0.8-2l-0.6-1.2c0.7-0.6,1.4-1.3,1.9-2.1l1.3,0.5
			c0.4,0.1,0.8,0.1,1.2,0c0.4-0.2,0.7-0.5,0.8-0.9l0.6-1.6C24.2,46.7,23.8,45.8,23,45.5z M14.5,49.5c-0.8,0.4-1.7,0.6-2.5,0.6
			c-2.4,0-4.5-1.4-5.5-3.5c-1.4-3.1-0.1-6.7,3-8.1c0.8-0.4,1.7-0.6,2.5-0.6c2.4,0,4.5,1.4,5.5,3.5C18.9,44.5,17.6,48.1,14.5,49.5z
			 M38.2,49.9l-0.7-0.3c0.1-0.5,0-1-0.1-1.6l0.7-0.3c0.4-0.2,0.6-0.7,0.4-1.1l-0.4-0.9c-0.2-0.4-0.7-0.6-1.1-0.4l-0.7,0.3
			c-0.3-0.4-0.7-0.8-1.2-1.1l0.3-0.7c0.2-0.4-0.1-0.9-0.5-1.1L34,42.4c-0.4-0.2-0.9,0.1-1.1,0.5l-0.3,0.7c-0.5-0.1-1,0-1.6,0.1
			L30.8,43c-0.2-0.4-0.7-0.6-1.1-0.4L28.7,43c-0.4,0.2-0.6,0.7-0.4,1.1l0.3,0.7c-0.4,0.3-0.8,0.7-1.1,1.2l-0.7-0.3
			c-0.4-0.2-0.9,0.1-1.1,0.5l-0.3,0.9c-0.1,0.2-0.1,0.4,0,0.7c0.1,0.2,0.3,0.4,0.5,0.4l0.7,0.3c-0.1,0.5,0,1,0.1,1.6L26,50.4
			c-0.4,0.2-0.6,0.7-0.4,1.1l0.4,0.9c0.2,0.4,0.7,0.6,1.1,0.4l0.7-0.3c0.3,0.4,0.7,0.8,1.2,1.1l-0.3,0.7c-0.1,0.2-0.1,0.4,0,0.7
			c0.1,0.2,0.3,0.4,0.5,0.4l0.9,0.3c0.2,0.1,0.4,0.1,0.7,0c0.2-0.1,0.4-0.3,0.4-0.5l0.3-0.7c0.5,0.1,1,0,1.6-0.1l0.3,0.7
			c0.2,0.4,0.7,0.6,1.1,0.4l0.9-0.4c0.4-0.2,0.6-0.7,0.4-1.1l-0.3-0.7c0.4-0.3,0.8-0.7,1.1-1.2l0.7,0.3c0.2,0.1,0.4,0.1,0.7,0
			c0.2-0.1,0.4-0.3,0.4-0.5l0.3-0.9C38.9,50.5,38.6,50,38.2,49.9z M33.5,52.1c-0.4,0.2-0.9,0.3-1.4,0.3c-1.3,0-2.5-0.8-3.1-2
			c-0.8-1.7,0-3.7,1.7-4.5c0.4-0.2,0.9-0.3,1.4-0.3c1.3,0,2.5,0.8,3.1,2C35.9,49.3,35.2,51.3,33.5,52.1z M54.3,22.8L52.2,22
			c0.2-1.6,0.1-3.2-0.2-4.8l2.1-1c1.3-0.6,1.9-2.1,1.3-3.4l-1.2-2.6c-0.6-1.3-2.1-1.9-3.4-1.3l-2.1,1c-1-1.3-2.2-2.3-3.5-3.2
			l0.8-2.2c0.5-1.3-0.2-2.8-1.5-3.3l-2.7-1c-1.3-0.5-2.8,0.2-3.3,1.5l-0.8,2.2C36,3.7,34.4,3.7,32.8,4l-1-2.1
			c-0.6-1.3-2.1-1.9-3.4-1.3l-2.6,1.2c-1.3,0.6-1.9,2.1-1.3,3.4l1,2.1c-1.3,1-2.3,2.2-3.2,3.5l-2.1-0.8c-1.3-0.5-2.8,0.2-3.3,1.5
			l-1,2.7c-0.2,0.6-0.2,1.4,0.1,2c0.3,0.6,0.8,1.1,1.5,1.3l2.1,0.8c-0.2,1.6-0.1,3.2,0.2,4.8l-2.1,1c-1.3,0.6-1.9,2.1-1.3,3.4
			l1.2,2.6c0.6,1.3,2.1,1.9,3.4,1.3l2.1-1c1,1.3,2.2,2.3,3.5,3.2L25.7,36c-0.2,0.6-0.2,1.4,0.1,2c0.3,0.6,0.8,1.1,1.5,1.3l2.7,1
			c0.6,0.2,1.3,0.2,2-0.1c0.6-0.3,1.1-0.8,1.3-1.5l0.8-2.2c1.6,0.2,3.2,0.1,4.7-0.2l1,2.1c0.6,1.3,2.1,1.9,3.4,1.3l2.6-1.2
			c1.3-0.6,1.9-2.1,1.3-3.4l-1-2.1c1.3-1,2.3-2.2,3.2-3.5l2.1,0.8c0.6,0.2,1.3,0.2,2-0.1c0.6-0.3,1.1-0.8,1.3-1.5l1-2.7
			C56.3,24.7,55.6,23.2,54.3,22.8z M40.1,29.5c-1.4,0.6-2.8,0.9-4.3,0.9c-4,0-7.6-2.3-9.3-6c-2.4-5.1-0.1-11.2,5-13.6
			c1.4-0.6,2.8-0.9,4.3-0.9c4,0,7.6,2.3,9.3,6C47.4,21.1,45.2,27.2,40.1,29.5z"/>
	</g>
</g>
</svg>
