<?xml version="1.0" encoding="utf-8"?>
<!-- Generator: Adobe Illustrator 17.1.0, SVG Export Plug-In . SVG Version: 6.00 Build 0)  -->
<!DOCTYPE svg PUBLIC "-//W3C//DTD SVG 1.0//EN" "http://www.w3.org/TR/2001/REC-SVG-20010904/DTD/svg10.dtd">
<svg version="1.0" id="Shape_12_1_" xmlns="http://www.w3.org/2000/svg" xmlns:xlink="http://www.w3.org/1999/xlink" x="0px"
	 y="0px" viewBox="0 0 73 70" enable-background="new 0 0 73 70" xml:space="preserve">
<g id="Shape_12">
	<g>
		<path fill-rule="evenodd" clip-rule="evenodd" fill="#FF7977" d="M72.7,29.4L62.1,4.8c-0.8-1.8-2.9-2.7-4.8-1.9L32.7,13.5
			c-1.8,0.8-2.7,2.9-1.9,4.8l10.6,24.6c0.8,1.8,2.9,2.7,4.8,1.9l24.6-10.6C72.7,33.3,73.5,31.2,72.7,29.4z M64.5,45.8l-16,6.9
			c1.5,1.9,2.6,4.1,3,6.6l15.9-6.8c1.8-0.8,2.7-2.9,1.9-4.8C68.5,45.8,66.4,45,64.5,45.8z M15,2.2c-0.4-0.9-1.1-1.6-2-1.9
			c-0.9-0.4-1.9-0.3-2.8,0L2.7,3.6C0.8,4.4,0,6.5,0.8,8.3c0.8,1.8,2.9,2.7,4.8,1.9l4.2-1.8l18,41.7c1.9-1.5,4.2-2.5,6.6-2.9L15,2.2z
			 M36.8,54.3c-4.3,0-7.7,3.5-7.7,7.7c0,4.3,3.5,7.7,7.7,7.7c4.3,0,7.7-3.5,7.7-7.7C44.6,57.7,41.1,54.3,36.8,54.3z"/>
	</g>
</g>
</svg>
