<?xml version="1.0" encoding="iso-8859-1"?>
<!-- Generator: Adobe Illustrator 17.1.0, SVG Export Plug-In . SVG Version: 6.00 Build 0)  -->
<!DOCTYPE svg PUBLIC "-//W3C//DTD SVG 1.1//EN" "http://www.w3.org/Graphics/SVG/1.1/DTD/svg11.dtd">
<svg version="1.1" id="Layer_1" xmlns="http://www.w3.org/2000/svg" xmlns:xlink="http://www.w3.org/1999/xlink" x="0px" y="0px"
	 viewBox="0 0 67.67 83.609" style="enable-background:new 0 0 67.67 83.609;" xml:space="preserve">
<path style="fill:#FFFFFF;" d="M11.12,32.69l-1.374-2.716L11.12,32.69z"/>
<rect x="9.974" y="29.81" transform="matrix(-0.8924 0.4513 -0.4513 -0.8924 33.8845 54.5837)" style="fill:#ECA9CC;" width="0.92" height="3.044"/>
<path style="fill:#FFFFFF;" d="M21.125,32.732l-7.554-5.546L21.125,32.732z"/>
<rect x="16.198" y="25.274" transform="matrix(-0.5918 0.8061 -0.8061 -0.5918 51.765 33.7067)" style="fill:#2EC1D7;" width="2.3" height="9.371"/>
<path style="fill:#FFFFFF;" d="M19.844,26.13l-4.454,6.021L19.844,26.13z"/>
<rect x="13.873" y="28.68" transform="matrix(-0.5947 0.804 -0.804 -0.5947 51.5218 32.3064)" style="fill:#ECA9CC;" width="7.489" height="0.92"/>
<path style="fill:#FFFFFF;" d="M26.019,30.637l-1.197-3.883L26.019,30.637z"/>
<rect x="24.501" y="26.664" transform="matrix(-0.9557 0.2945 -0.2945 -0.9557 58.1633 48.6333)" style="fill:#DAB141;" width="1.84" height="4.063"/>
<path style="fill:#FFFFFF;" d="M12.081,14.189l-1.648,2.973L12.081,14.189z"/>
<rect x="9.558" y="14.986" transform="matrix(-0.4847 0.8747 -0.8747 -0.4847 30.4254 13.4278)" style="fill:#7C3A67;" width="3.4" height="1.38"/>
<path style="fill:#FFFFFF;" d="M19.251,15.143l1.874,2.475L19.251,15.143z"/>
<rect x="19.498" y="14.828" transform="matrix(-0.7972 0.6037 -0.6037 -0.7972 46.1715 17.2505)" style="fill:#7C3A67;" width="1.38" height="3.104"/>
<path style="fill:#FFFFFF;" d="M26.821,15.16l-1.605,3.089L26.821,15.16z"/>
<rect x="24.278" y="16.014" transform="matrix(-0.461 0.8874 -0.8874 -0.461 52.836 1.315)" style="fill:#EB9125;" width="3.481" height="1.38"/>
<path style="fill:#FFFFFF;" d="M34.82,13.159l1.839,2.06L34.82,13.159z"/>
<rect x="34.82" y="12.808" transform="matrix(-0.7458 0.6662 -0.6662 -0.7458 71.8472 0.9626)" style="fill:#41B14E;" width="1.84" height="2.762"/>
<path style="fill:#FFFFFF;" d="M34.509,30.225l-2.702,3.671L34.509,30.225z"/>
<rect x="30.878" y="30.91" transform="matrix(-0.5928 0.8053 -0.8053 -0.5928 78.6333 24.3642)" style="fill:#C12129;" width="4.558" height="2.3"/>
<path style="fill:#C12129;" d="M50.118,23.581L50.118,23.581c0-4.713-3.835-8.548-8.548-8.548c-4.714,0-8.548,3.835-8.548,8.548
	c0,4.714,3.835,8.548,8.548,8.548C46.284,32.13,50.118,28.295,50.118,23.581 M30.722,23.581c0-5.981,4.866-10.848,10.848-10.848
	c5.982,0,10.848,4.867,10.848,10.848c0,5.982-4.867,10.848-10.848,10.848C35.589,34.43,30.722,29.563,30.722,23.581z"/>
<path style="fill:#41B14E;" d="M35.141,9.36L35.141,9.36c0-3.043-2.476-5.52-5.52-5.52c-3.043,0-5.52,2.476-5.52,5.52
	c0,3.044,2.476,5.52,5.52,5.52C32.665,14.879,35.141,12.403,35.141,9.36 M22.262,9.36c0-4.058,3.302-7.36,7.36-7.36
	c4.058,0,7.36,3.301,7.36,7.36c0,4.058-3.302,7.36-7.36,7.36C25.564,16.72,22.262,13.418,22.262,9.36z"/>
<path style="fill:#EB9125;" d="M26.937,22.402L26.937,22.402c0-2.258-1.837-4.095-4.095-4.095s-4.094,1.837-4.094,4.095
	s1.837,4.094,4.094,4.094S26.937,24.66,26.937,22.402 M17.368,22.402c0-3.019,2.456-5.475,5.474-5.475
	c3.019,0,5.475,2.456,5.475,5.475c0,3.018-2.456,5.475-5.475,5.475C19.823,27.877,17.368,25.42,17.368,22.402z"/>
<path style="fill:#ECA9CC;" d="M16.012,34.441L16.012,34.441c0-1.381-1.123-2.504-2.504-2.504c-1.38,0-2.504,1.123-2.504,2.504
	c0,1.38,1.123,2.504,2.504,2.504C14.889,36.944,16.012,35.821,16.012,34.441 M10.085,34.441c0-1.888,1.536-3.424,3.424-3.424
	c1.888,0,3.424,1.536,3.424,3.424c0,1.888-1.536,3.424-3.424,3.424C11.62,37.864,10.085,36.328,10.085,34.441z"/>
<path style="fill:#DAB141;" d="M31.866,37.405L31.866,37.405c0-3.224-2.623-5.848-5.847-5.848c-3.224,0-5.847,2.623-5.847,5.848
	c0,3.224,2.623,5.847,5.847,5.847C29.243,43.252,31.866,40.629,31.866,37.405 M18.331,37.405c0-4.239,3.448-7.688,7.687-7.688
	c4.239,0,7.687,3.449,7.687,7.688c0,4.239-3.448,7.687-7.687,7.687C21.78,45.092,18.331,41.643,18.331,37.405z"/>
<path style="fill:#7C3A67;" d="M20.435,11.243L20.435,11.243c0-2.378-1.935-4.313-4.312-4.313c-2.378,0-4.313,1.935-4.313,4.313
	s1.935,4.313,4.313,4.313C18.501,15.555,20.435,13.621,20.435,11.243 M10.43,11.243c0-3.139,2.553-5.693,5.693-5.693
	c3.139,0,5.692,2.553,5.692,5.693c0,3.139-2.553,5.692-5.692,5.692C12.984,16.935,10.43,14.382,10.43,11.243z"/>
<path style="fill:#2EC1D7;" d="M13.545,23.452L13.545,23.452c0-3.101-2.522-5.623-5.622-5.623c-3.1,0-5.623,2.522-5.623,5.623
	c0,3.1,2.522,5.622,5.623,5.622C11.023,29.075,13.545,26.552,13.545,23.452 M0,23.452c0-4.368,3.554-7.923,7.923-7.923
	c4.368,0,7.922,3.554,7.922,7.923c0,4.368-3.554,7.922-7.922,7.922C3.554,31.375,0,27.821,0,23.452z"/>
<polygon style="fill:#FFFFFF;" points="43.654,46.412 29.913,53.816 29.913,48.24 23.353,48.24 23.353,57.351 21.743,58.218 
	21.743,83.602 24.963,83.602 24.963,60.141 43.658,50.068 62.45,60.143 62.45,83.602 65.67,83.602 65.67,58.216 "/>
<rect x="39.403" y="70.257" style="fill:#FFFFFF;" width="8.606" height="13.352"/>
<rect x="23.864" y="57.963" style="fill-rule:evenodd;clip-rule:evenodd;fill:#FFFFFF;" width="39.425" height="3.256"/>
</svg>
