<?xml version="1.0" encoding="UTF-8"?>
<!DOCTYPE svg PUBLIC "-//W3C//DTD SVG 1.1//EN" "http://www.w3.org/Graphics/SVG/1.1/DTD/svg11.dtd">
<!-- Creator: CorelDRAW X7 -->
<svg xmlns="http://www.w3.org/2000/svg" xml:space="preserve" width="4.14648in" height="1.14131in" version="1.1" style="shape-rendering:geometricPrecision; text-rendering:geometricPrecision; image-rendering:optimizeQuality; fill-rule:evenodd; clip-rule:evenodd"
viewBox="0 0 10387 2859"
 xmlns:xlink="http://www.w3.org/1999/xlink">
 <defs>
  <style type="text/css">
   <![CDATA[
    .fil1 {fill:#727272}
    .fil0 {fill:#727272;fill-rule:nonzero}
   ]]>
  </style>
 </defs>
 <g id="Layer_x0020_1">
  <metadata id="CorelCorpID_0Corel-Layer"/>
  <g id="_547706208">
   <g>
    <g>
     <path class="fil0" d="M3502 2824l0 -383 132 0 0 94c63,114 146,172 248,172 52,0 96,-16 132,-48 36,-32 54,-74 54,-125 0,-50 -15,-86 -44,-108 -30,-22 -85,-44 -166,-66 -95,-25 -165,-49 -210,-71 -46,-23 -82,-55 -109,-96 -27,-42 -40,-91 -40,-149 0,-88 29,-159 88,-211 59,-53 133,-79 221,-79 85,0 163,27 235,81l0 -70 129 0 0 320 -129 0 0 -74c-54,-81 -128,-122 -223,-122 -58,0 -102,13 -133,40 -31,26 -46,58 -46,95 0,28 8,53 23,75 16,21 36,37 60,47 25,10 72,24 144,42 92,25 160,47 202,68 42,21 78,56 108,105 30,49 46,105 46,169 0,90 -32,164 -96,223 -63,58 -141,88 -235,88 -96,0 -182,-35 -259,-104l0 87 -132 0z"/>
     <path class="fil0" d="M3893 2854c-89,0 -172,-29 -245,-88l0 72 -159 0 0 -410 159 0 0 103c61,109 137,162 234,162 49,0 89,-15 123,-44 33,-30 49,-67 49,-115 0,-46 -13,-78 -39,-97 -27,-21 -82,-42 -161,-63 -95,-26 -166,-50 -212,-73 -48,-23 -86,-57 -114,-101 -29,-44 -43,-96 -43,-156 0,-92 31,-166 93,-222 61,-54 138,-82 230,-82 79,0 153,23 222,69l0 -58 156 0 0 347 -156 0 0 -83c-52,-75 -121,-112 -210,-112 -54,0 -96,12 -124,36 -28,24 -41,52 -41,85 0,26 6,47 21,67 14,19 32,33 54,42 23,10 71,24 141,42 93,24 162,47 205,69 44,22 82,59 114,110 31,51 47,110 47,176 0,93 -33,172 -99,233 -66,61 -148,91 -245,91zm-273 -148l0 0 23 21c74,66 158,100 250,100 90,0 166,-28 226,-84 60,-56 91,-127 91,-213 0,-61 -15,-115 -44,-162 -28,-46 -63,-80 -102,-100 -41,-20 -108,-43 -200,-66 -72,-19 -120,-33 -145,-43 -26,-11 -49,-29 -66,-52 -17,-24 -26,-52 -26,-83 0,-41 17,-76 51,-105 33,-29 81,-44 142,-44 99,0 178,44 235,129l2 3 0 64 101 0 0 -292 -101 0 0 84 -22 -17c-69,-52 -146,-79 -227,-79 -85,0 -156,26 -212,76 -56,50 -84,118 -84,201 0,55 13,102 39,141 25,39 60,70 103,92 44,21 114,45 207,70 84,23 140,45 171,68 33,25 49,65 49,119 0,55 -19,101 -58,135 -38,34 -86,51 -141,51 -107,0 -194,-60 -260,-179l-2 -3 0 -83 -104 0 0 355 104 0 0 -104z"/>
    </g>
    <g>
     <polygon class="fil0" points="4442,2696 4442,1898 4310,1898 4310,1770 4586,1770 4586,2429 4860,2210 4738,2210 4738,2091 5143,2091 5143,2210 5031,2210 4756,2438 5015,2696 5143,2696 5143,2824 4955,2824 4586,2455 4586,2696 4712,2696 4712,2824 4310,2824 4310,2696 "/>
     <path class="fil0" d="M5157 2838l-208 0 -350 -350 0 194 127 0 0 156 -430 0 0 -156 132 0 0 -770 -132 0 0 -156 303 0 0 644 222 -177 -97 0 0 -146 433 0 0 146 -121 0 -259 216 243 243 137 0 0 156zm-197 -28l0 0 170 0 0 -100 -121 0 -273 -273 290 -241 104 0 0 -92 -378 0 0 92 147 0 -307 245 368 369zm-636 0l0 0 375 0 0 -100 -127 0 0 -926 -248 0 0 101 131 0 0 825 -131 0 0 100z"/>
    </g>
    <g>
     <path class="fil0" d="M5947 2494l-617 0c10,67 36,122 81,164 44,42 101,63 170,63 101,0 180,-40 239,-121l127 56c-41,64 -95,112 -161,143 -66,31 -136,46 -208,46 -112,0 -208,-35 -287,-105 -80,-70 -120,-164 -120,-283 0,-112 39,-205 117,-278 77,-72 166,-109 267,-109 98,0 187,36 268,107 80,71 121,176 124,317zm-148 -105l0 0c-10,-51 -37,-98 -81,-140 -43,-41 -96,-62 -159,-62 -58,0 -107,19 -148,56 -41,38 -66,87 -75,146l463 0z"/>
     <path class="fil0" d="M5578 2859c-115,0 -215,-36 -296,-108 -83,-73 -124,-171 -124,-294 0,-116 40,-213 120,-288 80,-75 173,-112 277,-112 101,0 194,36 277,109 82,74 126,184 129,327l0 14 -615 0c11,58 36,105 74,141 42,39 96,59 161,59 97,0 171,-38 228,-115l6 -9 152 67 -8 13c-43,66 -99,116 -167,148 -68,32 -140,48 -214,48zm-23 -775l0 0c-97,0 -183,35 -258,105 -74,70 -112,160 -112,268 0,114 39,206 115,273 76,67 170,102 278,102 70,0 138,-16 202,-46 59,-27 108,-69 147,-124l-103 -45c-60,78 -142,118 -243,118 -72,0 -133,-23 -180,-67 -46,-44 -75,-102 -84,-172l-2 -16 618 0c-5,-129 -46,-227 -120,-293 -77,-68 -164,-103 -258,-103zm260 319l0 0 -495 0 2 -16c10,-62 36,-114 79,-154 44,-40 97,-60 158,-60 66,0 123,22 169,66 45,44 73,93 84,148l3 16zm-463 -28l0 0 429 0c-11,-42 -36,-81 -72,-116 -41,-39 -91,-58 -150,-58 -54,0 -101,17 -139,52 -35,32 -57,73 -68,122z"/>
    </g>
    <g>
     <path class="fil0" d="M6052 2219l0 -128 95 0 0 -113 144 -132 0 245 136 0 0 128 -136 0 0 356c0,57 3,92 10,105 6,14 22,21 47,21 27,0 53,-5 79,-16l0 131c-37,14 -74,20 -111,20 -44,0 -79,-10 -107,-29 -27,-19 -44,-44 -51,-73 -7,-29 -11,-80 -11,-152l0 -363 -95 0z"/>
     <path class="fil0" d="M6316 2850c-47,0 -85,-11 -115,-32 -30,-21 -49,-48 -57,-81 -7,-31 -11,-81 -11,-155l0 -350 -95 0 0 -155 95 0 0 -105 172 -157 0 262 135 0 0 155 -135 0 0 343c0,72 5,93 8,100 5,10 22,12 35,12 25,0 50,-5 74,-14l18 -8 0 161 -9 3c-38,14 -77,21 -115,21zm-251 -645l0 0 96 0 0 377c0,71 3,121 10,149 6,26 22,47 46,65 25,18 58,26 99,26 32,0 65,-5 97,-15l0 -102c-21,6 -43,9 -65,9 -31,0 -51,-9 -60,-28 -4,-9 -11,-32 -11,-111l0 -370 136 0 0 -101 -136 0 0 -227 -116 107 0 120 -96 0 0 101z"/>
    </g>
    <g>
     <path class="fil0" d="M7223 2091l0 277 -129 0c-6,-53 -28,-94 -65,-122 -36,-28 -79,-42 -127,-42 -65,0 -117,22 -158,68 -40,46 -60,106 -60,180 0,69 19,130 57,183 39,53 94,79 167,79 101,0 174,-48 220,-144l118 56c-65,146 -180,219 -344,219 -116,0 -208,-39 -275,-119 -66,-79 -100,-170 -100,-274 0,-111 37,-202 110,-274 72,-72 156,-108 251,-108 81,0 150,24 206,72l0 -51 129 0z"/>
     <path class="fil0" d="M6902 2859c-120,0 -216,-42 -285,-124 -68,-81 -103,-177 -103,-283 0,-114 38,-209 113,-284 75,-74 163,-111 261,-111 74,0 138,19 192,57l0 -37 157 0 0 305 -155 0 -1 -12c-7,-50 -26,-87 -60,-113 -34,-26 -74,-40 -119,-40 -61,0 -110,21 -148,64 -38,43 -57,101 -57,171 0,66 19,125 55,175 36,49 87,73 156,73 96,0 164,-44 207,-136l6 -12 143 68 -5 12c-68,151 -188,227 -357,227zm-14 -775l0 0c-91,0 -172,35 -242,104 -69,69 -105,158 -105,264 0,100 33,189 97,265 64,76 152,115 264,115 155,0 262,-65 326,-199l-94 -45c-48,93 -124,140 -226,140 -77,0 -137,-29 -178,-85 -40,-55 -60,-119 -60,-191 0,-77 21,-141 64,-189 43,-49 99,-73 168,-73 51,0 97,15 136,45 36,28 59,68 68,119l103 0 0 -250 -101 0 0 68 -23 -19c-53,-46 -119,-69 -197,-69z"/>
    </g>
    <g>
     <path class="fil0" d="M7446 2696l0 -798 -133 0 0 -128 277 0 0 405c86,-70 168,-105 246,-105 48,0 88,10 120,31 31,20 52,46 64,79 11,34 17,82 17,146l0 370 125 0 0 128 -269 0 0 -448c0,-56 -2,-93 -6,-112 -3,-19 -13,-34 -29,-46 -16,-12 -34,-18 -56,-18 -56,0 -126,31 -212,94l0 402 127 0 0 128 -404 0 0 -128 133 0z"/>
     <path class="fil0" d="M8175 2838l-296 0 0 -462c0,-55 -2,-91 -5,-109 -3,-16 -11,-28 -24,-38 -14,-10 -29,-16 -48,-16 -51,0 -118,30 -199,88l0 381 128 0 0 156 -432 0 0 -156 133 0 0 -770 -133 0 0 -156 304 0 0 391c81,-60 159,-90 233,-90 51,0 94,10 127,32 34,22 57,51 70,87 12,35 17,84 17,150l0 356 125 0 0 156zm-269 -28l0 0 242 0 0 -100 -125 0 0 -384c0,-62 -6,-110 -16,-141 -11,-30 -30,-54 -59,-73 -29,-19 -67,-28 -112,-28 -74,0 -154,34 -238,101l-22 18 0 -419 -249 0 0 101 132 0 0 825 -132 0 0 100 376 0 0 -100 -127 0 0 -422 6 -5c89,-65 161,-97 220,-97 24,0 46,7 65,21 18,14 30,33 34,55 4,19 5,57 5,114l0 434z"/>
    </g>
    <g>
     <path class="fil0" d="M9003 2494l-617 0c9,67 36,122 80,164 45,42 101,63 171,63 100,0 180,-40 238,-121l128 56c-42,64 -96,112 -162,143 -66,31 -135,46 -207,46 -112,0 -208,-35 -288,-105 -79,-70 -119,-164 -119,-283 0,-112 39,-205 116,-278 78,-72 167,-109 267,-109 99,0 188,36 268,107 80,71 122,176 125,317zm-149 -105l0 0c-10,-51 -37,-98 -80,-140 -44,-41 -97,-62 -160,-62 -58,0 -107,19 -148,56 -41,38 -66,87 -75,146l463 0z"/>
     <path class="fil0" d="M8634 2859c-115,0 -215,-36 -297,-108 -82,-73 -124,-171 -124,-294 0,-116 41,-213 121,-288 80,-75 173,-112 276,-112 102,0 195,36 277,109 83,74 126,184 129,327l1 14 -615 0c10,58 35,105 74,141 41,39 95,59 161,59 96,0 171,-38 227,-115l7 -9 152 67 -9 13c-43,66 -99,116 -167,148 -68,32 -139,48 -213,48zm-24 -775l0 0c-96,0 -183,35 -258,105 -74,70 -111,160 -111,268 0,114 38,206 114,273 77,67 170,102 279,102 70,0 137,-16 201,-46 59,-27 109,-69 147,-124l-102 -45c-61,78 -142,118 -243,118 -73,0 -133,-23 -180,-67 -47,-44 -75,-102 -85,-172l-2 -16 618 0c-5,-129 -45,-227 -119,-293 -77,-68 -164,-103 -259,-103zm261 319l0 0 -496 0 3 -16c9,-62 36,-114 79,-154 43,-40 96,-60 157,-60 66,0 123,22 169,66 46,44 74,93 85,148l3 16zm-463 -28l0 0 429 0c-12,-42 -36,-81 -73,-116 -41,-39 -90,-58 -150,-58 -54,0 -100,17 -139,52 -34,32 -57,73 -67,122z"/>
    </g>
    <g>
     <path class="fil0" d="M9242 2696l0 -477 -148 0 0 -128 263 0 0 165c16,-43 39,-79 68,-107 28,-28 59,-47 91,-56 32,-9 76,-14 131,-14l38 0 0 146 -29 0c-73,0 -127,7 -164,22 -36,14 -62,41 -80,80 -17,38 -26,108 -26,208l0 161 160 0 0 128 -452 0 0 -128 148 0z"/>
     <path class="fil0" d="M9560 2838l-479 0 0 -156 147 0 0 -450 -147 0 0 -155 290 0 0 119c13,-22 27,-40 44,-57 30,-30 63,-50 97,-59 33,-10 79,-14 135,-14l52 0 0 172 -43 0c-71,0 -124,8 -158,21 -33,14 -57,38 -73,73 -17,37 -25,105 -25,203l0 147 160 0 0 156zm-452 -28l0 0 424 0 0 -100 -160 0 0 -175c0,-103 9,-173 28,-214 18,-42 48,-71 87,-87 38,-15 94,-23 169,-23l16 0 0 -118 -25 0c-54,0 -97,4 -127,13 -30,9 -59,26 -86,53 -27,27 -49,61 -64,102l-27 70 0 -227 -235 0 0 101 148 0 0 505 -148 0 0 100z"/>
    </g>
    <g>
     <path class="fil0" d="M9771 2824l0 -251 129 0 0 24c4,34 23,62 55,85 33,22 71,33 116,33 46,0 83,-8 111,-24 28,-16 42,-39 42,-68 0,-28 -12,-48 -35,-61 -23,-13 -68,-25 -136,-36 -101,-17 -173,-45 -217,-83 -43,-38 -64,-88 -64,-148 0,-62 23,-113 70,-154 47,-41 109,-62 186,-62 69,0 128,15 178,43l0 -31 129 0 0 243 -129 0 0 -45c-38,-60 -95,-90 -169,-90 -38,0 -69,8 -94,25 -24,16 -37,38 -37,65 0,28 12,47 34,57 23,11 71,22 145,33 71,11 125,24 162,39 36,15 66,40 90,74 24,35 36,75 36,121 0,69 -26,123 -78,163 -53,40 -120,60 -204,60 -78,0 -142,-18 -191,-53l0 41 -129 0z"/>
     <path class="fil0" d="M10091 2850c-70,0 -129,-14 -178,-42l0 30 -156 0 0 -279 156 0 0 37c5,30 21,54 50,74 30,21 66,31 108,31 44,0 79,-7 104,-22 24,-14 35,-32 35,-56 0,-23 -9,-38 -27,-49 -22,-12 -66,-24 -133,-35 -103,-17 -178,-46 -223,-86 -46,-41 -69,-94 -69,-158 0,-65 25,-120 75,-164 49,-43 115,-65 195,-65 62,0 117,11 165,33l0 -22 155 0 0 271 -155 0 0 -55c-37,-54 -88,-80 -156,-80 -35,0 -64,7 -86,22 -21,14 -31,32 -31,54 0,23 8,37 26,45 21,10 69,20 141,32 72,11 128,24 165,40 39,15 71,42 96,79 26,36 39,80 39,128 0,73 -28,131 -84,174 -54,42 -126,63 -212,63zm-205 -94l0 0 22 16c47,33 108,50 183,50 80,0 146,-19 195,-57 50,-38 73,-87 73,-152 0,-43 -11,-81 -33,-113 -22,-32 -51,-55 -85,-69 -35,-15 -88,-27 -158,-38 -76,-12 -125,-23 -149,-34 -27,-13 -41,-37 -41,-70 0,-32 14,-58 43,-77 26,-18 60,-27 101,-27 79,0 140,33 181,97l2 3 0 35 101 0 0 -216 -101 0 0 42 -20 -12c-48,-27 -106,-41 -172,-41 -73,0 -133,20 -177,58 -44,39 -66,86 -66,144 0,57 20,102 60,138 41,36 112,63 210,79 70,12 117,24 141,38 27,15 42,41 42,73 0,34 -17,61 -49,80 -30,17 -69,26 -118,26 -47,0 -89,-12 -123,-36 -36,-24 -57,-56 -62,-94l0 -2 0 -11 -101 0 0 224 101 0 0 -54z"/>
    </g>
    <polygon class="fil0" points="10064,1678 10064,1704 9975,1704 9974,1947 9946,1947 9946,1704 9857,1704 9857,1678 "/>
    <polygon class="fil0" points="10141,1678 10227,1908 10314,1678 10351,1678 10351,1947 10322,1947 10323,1727 10241,1947 10215,1947 10133,1726 10133,1947 10104,1947 10104,1678 "/>
   </g>
   <g>
    <g>
     <polygon class="fil0" points="387,1068 339,973 "/>
     <polygon class="fil0" points="325,980 353,966 401,1061 373,1075 "/>
    </g>
    <g>
     <polygon class="fil0" points="735,1069 472,876 "/>
     <polygon class="fil0" points="448,909 496,844 759,1037 711,1101 "/>
    </g>
    <g>
     <polygon class="fil0" points="690,840 535,1049 "/>
     <polygon class="fil0" points="523,1039 678,830 703,849 548,1059 "/>
    </g>
    <g>
     <polygon class="fil0" points="905,996 864,861 "/>
     <polygon class="fil0" points="833,871 894,852 936,987 875,1006 "/>
    </g>
    <g>
     <polygon class="fil0" points="420,424 363,528 "/>
     <polygon class="fil0" points="342,516 399,412 441,436 384,539 "/>
    </g>
    <g>
     <polygon class="fil0" points="670,457 735,543 "/>
     <polygon class="fil0" points="651,472 689,443 754,529 716,558 "/>
    </g>
    <g>
     <polygon class="fil0" points="933,458 877,565 "/>
     <polygon class="fil0" points="856,554 912,447 954,469 899,576 "/>
    </g>
    <g>
     <polygon class="fil0" points="1211,388 1275,460 "/>
     <polygon class="fil0" points="1188,410 1235,367 1299,439 1252,481 "/>
    </g>
    <g>
     <polygon class="fil0" points="1201,982 1107,1110 "/>
     <polygon class="fil0" points="1074,1086 1168,958 1233,1006 1139,1133 "/>
    </g>
    <g>
     <path class="fil0" d="M1069 751c0,-208 169,-378 377,-378 208,0 378,170 378,378 0,208 -170,377 -378,377 -208,0 -377,-169 -377,-377zm675 0l0 0c0,-164 -134,-298 -298,-298 -164,0 -297,134 -297,298 0,164 133,297 297,297 164,0 298,-133 298,-297z"/>
    </g>
    <g>
     <path class="fil0" d="M775 256c0,-141 114,-256 256,-256 141,0 256,115 256,256 0,141 -115,256 -256,256 -142,0 -256,-115 -256,-256zm448 0l0 0c0,-106 -87,-192 -192,-192 -106,0 -192,86 -192,192 0,106 86,192 192,192 105,0 192,-86 192,-192z"/>
    </g>
    <g>
     <path class="fil0" d="M604 710c0,-105 86,-191 191,-191 105,0 190,86 190,191 0,105 -85,190 -190,190 -105,0 -191,-85 -191,-190zm333 0l0 0c0,-79 -64,-143 -142,-143 -79,0 -143,64 -143,143 0,78 64,142 143,142 78,0 142,-64 142,-142z"/>
    </g>
    <g>
     <path class="fil0" d="M351 1129c0,-66 53,-119 119,-119 66,0 119,53 119,119 0,65 -53,119 -119,119 -66,0 -119,-54 -119,-119zm206 0l0 0c0,-48 -39,-87 -87,-87 -48,0 -87,39 -87,87 0,48 39,87 87,87 48,0 87,-39 87,-87z"/>
    </g>
    <g>
     <path class="fil0" d="M638 1232c0,-148 120,-268 267,-268 148,0 268,120 268,268 0,147 -120,267 -268,267 -147,0 -267,-120 -267,-267zm471 0l0 0c0,-112 -92,-204 -204,-204 -112,0 -203,92 -203,204 0,112 91,203 203,203 112,0 204,-91 204,-203z"/>
    </g>
    <g>
     <path class="fil0" d="M363 322c0,-110 89,-198 198,-198 109,0 198,88 198,198 0,109 -89,198 -198,198 -109,0 -198,-89 -198,-198zm348 0l0 0c0,-83 -67,-150 -150,-150 -83,0 -150,67 -150,150 0,82 67,150 150,150 83,0 150,-68 150,-150z"/>
    </g>
    <g>
     <path class="fil0" d="M0 746c0,-152 124,-275 276,-275 152,0 275,123 275,275 0,152 -123,276 -275,276 -152,0 -276,-124 -276,-276zm471 0l0 0c0,-108 -88,-195 -195,-195 -108,0 -196,87 -196,195 0,108 88,196 196,196 107,0 195,-88 195,-196z"/>
    </g>
   </g>
   <path class="fil0" d="M2617 1947l-1 893 -131 -1 1 -892 131 0zm0 -357l0 0 0 154 -131 0 0 -154 131 0z"/>
   <path class="fil0" d="M2832 1948l131 0 -5 136c55,-102 132,-152 230,-152 9,0 20,1 30,2 11,2 21,5 31,9l0 134c-29,-9 -51,-14 -65,-14 -35,0 -66,6 -93,19 -28,14 -51,31 -70,53 -20,22 -34,48 -44,77 -9,28 -14,58 -14,89l0 539 -131 0 0 -892z"/>
   <polygon class="fil0" points="1519,1545 1041,1803 1041,1609 812,1609 812,1926 756,1956 756,2839 868,2839 868,2023 1519,1672 2173,2023 2173,2839 2285,2839 2285,1956 "/>
   <polygon class="fil0" points="1371,2839 1670,2839 1670,2375 1371,2375 "/>
   <rect class="fil1" x="830" y="1947" width="1372" height="113"/>
  </g>
 </g>
</svg>
