<?xml version="1.0" encoding="iso-8859-1"?>
<!-- Generator: Adobe Illustrator 17.1.0, SVG Export Plug-In . SVG Version: 6.00 Build 0)  -->
<!DOCTYPE svg PUBLIC "-//W3C//DTD SVG 1.1//EN" "http://www.w3.org/Graphics/SVG/1.1/DTD/svg11.dtd">
<svg version="1.1" id="airbnb_logo_1_" xmlns="http://www.w3.org/2000/svg" xmlns:xlink="http://www.w3.org/1999/xlink" x="0px"
	 y="0px" viewBox="0 0 133 152" style="enable-background:new 0 0 133 152;" xml:space="preserve">
<g id="airbnb_logo">
	<g>
		<path style="fill-rule:evenodd;clip-rule:evenodd;fill:#FF7977;" d="M113.332,80.879c-0.032-2.928-0.711-5.82-1.767-8.536
			c-0.816-2.103-1.762-4.15-2.687-6.206c-7.356-16.206-15.08-32.238-23.157-48.09c-1.136-2.214-2.248-4.443-3.448-6.623
			c-1.179-2.126-2.552-4.174-4.329-5.839c-2.835-2.732-6.64-4.361-10.545-4.606h-1.798c-4.02,0.2-7.944,1.904-10.828,4.747
			c-1.712,1.638-3.036,3.637-4.184,5.704c-1.184,2.145-2.28,4.338-3.395,6.518C41.772,28.58,36.513,39.3,31.412,50.094
			c-3.039,6.46-6.054,12.931-8.953,19.456c-1.203,2.717-2.29,5.528-2.699,8.495c-0.758,5.01,0.329,10.269,2.977,14.57
			c2.282,3.736,5.708,6.748,9.702,8.487c3.104,1.356,6.533,1.974,9.909,1.773c4.534-0.244,8.906-1.889,12.742-4.293
			c4.279-2.653,7.94-6.185,11.347-9.88c3.169,3.451,6.561,6.745,10.475,9.327c3.781,2.514,8.092,4.334,12.626,4.768
			c4.925,0.52,10.027-0.715,14.16-3.485c3.636-2.421,6.506-5.991,8.115-10.078C112.859,86.585,113.382,83.727,113.332,80.879z
			 M66.459,78.946c-1.237-1.471-2.325-3.061-3.42-4.642c-1.841-2.728-3.514-5.581-4.861-8.594c-1.103-2.501-1.989-5.126-2.335-7.852
			c-0.252-2.164-0.192-4.42,0.594-6.474c0.703-1.926,2.054-3.594,3.765-4.696c4.079-2.659,9.893-2.373,13.588,0.853
			c1.87,1.611,2.988,3.992,3.269,6.439c0.367,3.254-0.364,6.52-1.488,9.554C73.45,69.165,70.091,74.211,66.459,78.946z
			 M106.476,85.846c-1.09,3.802-3.71,7.123-7.137,9.04c-3.038,1.718-6.664,2.306-10.089,1.727
			c-4.363-0.685-8.276-3.025-11.668-5.787c-2.492-2.025-4.736-4.337-6.887-6.722c3.395-4.339,6.593-8.879,9.036-13.842
			c2.132-4.346,3.752-9.055,3.906-13.942c0.086-3.101-0.491-6.259-1.924-9.019c-1.877-3.688-5.238-6.522-9.092-7.893
			c-3.6-1.3-7.601-1.415-11.274-0.357c-3.463,0.991-6.626,3.093-8.794,6.01c-1.907,2.543-2.995,5.668-3.247,8.838
			c-0.388,4.566,0.744,9.121,2.457,13.317c2.546,6.134,6.283,11.684,10.41,16.835c-1.856,2.175-3.886,4.197-6.042,6.067
			c-3.35,2.866-7.184,5.361-11.527,6.31c-3.511,0.797-7.3,0.401-10.52-1.246c-3.772-1.901-6.668-5.478-7.76-9.591
			c-0.835-3.022-0.65-6.283,0.343-9.242c0.826-2.449,1.947-4.783,2.995-7.138c7.274-16.032,14.917-31.893,22.897-47.578
			c1.191-2.334,2.363-4.679,3.623-6.975c1.029-1.85,2.225-3.667,3.916-4.965c1.809-1.43,4.111-2.211,6.408-2.159
			c2.382-0.028,4.749,0.859,6.571,2.405c1.799,1.511,3.015,3.576,4.106,5.636c2.468,4.685,4.837,9.423,7.208,14.157
			c6.764,13.538,13.27,27.203,19.501,40.999c0.942,2.143,1.95,4.269,2.584,6.53C107.255,80.051,107.281,83.063,106.476,85.846z
			 M31.148,115.509c-0.53,0.12-1.048,0.329-1.495,0.645c-1.517,1.022-2.2,3.108-1.561,4.837c0.673,2.051,3.087,3.308,5.119,2.584
			c2.08-0.604,3.387-3.036,2.73-5.129C35.412,116.402,33.186,115.044,31.148,115.509z M49.648,126.551
			c-1.782,0.268-3.51,1.114-4.737,2.462c-0.01-0.459,0.033-0.931-0.102-1.374c-0.137-0.371-0.537-0.565-0.913-0.544
			c-1.708-0.01-3.415,0.005-5.122-0.004c-0.012,8.086-0.004,16.172-0.005,24.256c2.027-0.007,4.056,0.031,6.081-0.017
			c0.089-0.191,0.041-0.421,0.059-0.624c-0.016-5.302,0.003-10.607-0.008-15.909c0.014-0.185-0.023-0.4,0.131-0.532
			c0.705-0.759,1.595-1.345,2.564-1.703c1.793-0.668,3.77-0.568,5.597-0.091c0.003-1.899-0.008-3.794,0.006-5.692
			C52.039,126.511,50.831,126.435,49.648,126.551z M104.267,132.682c-0.414-1.545-1.331-2.934-2.576-3.918
			c-1.883-1.598-4.38-2.327-6.818-2.264c-2.306,0.004-4.656,0.84-6.278,2.535c-0.011-0.44,0.018-0.888-0.078-1.318
			c-0.105-0.418-0.55-0.648-0.957-0.622c-1.573-0.005-3.149,0.006-4.724-0.005c-0.022,8.087-0.008,16.175-0.007,24.263
			c2.035,0.001,4.068-0.004,6.103,0.003c0.133-2.249-0.069-4.506,0.047-6.758c-0.017-1.702-0.024-3.403,0.006-5.105
			c0.029-0.903-0.095-1.803-0.015-2.704c0.057-0.662-0.043-1.327-0.023-1.989c-0.017-0.237,0.116-0.437,0.271-0.592
			c1.46-1.562,3.674-2.414,5.792-2.071c1.113,0.117,2.266,0.624,2.849,1.641c0.837,1.416,0.762,3.132,0.762,4.722
			c-0.002,4.282,0,8.562-0.002,12.841c2.043,0.023,4.086,0.006,6.129,0.01c-0.001-4.284,0-8.567-0.001-12.85
			C104.754,136.557,104.803,134.572,104.267,132.682z M28.911,127.091c-0.017,8.087-0.005,16.175-0.004,24.262
			c2.031-0.003,4.061,0,6.091,0c-0.002-8.086,0.01-16.173-0.006-24.261C32.965,127.094,30.939,127.096,28.911,127.091z
			 M20.309,127.085c-0.425-0.003-0.967,0.019-1.175,0.47c-0.186,0.464-0.115,0.979-0.132,1.467c-1.337-1.44-3.222-2.293-5.155-2.479
			c-2.986-0.27-6.079,0.566-8.476,2.398c-1.975,1.474-3.434,3.607-4.199,5.954c-0.368,1.101-0.552,2.257-0.67,3.41v1.661
			c0.171,3.476,1.701,6.914,4.37,9.155c2.013,1.724,4.599,2.687,7.22,2.854h1.366c2.077-0.142,4.128-1.01,5.546-2.575
			c0.013,0.491-0.055,1.011,0.126,1.48c0.19,0.381,0.636,0.485,1.024,0.47c1.658-0.005,3.318,0.002,4.978-0.007
			c0-8.081,0.005-16.166-0.002-24.25C23.523,127.091,21.917,127.099,20.309,127.085z M18.814,143.795
			c-1.24,1.501-3.178,2.388-5.113,2.327c-2.074,0.016-4.227-0.789-5.57-2.432c-1.311-1.57-1.707-3.753-1.409-5.747
			c0.223-1.615,1.037-3.163,2.324-4.165c1.167-0.931,2.638-1.411,4.111-1.514c2.194-0.194,4.507,0.784,5.827,2.574
			c0.074,2.636,0.002,5.278,0.035,7.919C18.996,143.104,19.091,143.522,18.814,143.795z M74.582,128.345
			c-2.187-1.375-4.81-1.997-7.374-1.82c-2.025,0.134-4.003,1.007-5.409,2.5c-0.008-4.531,0-9.058-0.004-13.59
			c-2.044,0.002-4.09-0.01-6.134,0.006c0.01,11.966-0.017,23.939,0.015,35.904c1.693,0.004,3.387,0.009,5.081,0.004
			c0.421,0.034,0.874-0.199,0.99-0.631c0.084-0.437,0.053-0.889,0.055-1.333c1.421,1.596,3.508,2.463,5.607,2.591h1.252
			c3.398-0.172,6.73-1.782,8.863-4.479c2.987-3.703,3.57-9.083,1.803-13.464C78.382,131.699,76.706,129.67,74.582,128.345z
			 M72.178,144.242c-1.37,1.285-3.265,1.901-5.115,1.882c-1.931,0.045-3.861-0.851-5.084-2.362c-0.151-0.158-0.201-0.37-0.188-0.579
			c0.002-2.776,0.004-5.552,0-8.327c1.174-1.547,3.054-2.512,4.976-2.611c1.95-0.057,3.995,0.52,5.425,1.91
			c1.362,1.278,2.028,3.195,1.985,5.051C74.216,141.06,73.533,142.963,72.178,144.242z M129.764,131.031
			c-2.599-3.346-7.044-5.035-11.189-4.409c-1.731,0.275-3.371,1.115-4.581,2.402c-0.013-4.528,0-9.057-0.006-13.587
			c-2.041-0.002-4.08-0.003-6.12,0.002c-0.002,11.967,0,23.938,0,35.906c1.609,0.014,3.221-0.002,4.83,0.014
			c0.422,0.006,0.951-0.029,1.167-0.464c0.188-0.472,0.118-0.998,0.131-1.493c1.41,1.561,3.452,2.423,5.517,2.576h1.378
			c3.361-0.185,6.646-1.771,8.775-4.428c1.738-2.12,2.676-4.834,2.831-7.568v-1.622
			C132.305,135.721,131.423,133.101,129.764,131.031z M124.987,143.545c-1.618,2.106-4.474,2.888-7.006,2.48
			c-1.542-0.312-3.038-1.153-3.951-2.467c-0.102-1.019-0.01-2.049-0.04-3.073c0.022-1.883-0.046-3.773,0.031-5.651
			c0.928-1.292,2.413-2.122,3.941-2.465c2.828-0.528,6.117,0.605,7.546,3.244C126.809,138.056,126.68,141.32,124.987,143.545z"/>
	</g>
</g>
</svg>
