<?xml version="1.0" encoding="iso-8859-1"?>
<!-- Generator: Adobe Illustrator 17.1.0, SVG Export Plug-In . SVG Version: 6.00 Build 0)  -->
<!DOCTYPE svg PUBLIC "-//W3C//DTD SVG 1.1//EN" "http://www.w3.org/Graphics/SVG/1.1/DTD/svg11.dtd">
<svg version="1.1" id="apartment_icon_1_" xmlns="http://www.w3.org/2000/svg" xmlns:xlink="http://www.w3.org/1999/xlink" x="0px"
	 y="0px" viewBox="0 0 122 193" style="enable-background:new 0 0 122 193;" xml:space="preserve">
<g id="apartment_icon">
	<g>
		<path style="fill-rule:evenodd;clip-rule:evenodd;fill:#FF7775;" d="M86.564,0.362l-0.147,10.108l25.411,0.039l-0.009,55.75
			h-10.155v10.134h9.851l0.328,35.48h-45.72l-0.003-35.48h10.138l-0.012-10.134H45.751l0.002,10.134h9.829l0.348,35.48h-45.76
			l0.035-35.48h10.142l-0.01-10.134H10.332l-0.164-55.752l30.705-0.04c7.903,0.074,24.005,15.765,32.49,19.177l5.549-7.962
			c-0.217-0.193-0.412-0.539-0.474-0.421l-14.433-9.794C59.143,8.233,53.758,4.172,48.808,1.32
			C45.521-0.573,6.865-0.053,0.122,0.485L0.003,121.892l121.831,0.119l0.163-121.526L86.564,0.362z M94.698,150.927H94.4v-0.296
			h-0.298v-0.296h-0.298v-0.297h-0.298v-0.296h-0.596v-0.296H38.723v-0.296h0.298v-0.297h0.298v-0.296h0.298v-0.296h0.298v-0.297
			h0.298v-0.296h0.298v-0.296h0.298v-0.296h0.298v-0.297h0.298v-0.296H41.7v-0.296h0.298v-0.296h0.298v-0.297h0.298v-0.296h0.298
			v-0.296h0.298v-0.297h0.298v-0.296h0.298v-0.296h0.298v-0.296h0.298v-0.297h0.298v-0.296h0.298v-0.296h0.298v-0.297h0.298v-0.297
			h0.298v-0.592h0.298v-0.297h0.298v-0.592h0.298v-1.778h-0.298v-0.592h-0.298v-0.592h-0.298v-0.296h-0.595v-0.297h-0.298v-0.296
			h-2.382v0.296h-0.595v0.297H41.7v0.296h-0.298v0.296h-0.298v0.296h-0.298v0.297h-0.298v0.296h-0.298v0.297h-0.298v0.296h-0.298
			v0.296h-0.298v0.297H39.02v0.296h-0.298v0.296h-0.298v0.297h-0.298v0.296h-0.298v0.297h-0.298v0.296h-0.298v0.296h-0.298v0.297
			h-0.298v0.297h-0.298v0.296h-0.298v0.296h-0.298v0.297h-0.298v0.296H35.15v0.296h-0.298v0.296h-0.298v0.297h-0.298v0.296h-0.298
			v0.296h-0.298v0.297h-0.298v0.296h-0.298v0.296h-0.298v0.296H32.47v0.297h-0.298v0.296h-0.298v0.296h-0.298v0.296h-0.298v0.297
			h-0.298v0.296h-0.298v0.296h-0.298v0.297h-0.298v0.296h-0.298v0.296h-0.298v0.296h-0.298v0.297h-0.298v0.296H28.6v0.296h-0.298
			v0.889h-0.298v1.481h0.298v0.593H28.6v0.593h0.298v0.296h0.298v0.296h0.298v0.296h0.298v0.297h0.298v0.296h0.298v0.296h0.298
			v0.296h0.298v0.297h0.298v0.296h0.298v0.296h0.298v0.297h0.298v0.296h0.298v0.296h0.298v0.296h0.298v0.297h0.298v0.296h0.298
			v0.296h0.298v0.296h0.298v0.297h0.298v0.296h0.298v0.296h0.298V161h0.298v0.296h0.298v0.296h0.298v0.296h0.298v0.297h0.298v0.296
			h0.298v0.296h0.298v0.297h0.298v0.296h0.298v0.296h0.298v0.296h0.298v0.297h0.298v0.296h0.298v0.296h0.298v0.296h0.298v0.297
			h0.298v0.296h0.298v0.296h0.298v0.297h0.298v0.296h0.298v0.297h0.298v0.296H41.7v0.296h0.595v0.297h0.595v0.296h1.489v-0.296
			h0.596v-0.297h0.595v-0.296h0.298v-0.296h0.298v-0.297h0.298v-0.888h0.298v-1.481h-0.298v-0.889h-0.298v-0.296h-0.298v-0.297
			h-0.298v-0.296h-0.298v-0.296h-0.298v-0.297h-0.298v-0.296H44.38v-0.296h-0.298V161h-0.298v-0.297h-0.298v-0.296h-0.298v-0.296
			h-0.298v-0.297h-0.298v-0.296h-0.298v-0.296h-0.298v-0.296H41.7v-0.297h-0.298v-0.296h-0.298v-0.296h-0.298v-0.296h-0.298v-0.297
			h-0.298v-0.296h-0.298v-0.296h-0.298v-0.297h-0.298v-0.296H39.02v-0.296h-0.298v-0.296h-0.298v-0.297h54.784v-0.296h0.595v-0.296
			h0.298v-0.296H94.4v-0.593h0.298v-0.593h0.298v-1.481h-0.298V150.927z M94.698,176.109H94.4v-0.593h-0.298v-0.296h-0.298v-0.296
			h-0.298v-0.297h-0.298v-0.296h-0.298v-0.296h-0.298v-0.296h-0.298v-0.297h-0.298v-0.296h-0.298v-0.296h-0.298v-0.296h-0.298
			v-0.297h-0.298v-0.296h-0.298v-0.296h-0.298v-0.297h-0.298v-0.296h-0.298v-0.296h-0.298v-0.296h-0.298v-0.297h-0.298v-0.296
			h-0.298v-0.296h-0.298v-0.296H87.85v-0.297h-0.298v-0.296h-0.298v-0.297h-0.298v-0.296h-0.298v-0.296h-0.298v-0.297h-0.298v-0.296
			h-0.298v-0.296h-0.298v-0.297H85.17v-0.296h-0.298v-0.297h-0.298v-0.296h-0.298v-0.296h-0.298v-0.297h-0.298v-0.296h-0.298v-0.296
			h-0.298v-0.296h-0.298v-0.297H82.49v-0.296h-0.298v-0.296h-0.298v-0.296h-0.298v-0.297H81.3v-0.296h-0.595v-0.296h-0.595v-0.297
			H78.62v0.297h-0.595v0.296h-0.595v0.296h-0.298v0.297h-0.298v0.296h-0.298v0.889h-0.298v1.481h0.298v0.888h0.298v0.297h0.298
			v0.296h0.298v0.296h0.298v0.297h0.298v0.296h0.298v0.296h0.298v0.297h0.298v0.296h0.298v0.297h0.298v0.296h0.298v0.296h0.298
			v0.296h0.298v0.297h0.298v0.296h0.298v0.296H81.3v0.296h0.298v0.297h0.298v0.296h0.298v0.296h0.298v0.297h0.298v0.296h0.298v0.296
			h0.298v0.296h0.298v0.297h0.298v0.296h0.298v0.296h0.298v0.296H29.791v0.297h-0.596v0.296h-0.298v0.296H28.6v0.593h-0.298v0.592
			h-0.298v1.482h0.298v0.889H28.6v0.296h0.298v0.296h0.298v0.296h0.298v0.297h0.595v0.296h54.189v0.296h-0.298v0.297h-0.298v0.296
			h-0.298v0.296h-0.298v0.296h-0.298v0.297H82.49v0.296h-0.298v0.296h-0.298v0.296h-0.298v0.297H81.3v0.296h-0.298v0.296h-0.298
			v0.297h-0.298v0.296h-0.298v0.296h-0.298v0.296h-0.298v0.297h-0.298v0.296h-0.298v0.296H78.62v0.296h-0.298v0.297h-0.298v0.296
			h-0.298v0.296h-0.298v0.297h-0.298v0.592h-0.298v0.296h-0.298v0.593h-0.298v1.778h0.298v0.592h0.298v0.593h0.298v0.296h0.595
			v0.296h0.298v0.297h2.382V192.7h0.595v-0.296H81.3v-0.296h0.298v-0.297h0.298v-0.296h0.298v-0.296h0.298v-0.296h0.298v-0.297
			h0.298v-0.296h0.298v-0.296h0.298v-0.297h0.298v-0.296h0.298v-0.296h0.298v-0.296h0.298v-0.297h0.298v-0.296h0.298v-0.296h0.298
			v-0.296h0.298v-0.297h0.298v-0.296h0.298v-0.296h0.298v-0.297h0.298v-0.296h0.298v-0.296h0.298v-0.296h0.298v-0.297h0.298v-0.296
			h0.298v-0.296h0.298v-0.296h0.298v-0.297h0.298v-0.296h0.298v-0.296h0.298v-0.297h0.298v-0.296h0.298v-0.296h0.298v-0.296h0.298
			v-0.297h0.298v-0.296h0.298v-0.296h0.298v-0.296h0.298v-0.297h0.298v-0.296h0.298v-0.296h0.298v-0.297h0.298v-0.296h0.298v-0.296
			H94.4v-0.296h0.298v-0.889h0.298v-1.482h-0.298V176.109z"/>
	</g>
</g>
</svg>
