<?xml version="1.0" encoding="iso-8859-1"?>
<!-- Generator: Adobe Illustrator 17.1.0, SVG Export Plug-In . SVG Version: 6.00 Build 0)  -->
<!DOCTYPE svg PUBLIC "-//W3C//DTD SVG 1.1//EN" "http://www.w3.org/Graphics/SVG/1.1/DTD/svg11.dtd">
<svg version="1.1" id="Spritn_Icon_1_" xmlns="http://www.w3.org/2000/svg" xmlns:xlink="http://www.w3.org/1999/xlink" x="0px"
	 y="0px" viewBox="0 0 78 57" style="enable-background:new 0 0 78 57;" xml:space="preserve">
<g id="Spritn_Icon">
	<g>
		<path style="fill-rule:evenodd;clip-rule:evenodd;fill:#3EB24F;" d="M70.948,35.486c-1.759-1.666-3.291-3.369-5-5.131
			c-1.328-1.368-9.72-9.76-10.879-9.76c-3.605,0-5.502,3.871-8.953,7.394L31.137,43.803c-1.333,1.71-2.189,2.557-3.697,4.099
			c-1.165,1.192-3.177,2.539-3.177,4.633c0,2.114,0.906,3.55,3.08,3.55c1.912,0,2.878-1.559,3.947-2.661
			c1.245-1.284,2.216-2.271,3.465-3.55l13.109-14.178c1.097-1.344,5.616-5.996,6.818-6.82c0.633,0.433,8.887,8.528,9.241,9.069
			c-3.08,0-6.162,0.008-9.242,0c-4.163-0.011-6.545-0.384-6.545,3.549c0,2.035,1.603,3.155,3.466,3.155h20.408
			c1.903,0,3.466-1.6,3.466-3.549C75.477,38.444,72.459,36.917,70.948,35.486z M70.075,21.396c-2.136-0.225-6.289-6.04-7.691-7.898
			c-0.739-0.98-1.562-1.995-2.425-3.038c-5.861-7.084-4.257-6.155-15.828,1.696c-1.062,0.72-4.349,2.962-4.871,3.707
			c-1.455,2.072,0.173,5.127,1.945,5.127c5.082,0,8.02-5.816,12.707-7.098c0.514,0.386,2.599,2.909,3.081,3.549l2.983,3.648
			c7.413,7.97,2.67,6.999,13.959,6.999c2.174,0,3.08-1.435,3.08-3.549C77.017,20.749,73.494,21.756,70.075,21.396z M3.085,28.088
			H35.43c4.139,0,4.304-6.703-0.385-6.703H3.47c-1.862,0-3.466,1.12-3.466,3.154C0.005,26.653,0.911,28.088,3.085,28.088z
			 M3.085,37.946h26.569c2.942,0,4.002-6.703-0.77-6.703H3.47c-1.862,0-3.466,1.12-3.466,3.155
			C0.005,36.511,0.911,37.946,3.085,37.946z M22.338,41.101H3.47c-1.862,0-3.466,1.12-3.466,3.154c0,2.114,0.906,3.55,3.081,3.55
			h19.638C26.919,47.805,26.743,41.101,22.338,41.101z M68.546,13.497c9.273,0,9.104-13.406,0.385-13.406
			c-3.53,0-6.546,3.147-6.546,6.703C62.385,10.334,65.977,13.497,68.546,13.497z"/>
	</g>
</g>
</svg>
