<?xml version="1.0" encoding="iso-8859-1"?>
<!-- Generator: Adobe Illustrator 17.1.0, SVG Export Plug-In . SVG Version: 6.00 Build 0)  -->
<!DOCTYPE svg PUBLIC "-//W3C//DTD SVG 1.1//EN" "http://www.w3.org/Graphics/SVG/1.1/DTD/svg11.dtd">
<svg version="1.1" id="circle_copy_7_1_" xmlns="http://www.w3.org/2000/svg" xmlns:xlink="http://www.w3.org/1999/xlink" x="0px"
	 y="0px" viewBox="0 0 44 44" style="enable-background:new 0 0 44 44;" xml:space="preserve">
<g id="circle_copy_7">
	<g>
		<path style="fill:#565A5C;" d="M30.594,18.586c-0.248-0.108-0.59-0.225-0.952-0.225H26.68c0-0.667-0.255-1.222-0.724-1.67
			c-0.264-0.253-0.534-0.423-0.882-0.55c-0.207-0.076-0.517-0.143-0.753-0.143h-3.642c-0.17,0-0.369,0.033-0.512,0.07
			c-0.31,0.08-0.535,0.185-0.799,0.357c-0.195,0.126-0.461,0.38-0.595,0.566c-0.254,0.353-0.453,0.797-0.453,1.264v0.106h-2.961
			c-0.422,0-0.986,0.191-1.312,0.426c-0.224,0.161-0.434,0.345-0.595,0.569c-0.131,0.18-0.115,0.162-0.215,0.354
			c-0.117,0.223-0.237,0.575-0.237,0.909v7.122c0,0.389,0.158,0.789,0.327,1.08c0.221,0.382,0.582,0.689,0.976,0.9
			c0.05,0.027,0.046,0.031,0.103,0.053c0.206,0.081,0.187,0.087,0.428,0.151c0.135,0.036,0.351,0.074,0.525,0.074h14.284
			c0.804,0,1.607-0.502,2.021-1.158c0.172-0.272,0.339-0.725,0.339-1.1v-7.122c0-0.584-0.304-1.162-0.725-1.564
			C31.069,18.855,30.872,18.709,30.594,18.586z M26.836,24.663c-0.017,0.151-0.047,0.304-0.083,0.451
			c-0.115,0.485-0.364,1.059-0.67,1.45c-0.141,0.18-0.13,0.18-0.293,0.356c-0.126,0.136-0.259,0.279-0.41,0.396
			c-0.282,0.217-0.225,0.188-0.552,0.396c-0.385,0.245-0.896,0.44-1.352,0.54c-0.175,0.038-0.526,0.098-0.706,0.097
			c-0.11-0.001-0.154,0.016-0.269,0.016c-0.155,0-0.352-0.017-0.504-0.033c-0.594-0.062-1.326-0.298-1.814-0.613l-0.544-0.388
			c-0.208-0.178-0.285-0.252-0.483-0.463l-0.238-0.303c-0.081-0.103-0.137-0.201-0.208-0.315c-0.289-0.466-0.472-1.032-0.543-1.572
			l-0.036-0.495c0-0.44,0.092-0.924,0.236-1.336c0.117-0.336,0.334-0.77,0.552-1.048c0.042-0.054,0.07-0.099,0.113-0.15
			c0.041-0.049,0.075-0.097,0.117-0.145c0.134-0.15,0.389-0.398,0.547-0.522c0.425-0.33,0.872-0.587,1.398-0.753
			c0.297-0.094,0.825-0.217,1.138-0.215c0.11,0.002,0.154-0.014,0.269-0.014c0.155,0,0.352,0.017,0.504,0.033
			c0.598,0.062,1.319,0.293,1.814,0.613c0.065,0.041,0.111,0.063,0.172,0.107c0.705,0.508,1.09,0.918,1.49,1.712
			C26.814,23.126,26.919,23.933,26.836,24.663z M23.561,22.043c-0.626-0.302-1.483-0.308-2.112-0.004
			c-0.384,0.185-0.722,0.431-0.967,0.771c-0.242,0.335-0.453,0.808-0.453,1.264c0,0.432,0.037,0.742,0.232,1.112
			c0.073,0.139,0.127,0.232,0.214,0.355c0.131,0.186,0.399,0.443,0.592,0.57c0.367,0.242,0.836,0.433,1.321,0.433
			c0.454,0,0.773-0.035,1.161-0.223c0.306-0.147,0.438-0.224,0.695-0.47c0.106-0.101,0.184-0.179,0.272-0.3
			c0.088-0.123,0.145-0.221,0.215-0.355c0.316-0.599,0.322-1.42,0.005-2.02C24.459,22.646,24.115,22.312,23.561,22.043z M22,0
			C9.869,0,0,9.869,0,22s9.869,22,22,22s22-9.869,22-22S34.131,0,22,0z M22,43.24C10.84,43.24,0.76,33.16,0.76,22
			S10.84,0.76,22,0.76S43.24,10.84,43.24,22S33.16,43.24,22,43.24z"/>
	</g>
</g>
</svg>
