<?xml version="1.0" encoding="utf-8"?>
<!-- Generator: Adobe Illustrator 17.1.0, SVG Export Plug-In . SVG Version: 6.00 Build 0)  -->
<!DOCTYPE svg PUBLIC "-//W3C//DTD SVG 1.1//EN" "http://www.w3.org/Graphics/SVG/1.1/DTD/svg11.dtd">
<svg version="1.1" xmlns="http://www.w3.org/2000/svg" xmlns:xlink="http://www.w3.org/1999/xlink" x="0px" y="0px"
	 viewBox="0 0 132 132" enable-background="new 0 0 132 132" xml:space="preserve">
<g id="BIG_1_" enable-background="new    ">
	<g id="BIG">
		<g>
			<path fill="#33CC00" d="M66,12c29.8,0,54,24.2,54,54c0,29.8-24.2,54-54,54S12,95.8,12,66C12,36.2,36.2,12,66,12 M66,0
				C29.6,0,0,29.5,0,66c0,36.4,29.5,66,66,66c36.4,0,66-29.5,66-66C132,29.5,102.5,0,66,0L66,0z"/>
		</g>
	</g>
</g>
<g id="Shape_2_1_" enable-background="new    ">
	<g id="Shape_2">
		<g>
			<path fill-rule="evenodd" clip-rule="evenodd" fill="#33CC00" d="M92,103.6c-0.4-0.1-0.1-0.1-0.4,0.1c0.1,0.1,0.1,0.2,0.1,0.3H92
				c0.1,0,0.2-0.1,0.3-0.2C92.2,103.8,92.4,103.7,92,103.6z M92.1,47.1L75,63.5c-3,3.2-5.8,5.4-9.1,8.6c-5.7,5.2-6,2.8-10.2-1.4
				c-3-3-6.1-5.7-9.1-8.7c-4.3-4.4-5.1-5.4-10.7,0.1c-3.8,3.7-7.4,5.9-2.6,10.6c3.2,3.1,5.7,5.8,9,9c21.7,20.8,14.9,20.5,37.8-0.7
				l18.4-17.4c2.7-2.7,8.7-6.4,5.2-10.7C102.1,50.9,96.2,43.2,92.1,47.1z M107.2,104h0.8v-0.7C107.4,103.6,107.6,103.6,107.2,104z"
				/>
		</g>
	</g>
</g>
</svg>
