<?xml version="1.0" encoding="iso-8859-1"?>
<!-- Generator: Adobe Illustrator 17.1.0, SVG Export Plug-In . SVG Version: 6.00 Build 0)  -->
<!DOCTYPE svg PUBLIC "-//W3C//DTD SVG 1.1//EN" "http://www.w3.org/Graphics/SVG/1.1/DTD/svg11.dtd">
<svg version="1.1" id="cloud_1_" xmlns="http://www.w3.org/2000/svg" xmlns:xlink="http://www.w3.org/1999/xlink" x="0px" y="0px"
	 viewBox="0 0 159 111" style="enable-background:new 0 0 159 111;" xml:space="preserve">
<g id="cloud">
	<g>
		<path style="fill-rule:evenodd;clip-rule:evenodd;fill:#FF7775;" d="M80.008,51.242L55.419,78.866h15.534v32.131h18.135V78.866
			h15.534L80.008,51.242z M158.505,64.174c-0.875-4.318-2.79-14.035-15.203-20.865c-0.733-0.399-1.56-0.751-2.388-1.103
			c-0.567-0.235-1.111-0.446-1.655-0.704l-0.496-0.235v-0.563c-0.024-5.539-0.662-10.163-1.962-14.27
			c-1.3-4.084-3.263-7.628-5.935-11.054c-0.922-1.197-1.892-2.323-2.932-3.38c-7.022-7.205-16.172-11.172-25.464-11.876
			C93.154-0.604,83.72,1.955,76.107,7.775c-1.064,0.821-2.081,1.713-3.074,2.652c-1.206,1.173-3.145,3.145-4.776,5.234
			c-1.111,1.408-2.057,2.84-2.554,4.084l-0.189,0.493l-0.544,0.047c-1.159,0.094-2.27,0-3.476-0.117
			c-2.199-0.211-4.823-0.446-8.843,0.516c-1.655,0.399-3.31,0.962-4.871,1.619c-1.584,0.704-3.074,1.502-4.303,2.347
			c-1.419,0.939-2.648,1.901-3.759,2.91c-1.135,1.009-2.152,2.112-3.121,3.356c-2.222,2.84-3.097,4.835-3.759,6.337
			c-0.378,0.892-0.686,1.619-1.159,2.3l-0.26,0.352l-0.426,0.023l-0.946,0.023c-4.8,0.164-6.928,0.235-11.372,1.901
			c-4.729,1.76-8.89,4.835-12.058,8.707c-3.192,3.873-5.391,8.52-6.171,13.448l-0.024,0.094L-0.001,65.7v6.196
			c0.213,0.516,0.378,1.267,0.591,2.23c0.686,3.309,1.986,9.411,7.897,15.232c8.819,8.684,17.118,8.613,27.639,8.543
			c1.253,0,2.506-0.023,3.05-0.023h15.841v-8.121H42.013v0.023c-1.844,0-3.168,0-4.398,0.023
			c-10.474,0.117-17.118,0.188-23.762-6.853c-3.168-3.356-5.178-8.074-5.509-12.979c-0.307-4.483,0.804-9.13,3.783-13.026
			c7.093-9.294,13.926-8.895,21.255-8.473c1.348,0.07,2.695,0.141,4.019,0.164c0.402-0.728,0.757-1.854,1.088-2.887
			c0.166-0.516,0.307-0.986,0.426-1.338c0.993-2.699,1.868-4.905,3.121-6.9c1.253-1.995,2.908-3.755,5.367-5.562
			c1.419-1.009,3.074-1.901,4.894-2.535c1.702-0.61,3.57-1.033,5.556-1.174c2.837-0.211,5.438,0.305,7.968,0.798
			c1.229,0.235,2.435,0.469,3.641,0.61c1.324-3.028,3.263-6.22,5.58-9.106c2.293-2.863,4.965-5.445,7.779-7.276
			c3.57-2.347,7.377-3.826,11.207-4.553c6.1-1.127,12.271-0.352,17.78,1.995c5.509,2.347,10.332,6.243,13.713,11.336
			c2.152,3.239,3.712,6.971,4.492,11.101c0.638,3.286,0.473,6.032,0.331,8.801c-0.095,1.69-0.189,3.38-0.118,5.187
			c1.04,0.493,2.293,0.915,3.665,1.361c5.225,1.713,11.869,3.919,15.51,13.378c1.726,4.506,1.679,9.271,0.236,13.542
			c-1.49,4.389-4.469,8.285-8.559,10.961c-2.128,1.385-4.161,2.23-6.431,2.746c-2.246,0.493-4.681,0.657-7.661,0.634h-22.627v8.121
			h15.203c0.567,0,1.821,0.023,3.074,0.023c10.592,0.07,18.962,0.141,27.734-8.426c6.053-5.891,7.377-12.134,8.062-15.42
			c0.189-0.939,0.355-1.666,0.567-2.159v-5.703C158.812,65.723,158.67,65.042,158.505,64.174z"/>
	</g>
</g>
</svg>
