<?xml version="1.0" encoding="iso-8859-1"?>
<!-- Generator: Adobe Illustrator 17.1.0, SVG Export Plug-In . SVG Version: 6.00 Build 0)  -->
<!DOCTYPE svg PUBLIC "-//W3C//DTD SVG 1.1//EN" "http://www.w3.org/Graphics/SVG/1.1/DTD/svg11.dtd">
<svg version="1.1" id="email_field_1_" xmlns="http://www.w3.org/2000/svg" xmlns:xlink="http://www.w3.org/1999/xlink" x="0px"
	 y="0px" viewBox="0 0 240 32" style="enable-background:new 0 0 240 32;" xml:space="preserve">
<g id="email_field">
	<g>
		<path style="fill-rule:evenodd;clip-rule:evenodd;fill:#FFFFFF;" d="M4,31.499c-1.93,0-3.5-1.569-3.5-3.499V4
			c0-1.93,1.57-3.5,3.5-3.5h232c1.93,0,3.5,1.57,3.5,3.5v24c0,1.93-1.57,3.499-3.5,3.499H4z"/>
	</g>
	<g>
		<path style="fill:#DEDEDE;" d="M236,1c1.654,0,3,1.346,3,3v24c0,1.654-1.346,3-3,3H4c-1.654,0-3-1.346-3-3v-24
			c0-1.654,1.346-3,3-3H236 M236,0H4c-2.209,0-4,1.791-4,4v24c0,2.209,1.791,4,4,4h232c2.209,0,4-1.791,4-4v-24
			C240,1.79,238.209,0,236,0L236,0z"/>
	</g>
</g>
</svg>
