<?xml version="1.0" encoding="iso-8859-1"?>
<!-- Generator: Adobe Illustrator 17.1.0, SVG Export Plug-In . SVG Version: 6.00 Build 0)  -->
<!DOCTYPE svg PUBLIC "-//W3C//DTD SVG 1.1//EN" "http://www.w3.org/Graphics/SVG/1.1/DTD/svg11.dtd">
<svg version="1.1" id="F_1_" xmlns="http://www.w3.org/2000/svg" xmlns:xlink="http://www.w3.org/1999/xlink" x="0px" y="0px"
	 viewBox="0 0 44 44" style="enable-background:new 0 0 44 44;" xml:space="preserve">
<g id="F">
	<g>
		<path style="fill:#565A5C;" d="M22,0C9.869,0,0,9.869,0,22s9.869,22,22,22s22-9.869,22-22S34.131,0,22,0z M22,43.24
			C10.84,43.24,0.76,33.16,0.76,22S10.84,0.76,22,0.76S43.24,10.84,43.24,22S33.16,43.24,22,43.24z M22.631,20.23
			c0-0.617-0.047-2.673,0.053-3.114c0.225-0.995,1.253-0.778,2.233-0.778c0.245,0,0.492-0.002,0.738,0.001
			c0.346,0.003,0.274,0.106,0.27-0.907c-0.001-0.171,0.024-0.217,0.026-0.372c0.003-0.25-0.018-0.557,0-0.799
			c0.019-0.244,0.023-0.494,0.023-0.775c0.001-0.449,0.052-0.368-0.37-0.399c-1.54-0.113-3.143-0.271-4.499,0.61
			c-0.418,0.271-0.774,0.612-1.066,1.029c-0.439,0.627-0.751,1.588-0.751,2.464v3.012h-2.286v3.438h2.286v9.355h3.343v-9.355h3.22
			l0.042-0.834c0.018-0.145-0.003-0.297,0.008-0.444l0.071-1.282c0.011-0.148-0.01-0.3,0.008-0.445
			c0.017-0.131,0.018-0.263,0.018-0.433h-3.294C22.61,20.204,22.695,20.195,22.631,20.23z"/>
	</g>
</g>
</svg>
