<?xml version="1.0" encoding="iso-8859-1"?>
<!-- Generator: Adobe Illustrator 17.1.0, SVG Export Plug-In . SVG Version: 6.00 Build 0)  -->
<!DOCTYPE svg PUBLIC "-//W3C//DTD SVG 1.1//EN" "http://www.w3.org/Graphics/SVG/1.1/DTD/svg11.dtd">
<svg version="1.1" id="circle_copy_2_1_" xmlns="http://www.w3.org/2000/svg" xmlns:xlink="http://www.w3.org/1999/xlink" x="0px"
	 y="0px" viewBox="0 0 44 44" style="enable-background:new 0 0 44 44;" xml:space="preserve">
<g id="circle_copy_2">
	<g>
		<path style="fill:#565A5C;" d="M21.857,13.926c0.206-0.156,1.165-0.799,1.253-0.918c-1.342,0-2.684,0-4.026,0
			c-2.347,0-3.944-0.19-5.812,1.185l-0.563,0.465c-0.677,0.666-1.332,1.71-1.332,2.687c0,0.934,0.067,1.532,0.498,2.339
			c0.552,1.036,1.525,1.793,2.651,2.145c0.715,0.224,1.253,0.23,2.182,0.23c-0.359,0.667-0.439,1.463-0.023,2.135
			c0.071,0.115,0.167,0.263,0.246,0.362c0.102,0.126,0.223,0.2,0.313,0.333c-1.856,0-3.271,0.057-4.834,0.978
			c-0.846,0.499-1.747,1.279-2.123,2.212c-0.547,1.356-0.331,2.44,0.81,3.383c0.127,0.106,0.199,0.171,0.341,0.268
			c1.326,0.905,3.234,1.267,5.116,1.267c2.177,0,4.272-0.785,5.384-2.361c0.588-0.833,0.674-1.441,0.674-2.429
			c0-0.336-0.058-0.752-0.132-1.039c-0.038-0.149-0.087-0.319-0.131-0.437c-0.199-0.536-0.547-1.012-0.934-1.419
			c-0.107-0.112-0.205-0.16-0.327-0.282l-0.668-0.513c-0.109-0.079-0.222-0.156-0.327-0.244c-1.477-1.234-1.9-2.01-0.324-3.275
			c0.854-0.687,1.431-1.177,1.833-2.384c0.296-0.892,0.118-2.049-0.189-2.805c-0.15-0.37-0.375-0.778-0.631-1.039
			c-0.646-0.658-0.751-0.557-0.969-0.744l1.612,0.002C21.694,14.03,21.692,14.051,21.857,13.926z M20.438,27.29
			c0.546,0.666,0.525,1.017,0.525,1.822c0,0.885-0.586,1.745-1.339,2.191c-1.145,0.676-3.498,0.925-4.906,0.407
			c-0.442-0.164-0.794-0.352-1.167-0.625c-0.605-0.442-1.254-1.294-1.254-2.312c0-1.11,0.64-1.864,1.488-2.422
			c0.73-0.48,1.793-0.859,2.999-0.859c0.485,0,1.218,0.098,1.569,0.23C18.599,25.814,20.114,26.895,20.438,27.29z M19.506,18.176
			c0,0.95-0.112,1.654-0.641,2.349c-0.838,1.102-2.091,1.123-3.24,0.412c-1.114-0.69-2.025-2.42-2.025-3.892
			c0-0.87,0.149-1.571,0.591-2.173c0.85-1.156,2.226-1.16,3.351-0.423C18.909,15.219,19.945,16.853,19.506,18.176z M29.936,13.008
			h-1.035v3.998h-4.026v1.019h4.026v3.997h1.035v-3.997h4.065v-1.019h-4.065V13.008z M22,0C9.869,0,0,9.869,0,22s9.869,22,22,22
			s22-9.869,22-22S34.131,0,22,0z M22,43.24C10.84,43.24,0.76,33.16,0.76,22S10.84,0.76,22,0.76S43.24,10.84,43.24,22
			S33.16,43.24,22,43.24z"/>
	</g>
</g>
</svg>
