<?xml version="1.0" encoding="utf-8"?>
<!-- Generator: Adobe Illustrator 17.1.0, SVG Export Plug-In . SVG Version: 6.00 Build 0)  -->
<!DOCTYPE svg PUBLIC "-//W3C//DTD SVG 1.0//EN" "http://www.w3.org/TR/2001/REC-SVG-20010904/DTD/svg10.dtd">
<svg version="1.0" id="Layer_1" xmlns="http://www.w3.org/2000/svg" xmlns:xlink="http://www.w3.org/1999/xlink" x="0px" y="0px"
	 viewBox="0 0 92 107.5" enable-background="new 0 0 92 107.5" xml:space="preserve">
<g id="Layer_x0020_1">
	<g id="_599932992">
		<g>
			<g>
				<path fill="#FEFEFE" d="M14.6,40.2l-1.8-3.6L14.6,40.2z"/>
				<polygon fill="#ECABCC" points="12.2,36.9 13.3,36.3 15.1,39.9 14,40.4 				"/>
			</g>
			<g>
				<path fill="#FEFEFE" d="M27.6,40.2L17.8,33L27.6,40.2z"/>
				<polygon fill="#3BC2D8" points="16.9,34.2 18.7,31.8 28.5,39 26.8,41.4 				"/>
			</g>
			<g>
				<path fill="#FEFEFE" d="M26,31.6l-5.8,7.9L26,31.6z"/>
				<polygon fill="#ECABCC" points="19.7,39.1 25.5,31.2 26.5,31.9 20.6,39.8 				"/>
			</g>
			<g>
				<path fill="#FEFEFE" d="M34.1,37.5l-1.6-5.1L34.1,37.5z"/>
				<polygon fill="#DBB24C" points="31.3,32.8 33.6,32 35.2,37.1 32.9,37.8 				"/>
			</g>
			<g>
				<path fill="#FEFEFE" d="M15.8,16l-2.2,3.9L15.8,16z"/>
				<polygon fill="#81476E" points="12.9,19.4 15,15.5 16.6,16.4 14.4,20.3 				"/>
			</g>
			<g>
				<path fill="#FEFEFE" d="M25.2,17.2l2.4,3.2L25.2,17.2z"/>
				<polygon fill="#81476E" points="24.5,17.7 25.9,16.7 28.4,19.9 26.9,21 				"/>
			</g>
			<g>
				<path fill="#FEFEFE" d="M35.1,17.2l-2.1,4L35.1,17.2z"/>
				<polygon fill="#EB9437" points="32.2,20.9 34.3,16.8 35.9,17.6 33.8,21.7 				"/>
			</g>
			<g>
				<path fill="#FEFEFE" d="M45.6,14.6l2.4,2.7L45.6,14.6z"/>
				<polygon fill="#4BB356" points="44.7,15.4 46.5,13.8 48.9,16.5 47.1,18.1 				"/>
			</g>
			<g>
				<path fill="#FEFEFE" d="M45.2,36.9l-3.5,4.8L45.2,36.9z"/>
				<polygon fill="#C2353A" points="40.4,40.9 44,36 46.4,37.8 42.8,42.6 				"/>
			</g>
			<g>
				<path fill="#C2353A" d="M40.2,28.2c0-7.8,6.4-14.2,14.2-14.2c7.8,0,14.2,6.4,14.2,14.2s-6.4,14.2-14.2,14.2
					C46.6,42.4,40.2,36.1,40.2,28.2z M65.6,28.2L65.6,28.2c0-6.2-5-11.2-11.2-11.2c-6.2,0-11.2,5-11.2,11.2s5,11.2,11.2,11.2
					C60.6,39.4,65.6,34.4,65.6,28.2z"/>
			</g>
			<g>
				<path fill="#4BB356" d="M29.1,9.6c0-5.3,4.3-9.6,9.6-9.6c5.3,0,9.6,4.3,9.6,9.6c0,5.3-4.3,9.6-9.6,9.6
					C33.5,19.3,29.1,14.9,29.1,9.6z M46,9.6L46,9.6c0-4-3.2-7.2-7.2-7.2c-4,0-7.2,3.2-7.2,7.2c0,4,3.2,7.2,7.2,7.2
					C42.8,16.9,46,13.6,46,9.6z"/>
			</g>
			<g>
				<path fill="#EB9437" d="M22.7,26.7c0-3.9,3.2-7.2,7.2-7.2s7.2,3.2,7.2,7.2c0,4-3.2,7.2-7.2,7.2S22.7,30.7,22.7,26.7z M35.3,26.7
					L35.3,26.7c0-3-2.4-5.4-5.4-5.4s-5.4,2.4-5.4,5.4c0,3,2.4,5.4,5.4,5.4S35.3,29.7,35.3,26.7z"/>
			</g>
			<g>
				<path fill="#ECABCC" d="M13.2,42.5c0-2.5,2-4.5,4.5-4.5s4.5,2,4.5,4.5s-2,4.5-4.5,4.5S13.2,44.9,13.2,42.5z M21,42.5L21,42.5
					c0-1.8-1.5-3.3-3.3-3.3s-3.3,1.5-3.3,3.3s1.5,3.3,3.3,3.3S21,44.3,21,42.5z"/>
			</g>
			<g>
				<path fill="#DBB24C" d="M24,46.3c0-5.6,4.5-10.1,10.1-10.1c5.5,0,10.1,4.5,10.1,10.1c0,5.5-4.5,10.1-10.1,10.1
					C28.5,56.4,24,51.9,24,46.3z M41.7,46.3L41.7,46.3c0-4.2-3.4-7.7-7.7-7.7c-4.2,0-7.7,3.4-7.7,7.7c0,4.2,3.4,7.6,7.7,7.6
					C38.3,54,41.7,50.6,41.7,46.3z"/>
			</g>
			<g>
				<path fill="#81476E" d="M13.6,12.1c0-4.1,3.3-7.4,7.5-7.4s7.4,3.3,7.4,7.4s-3.3,7.5-7.4,7.5S13.6,16.2,13.6,12.1z M26.7,12.1
					L26.7,12.1c0-3.1-2.5-5.6-5.6-5.6s-5.6,2.5-5.6,5.6c0,3.1,2.5,5.6,5.6,5.6S26.7,15.2,26.7,12.1z"/>
			</g>
			<g>
				<path fill="#3BC2D8" d="M0,28.1c0-5.7,4.6-10.4,10.4-10.4c5.7,0,10.4,4.7,10.4,10.4s-4.6,10.4-10.4,10.4C4.6,38.4,0,33.8,0,28.1
					z M17.7,28.1L17.7,28.1c0-4.1-3.3-7.4-7.3-7.4C6.3,20.7,3,24,3,28.1s3.3,7.4,7.4,7.4C14.4,35.4,17.7,32.1,17.7,28.1z"/>
			</g>
		</g>
		<polygon fill="#727272" points="57.1,58.1 39.1,67.8 39.1,60.5 30.6,60.5 30.6,72.4 28.5,73.6 28.5,106.8 32.7,106.8 32.7,76.1 
			57.1,62.9 81.7,76.1 81.7,106.8 85.9,106.8 85.9,73.6 		"/>
		<polygon fill="#727272" points="51.6,106.8 62.8,106.8 62.8,89.3 51.6,89.3 		"/>
		<rect x="31.2" y="73.2" fill="#727272" width="51.6" height="4.3"/>
	</g>
</g>
</svg>
