<?xml version="1.0" encoding="iso-8859-1"?>
<!-- Generator: Adobe Illustrator 17.1.0, SVG Export Plug-In . SVG Version: 6.00 Build 0)  -->
<!DOCTYPE svg PUBLIC "-//W3C//DTD SVG 1.1//EN" "http://www.w3.org/Graphics/SVG/1.1/DTD/svg11.dtd">
<svg version="1.1" id="Clock_Icon_1_" xmlns="http://www.w3.org/2000/svg" xmlns:xlink="http://www.w3.org/1999/xlink" x="0px"
	 y="0px" viewBox="0 0 63 76" style="enable-background:new 0 0 63 76;" xml:space="preserve">
<g id="Clock_Icon">
	<g>
		<path style="fill-rule:evenodd;clip-rule:evenodd;fill:#2EC1D7;" d="M42.484,43.961c-2.71-0.726-5.524-1.514-8.223-2.145
			c0.005-3.443-0.004-6.887,0-10.329c0.003-1.906-0.374-2.884-1.49-3.662c-1.24-0.864-2.779-0.837-3.997,0.024
			c-1.143,0.81-1.426,1.902-1.425,3.724v10.379c0,1.704-0.251,3.37,0.656,4.578c0.863,1.149,1.687,1.249,3.451,1.705
			c1.356,0.351,2.728,0.714,4.104,1.061c1.355,0.341,2.743,0.693,4.108,1.044c1.726,0.444,2.783,0.773,4.173-0.234
			c0.842-0.609,1.719-2.018,1.325-3.586C44.831,45.188,43.847,44.325,42.484,43.961z M57.764,26.724
			c-0.197-0.302-0.521-0.684-0.651-0.994c0.315-0.447,1.231-1.263,1.682-1.712c0.522-0.519,1.089-1.065,1.481-1.925
			c0.92-2.021,0.2-3.942-0.919-5.153c-1.037-1.123-3.021-1.927-5.086-1.182c-1.082,0.392-3.098,2.315-3.723,3.169
			c-0.308-0.113-1.165-0.737-1.484-0.973c-1.128-0.834-3.631-2.111-4.929-2.674c-2.283-0.991-5.088-1.895-7.793-2.275
			c-0.001-0.705-0.092-2.93,0.054-3.456c1.916,0,3.519-0.15,4.719-1.673c1.005-1.276,1.513-3.063,0.685-4.921
			c-0.592-1.33-1.865-2.535-3.714-2.754c-1.016-0.121-11.75-0.121-12.82-0.009c-4.872,0.513-5.727,7.158-1.284,9.008
			c0.937,0.391,1.805,0.349,2.898,0.349c0.146,0.529,0.055,2.75,0.054,3.457c-4.857,0.492-10.001,3.002-13.769,5.647
			c-1.722,1.209-2.121,1.736-3.51,2.955c-0.328,0.288-0.485,0.48-0.778,0.795c-0.243,0.262-0.585,0.574-0.806,0.853
			c-0.226,0.286-0.496,0.587-0.72,0.854c-3.284,3.891-5.764,9.172-6.658,14.384C-1.718,52.548,5.517,65.983,17.982,72.05
			c9.572,4.657,21.565,4.191,30.669-1.886c2.646-1.765,4.492-3.327,6.526-5.621c1.153-1.3,2.202-2.708,3.147-4.188
			C64.922,50.024,64.374,36.865,57.764,26.724z M32.687,66.294C19.993,66.96,9.71,57.026,9.157,45.095
			c-0.208-4.495,1.091-9.711,3.555-13.198l1.791-2.403c0.819-1.045,2.488-2.544,3.617-3.372c3.725-2.731,7.445-4.103,12.401-4.427
			c3.193-0.209,6.747,0.491,9.423,1.596c3.75,1.55,7.276,4.248,9.489,7.288c0.787,1.081,1.478,2.112,2.146,3.446
			c1.294,2.586,2.169,5.524,2.335,8.844C54.547,55.538,44.651,65.666,32.687,66.294z"/>
	</g>
</g>
</svg>
