<?xml version="1.0" encoding="utf-8"?>
<!-- Generator: Adobe Illustrator 17.1.0, SVG Export Plug-In . SVG Version: 6.00 Build 0)  -->
<!DOCTYPE svg PUBLIC "-//W3C//DTD SVG 1.1//EN" "http://www.w3.org/Graphics/SVG/1.1/DTD/svg11.dtd">
<svg version="1.1" id="i_icon_1_" xmlns="http://www.w3.org/2000/svg" xmlns:xlink="http://www.w3.org/1999/xlink" x="0px" y="0px"
	 viewBox="0 0 19 20" enable-background="new 0 0 19 20" xml:space="preserve">
<g id="i_icon">
	<g>
		<path fill-rule="evenodd" clip-rule="evenodd" fill="#0283DF" d="M9.5,0.5C4.3,0.5,0,4.8,0,10c0,5.2,4.2,9.5,9.4,9.5
			c5.2,0,9.5-4.2,9.5-9.5C19,4.8,14.7,0.5,9.5,0.5z M11.5,15.2c-0.5,0.2-0.9,0.3-1.2,0.4c-0.3,0.1-0.6,0.2-1,0.2
			c-0.6,0-1-0.1-1.4-0.4c-0.3-0.3-0.5-0.7-0.5-1.1c0-0.2,0-0.3,0-0.5c0-0.2,0.1-0.4,0.1-0.6L8.2,11c0.1-0.2,0.1-0.4,0.1-0.6
			c0-0.2,0.1-0.4,0.1-0.5c0-0.3-0.1-0.5-0.2-0.6C8.1,9.2,7.9,9.2,7.6,9.2c-0.2,0-0.3,0-0.5,0.1C6.9,9.3,6.8,9.3,6.7,9.4l0.2-0.7
			C7.2,8.5,7.6,8.4,8,8.3c0.4-0.1,0.7-0.2,1-0.2c0.6,0,1,0.1,1.4,0.4c0.3,0.3,0.5,0.6,0.5,1.1c0,0.1,0,0.3,0,0.5
			c0,0.2-0.1,0.5-0.1,0.6l-0.6,2.1c-0.1,0.2-0.1,0.4-0.1,0.6c0,0.2-0.1,0.4-0.1,0.5c0,0.3,0.1,0.5,0.2,0.6c0.1,0.1,0.3,0.2,0.7,0.2
			c0.1,0,0.3,0,0.5-0.1c0.2,0,0.3-0.1,0.4-0.1L11.5,15.2z M11.4,6.5c-0.3,0.3-0.6,0.4-1,0.4c-0.4,0-0.7-0.1-1-0.4
			C9,6.2,8.9,5.9,8.9,5.5c0-0.4,0.1-0.7,0.4-1c0.3-0.3,0.6-0.4,1-0.4c0.4,0,0.7,0.1,1,0.4c0.3,0.3,0.4,0.6,0.4,1
			C11.8,5.9,11.6,6.2,11.4,6.5z"/>
	</g>
</g>
</svg>
