<?xml version="1.0" encoding="iso-8859-1"?>
<!-- Generator: Adobe Illustrator 17.1.0, SVG Export Plug-In . SVG Version: 6.00 Build 0)  -->
<!DOCTYPE svg PUBLIC "-//W3C//DTD SVG 1.1//EN" "http://www.w3.org/Graphics/SVG/1.1/DTD/svg11.dtd">
<svg version="1.1" id="circle_copy_4_1_" xmlns="http://www.w3.org/2000/svg" xmlns:xlink="http://www.w3.org/1999/xlink" x="0px"
	 y="0px" viewBox="0 0 44 44" style="enable-background:new 0 0 44 44;" xml:space="preserve">
<g id="circle_copy_4">
	<g>
		<path style="fill:#565A5C;" d="M30.199,19.684c-1.414-0.709-3.57-0.688-4.933,0.163c-0.333,0.207-0.556,0.413-0.827,0.68
			c-0.271,0.268-0.422,0.517-0.629,0.795c-0.024,0.032-0.03,0.038-0.05,0.062v-1.894h-4.507l0.028,3.788
			c0,3.269-0.028,6.451-0.028,9.72h4.507v-7.38c0-0.656,0.034-1.117,0.345-1.635c0.091-0.153,0.164-0.265,0.278-0.393
			c0.197-0.223,0.078-0.123,0.336-0.333c0.949-0.774,2.541-0.733,3.258,0.338c0.35,0.522,0.515,1.302,0.515,2.162v7.241h4.507
			v-8.105C32.998,22.772,32.161,20.669,30.199,19.684z M16.705,19.489h-4.451v13.508h4.451c0.064,0,0.084-0.019,0.084-0.084v-13.34
			C16.789,19.509,16.769,19.489,16.705,19.489z M16.011,13.384c-0.111-0.068-0.266-0.143-0.393-0.193
			c-0.621-0.248-1.469-0.255-2.101-0.02c-0.522,0.195-1.006,0.568-1.255,1.064c-0.119,0.237-0.261,0.572-0.261,0.909
			c0,0.551-0.003,0.775,0.252,1.282c0.753,1.498,3.023,1.581,4.039,0.648c0.558-0.513,0.777-0.983,0.777-1.818
			c0-0.522-0.314-1.295-0.724-1.62C16.224,13.541,16.147,13.469,16.011,13.384z M22,0C9.869,0,0,9.869,0,22s9.869,22,22,22
			s22-9.869,22-22S34.131,0,22,0z M22,43.24C10.84,43.24,0.76,33.16,0.76,22S10.84,0.76,22,0.76S43.24,10.84,43.24,22
			S33.16,43.24,22,43.24z"/>
	</g>
</g>
</svg>
