<?xml version="1.0" encoding="utf-8"?>
<!-- Generator: Adobe Illustrator 17.1.0, SVG Export Plug-In . SVG Version: 6.00 Build 0)  -->
<!DOCTYPE svg PUBLIC "-//W3C//DTD SVG 1.1//EN" "http://www.w3.org/Graphics/SVG/1.1/DTD/svg11.dtd">
<svg version="1.1" id="lock_1_" xmlns="http://www.w3.org/2000/svg" xmlns:xlink="http://www.w3.org/1999/xlink" x="0px" y="0px"
	 viewBox="0 0 12 17" enable-background="new 0 0 12 17" xml:space="preserve">
<g id="lock">
	<g>
		<path fill-rule="evenodd" clip-rule="evenodd" fill="#FFFFFF" d="M11.5,6.8h-0.8V4.7C10.7,2.1,8.6,0,6,0C3.4,0,1.3,2.1,1.3,4.7
			v2.1H0.5C0.2,6.8,0,7,0,7.3v9.2C0,16.8,0.2,17,0.5,17h11c0.3,0,0.5-0.2,0.5-0.5V7.3C12,7,11.8,6.8,11.5,6.8z M6.8,12.4v2
			c0,0.2-0.1,0.3-0.3,0.3H5.6c-0.2,0-0.3-0.1-0.3-0.3v-2c-0.3-0.2-0.6-0.6-0.6-1.1C4.7,10.6,5.3,10,6,10c0.7,0,1.3,0.6,1.3,1.3
			C7.3,11.8,7.1,12.2,6.8,12.4z M8.4,6.8H3.6V4.7c0-1.4,1.1-2.5,2.4-2.5c1.3,0,2.4,1.1,2.4,2.5V6.8z"/>
	</g>
</g>
</svg>
