<?xml version="1.0" encoding="UTF-8"?>
<!DOCTYPE svg PUBLIC "-//W3C//DTD SVG 1.1//EN" "http://www.w3.org/Graphics/SVG/1.1/DTD/svg11.dtd">
<!-- Creator: CorelDRAW X7 -->
<svg xmlns="http://www.w3.org/2000/svg" xml:space="preserve" width="5.42669in" height="1.49369in" version="1.1" style="shape-rendering:geometricPrecision; text-rendering:geometricPrecision; image-rendering:optimizeQuality; fill-rule:evenodd; clip-rule:evenodd"
viewBox="0 0 44975 12379"
 xmlns:xlink="http://www.w3.org/1999/xlink">
 <defs>
  <style type="text/css">
   <![CDATA[
    .fil9 {fill:#727272}
    .fil1 {fill:#FEFEFE;fill-rule:nonzero}
    .fil2 {fill:#ECABCC;fill-rule:nonzero}
    .fil6 {fill:#EB9437;fill-rule:nonzero}
    .fil4 {fill:#DBB24C;fill-rule:nonzero}
    .fil8 {fill:#C2353A;fill-rule:nonzero}
    .fil5 {fill:#81476E;fill-rule:nonzero}
    .fil0 {fill:#727272;fill-rule:nonzero}
    .fil3 {fill:#3BC2D8;fill-rule:nonzero}
    .fil7 {fill:#4BB356;fill-rule:nonzero}
   ]]>
  </style>
 </defs>
 <g id="Layer_x0020_1">
  <metadata id="CorelCorpID_0Corel-Layer"/>
  <g id="_599932992">
   <g>
    <g>
     <path class="fil0" d="M15165 12228l0 -1656 571 0 0 403c273,497 631,745 1073,745 225,0 415,-69 571,-207 155,-138 232,-318 232,-541 0,-217 -63,-373 -190,-468 -127,-95 -366,-189 -718,-283 -409,-110 -712,-213 -909,-311 -197,-97 -354,-236 -471,-416 -117,-181 -175,-394 -175,-641 0,-383 127,-689 382,-917 255,-229 575,-343 960,-343 365,0 704,118 1016,354l0 -305 558 0 0 1384 -558 0 0 -318c-234,-352 -556,-528 -967,-528 -250,0 -441,57 -574,172 -134,115 -200,252 -200,412 0,122 33,230 101,323 68,93 154,161 259,205 105,44 312,105 621,184 402,104 694,202 875,293 182,91 338,242 469,454 132,212 197,456 197,732 0,389 -137,711 -411,965 -275,253 -614,380 -1019,380 -416,0 -790,-149 -1122,-449l0 377 -571 0z"/>
     <path class="fil0" d="M16858 12360c-388,0 -745,-128 -1063,-381l0 309 -689 0 0 -1776 689 0 0 448c264,471 595,700 1014,700 212,0 386,-62 531,-191 143,-128 213,-290 213,-497 0,-199 -54,-336 -166,-420 -120,-90 -355,-182 -699,-274 -410,-110 -720,-216 -919,-314 -206,-102 -372,-249 -494,-438 -123,-189 -186,-416 -186,-673 0,-399 136,-722 402,-962 265,-237 601,-358 1000,-358 339,0 661,101 957,299l0 -249 677 0 0 1503 -677 0 0 -360c-223,-327 -520,-487 -908,-487 -234,0 -414,53 -536,158 -120,104 -179,224 -179,367 0,111 29,205 90,288 61,84 140,146 234,185 102,43 308,104 612,181 405,105 703,205 888,298 191,95 356,255 493,476 136,221 206,477 206,763 0,405 -145,744 -431,1008 -285,263 -641,397 -1059,397zm-1181 -642l0 0 99 89c319,288 683,434 1082,434 387,0 716,-123 978,-365 261,-241 393,-551 393,-921 0,-263 -63,-499 -188,-701 -125,-201 -274,-347 -445,-432 -177,-89 -468,-186 -864,-289 -314,-80 -520,-141 -628,-186 -115,-48 -211,-124 -285,-225 -75,-103 -113,-223 -113,-358 0,-177 74,-331 221,-457 144,-123 350,-186 613,-186 430,0 772,186 1017,554l10 15 0 277 439 0 0 -1266 -439 0 0 365 -95 -72c-301,-227 -631,-342 -981,-342 -368,0 -678,110 -920,328 -241,216 -363,509 -363,873 0,234 56,439 166,609 111,170 261,303 447,395 193,95 495,198 898,306 363,97 605,193 739,294 142,106 214,280 214,515 0,239 -85,437 -253,585 -166,147 -371,222 -610,222 -463,0 -842,-261 -1125,-775l-7 -14 0 -359 -452 0 0 1538 452 0 0 -451z"/>
    </g>
    <g>
     <polygon class="fil0" points="19233,11674 19233,8219 18662,8219 18662,7665 19856,7665 19856,10516 21044,9568 20516,9568 20516,9053 22271,9053 22271,9568 21785,9568 20594,10558 21713,11674 22271,11674 22271,12228 21454,12228 19856,10631 19856,11674 20404,11674 20404,12228 18662,12228 18662,11674 "/>
     <path class="fil0" d="M22330 12288l-901 0 -1513 -1514 0 840 548 0 0 674 -1861 0 0 -674 571 0 0 -3335 -571 0 0 -673 1313 0 0 2786 958 -765 -418 0 0 -634 1874 0 0 634 -523 0 -1125 935 1056 1052 592 0 0 674zm-852 -119l0 0 733 0 0 -436 -522 0 -1183 -1179 1258 -1046 447 0 0 -396 -1636 0 0 396 638 0 -1332 1064 1597 1597zm-2756 0l0 0 1623 0 0 -436 -548 0 0 -4009 -1075 0 0 436 570 0 0 3573 -570 0 0 436z"/>
    </g>
    <g>
     <path class="fil0" d="M25751 10798l-2670 0c39,293 155,530 348,712 192,181 438,272 738,272 435,0 779,-175 1033,-525l551 243c-179,278 -412,484 -698,618 -287,135 -586,202 -899,202 -486,0 -901,-151 -1245,-454 -345,-303 -517,-712 -517,-1226 0,-487 168,-889 504,-1204 335,-314 721,-472 1156,-472 427,0 813,154 1160,461 346,307 526,765 539,1373zm-643 -453l0 0c-43,-223 -159,-425 -347,-605 -188,-181 -419,-271 -692,-271 -250,0 -463,82 -640,245 -177,163 -286,373 -325,631l2004 0z"/>
     <path class="fil0" d="M24154 12379c-498,0 -930,-157 -1284,-469 -357,-313 -537,-740 -537,-1270 0,-502 176,-922 522,-1247 346,-324 748,-488 1197,-488 439,0 843,160 1199,476 358,317 546,793 560,1416l1 60 -2662 0c46,248 153,453 319,610 181,169 415,256 698,256 419,0 741,-164 985,-501l28 -38 659 290 -38 58c-184,286 -428,501 -723,640 -293,138 -604,207 -924,207zm-102 -3356l0 0c-418,0 -793,154 -1116,457 -321,302 -484,692 -484,1160 0,494 167,891 496,1181 332,292 737,440 1206,440 302,0 596,-66 873,-196 255,-120 468,-301 636,-539l-443 -196c-262,340 -616,511 -1053,511 -314,0 -576,-97 -779,-288 -202,-190 -325,-442 -366,-747l-9 -67 2677 0c-23,-559 -197,-985 -518,-1270 -333,-296 -710,-446 -1120,-446zm1129 1382l0 0 -2146 0 10 -69c42,-270 157,-494 344,-666 187,-173 416,-260 680,-260 287,0 534,97 733,287 196,188 319,402 365,637l14 71zm-2006 -119l0 0 1858 0c-50,-183 -155,-352 -313,-503 -176,-169 -395,-254 -651,-254 -233,0 -435,77 -600,228 -150,139 -249,316 -294,529z"/>
    </g>
    <g>
     <path class="fil0" d="M26204 9607l0 -554 413 0 0 -489 624 -571 0 1060 587 0 0 554 -587 0 0 1542c0,247 13,400 41,458 27,57 95,86 205,86 116,0 229,-21 341,-65l0 567c-160,57 -319,86 -479,86 -190,0 -344,-42 -463,-127 -118,-84 -192,-189 -223,-316 -30,-127 -46,-346 -46,-656l0 -1575 -413 0z"/>
     <path class="fil0" d="M27349 12340c-202,0 -369,-46 -497,-137 -130,-93 -212,-211 -246,-351 -32,-133 -48,-352 -48,-670l0 -1516 -413 0 0 -673 413 0 0 -455 742 -680 0 1135 587 0 0 673 -587 0 0 1483c0,311 22,404 35,432 21,44 94,53 152,53 108,0 215,-21 319,-61l81 -32 0 696 -39 14c-165,59 -333,89 -499,89zm-1086 -2792l0 0 414 0 0 1634c0,304 15,520 44,642 27,113 93,206 200,282 107,77 251,115 428,115 139,0 280,-23 420,-68l0 -442c-93,28 -187,42 -282,42 -134,0 -221,-41 -259,-121 -20,-42 -47,-139 -47,-483l0 -1601 588 0 0 -436 -588 0 0 -984 -504 462 0 522 -414 0 0 436z"/>
    </g>
    <g>
     <path class="fil0" d="M31276 9053l0 1200 -558 0c-28,-229 -122,-405 -280,-528 -159,-122 -343,-184 -553,-184 -280,0 -508,99 -682,297 -176,198 -263,458 -263,779 0,300 83,564 249,793 167,228 407,343 722,343 437,0 755,-208 951,-624l515 243c-284,632 -781,948 -1492,948 -503,0 -899,-172 -1188,-515 -288,-343 -433,-739 -433,-1188 0,-479 158,-874 473,-1185 315,-312 678,-468 1089,-468 352,0 649,104 892,312l0 -223 558 0z"/>
     <path class="fil0" d="M29885 12379c-519,0 -934,-180 -1233,-536 -297,-353 -447,-765 -447,-1226 0,-493 165,-906 490,-1228 325,-321 705,-484 1131,-484 319,0 599,84 833,249l0 -161 676 0 0 1320 -669 0 -7 -52c-26,-216 -111,-375 -258,-489 -147,-114 -321,-171 -516,-171 -265,0 -473,90 -638,277 -164,185 -248,434 -248,739 0,286 80,541 238,758 156,214 376,318 674,318 416,0 710,-193 898,-589l25 -54 622 293 -24 53c-294,653 -814,983 -1547,983zm-59 -3356l0 0c-393,0 -746,152 -1048,451 -301,298 -454,683 -454,1143 0,432 141,819 419,1150 275,328 659,494 1142,494 671,0 1134,-282 1414,-861l-409 -192c-209,401 -538,604 -979,604 -333,0 -592,-124 -770,-367 -173,-238 -260,-517 -260,-828 0,-334 93,-610 277,-818 186,-210 430,-317 727,-317 222,0 420,66 589,196 158,123 258,296 295,516l447 0 0 -1082 -439 0 0 293 -97 -84c-231,-198 -518,-298 -854,-298z"/>
    </g>
    <g>
     <path class="fil0" d="M32240 11674l0 -3455 -574 0 0 -554 1198 0 0 1752c374,-302 729,-453 1066,-453 210,0 382,44 518,131 136,88 228,203 277,346 49,144 74,353 74,629l0 1604 541 0 0 554 -1164 0 0 -1942c0,-240 -8,-401 -23,-482 -16,-81 -58,-148 -127,-200 -68,-53 -150,-79 -244,-79 -241,0 -547,137 -918,410l0 1739 551 0 0 554 -1749 0 0 -554 574 0z"/>
     <path class="fil0" d="M35400 12288l-1284 0 0 -2002c0,-235 -7,-394 -22,-471 -12,-67 -46,-120 -103,-164 -59,-45 -128,-67 -209,-67 -221,0 -510,129 -859,381l0 1649 551 0 0 674 -1867 0 0 -674 574 0 0 -3335 -574 0 0 -673 1316 0 0 1690c349,-260 687,-391 1007,-391 220,0 405,47 550,140 147,95 248,222 301,377 52,151 77,363 77,648l0 1544 542 0 0 674zm-1165 -119l0 0 1046 0 0 -436 -541 0 0 -1663c0,-268 -24,-473 -71,-609 -45,-132 -128,-235 -253,-316 -125,-81 -289,-122 -486,-122 -322,0 -668,148 -1029,440l-97 78 0 -1817 -1078 0 0 436 574 0 0 3573 -574 0 0 436 1629 0 0 -436 -551 0 0 -1828 24 -18c386,-283 698,-421 954,-421 107,0 201,30 280,91 81,61 131,140 149,236 16,86 24,247 24,493l0 1883z"/>
    </g>
    <g>
     <path class="fil0" d="M38982 10798l-2671 0c40,293 156,530 348,712 193,181 439,272 738,272 435,0 780,-175 1034,-525l551 243c-180,278 -413,484 -699,618 -287,135 -586,202 -899,202 -485,0 -900,-151 -1245,-454 -344,-303 -517,-712 -517,-1226 0,-487 168,-889 504,-1204 336,-314 721,-472 1156,-472 427,0 813,154 1160,461 347,307 527,765 540,1373zm-643 -453l0 0c-44,-223 -160,-425 -348,-605 -188,-181 -419,-271 -692,-271 -250,0 -463,82 -640,245 -177,163 -285,373 -325,631l2005 0z"/>
     <path class="fil0" d="M37384 12379c-498,0 -930,-157 -1284,-469 -356,-313 -537,-740 -537,-1270 0,-502 176,-922 522,-1247 346,-324 749,-488 1197,-488 440,0 843,160 1199,476 358,317 547,793 560,1416l1 60 -2661 0c45,248 152,453 319,610 180,170 415,256 697,256 419,0 741,-164 986,-501l28 -38 658 290 -37 58c-185,286 -428,501 -724,640 -293,138 -604,207 -924,207zm-102 -3356l0 0c-417,0 -793,154 -1115,457 -322,302 -485,692 -485,1160 0,494 167,891 496,1181 332,292 738,440 1206,440 303,0 597,-66 874,-196 254,-120 468,-301 635,-539l-443 -196c-262,340 -616,511 -1053,511 -314,0 -576,-97 -779,-288 -201,-190 -324,-442 -365,-747l-9 -67 2676 0c-23,-559 -197,-985 -517,-1270 -334,-296 -711,-446 -1121,-446zm1129 1382l0 0 -2146 0 11 -69c41,-270 156,-494 343,-666 188,-173 416,-260 680,-260 288,0 534,97 733,287 196,188 319,402 365,637l14 71zm-2006 -119l0 0 1859 0c-51,-183 -156,-352 -314,-503 -178,-171 -391,-254 -651,-254 -233,0 -435,77 -600,228 -150,139 -249,316 -294,529z"/>
    </g>
    <g>
     <path class="fil0" d="M40018 11674l0 -2067 -639 0 0 -554 1138 0 0 715c70,-186 167,-340 292,-463 125,-122 256,-203 395,-243 139,-39 329,-59 569,-59l164 0 0 630 -124 0c-317,0 -554,32 -710,95 -157,64 -273,179 -348,347 -76,167 -113,467 -113,900l0 699 692 0 0 554 -1955 0 0 -554 639 0z"/>
     <path class="fil0" d="M41393 12288l-2074 0 0 -674 640 0 0 -1948 -640 0 0 -673 1257 0 0 514c55,-91 119,-173 191,-244 132,-129 273,-216 421,-258 143,-40 340,-61 585,-61l224 0 0 749 -184 0c-308,0 -540,30 -688,90 -143,58 -247,162 -316,316 -72,159 -108,454 -108,876l0 639 692 0 0 674zm-1955 -119l0 0 1836 0 0 -436 -692 0 0 -758c0,-446 39,-748 119,-925 81,-181 209,-307 379,-377 165,-67 405,-99 733,-99l65 0 0 -511 -105 0c-234,0 -420,19 -553,57 -128,36 -253,113 -369,228 -118,115 -212,264 -279,441l-114 305 0 -982 -1020 0 0 436 640 0 0 2185 -640 0 0 436z"/>
    </g>
    <g>
     <path class="fil0" d="M42308 12228l0 -1089 558 0 0 105c19,149 100,271 241,367 141,97 308,145 500,145 201,0 362,-35 482,-105 121,-70 181,-167 181,-292 0,-120 -50,-209 -149,-266 -100,-57 -297,-109 -593,-157 -437,-74 -749,-193 -936,-359 -187,-165 -281,-379 -281,-641 0,-265 102,-487 305,-665 204,-178 472,-268 804,-268 300,0 558,62 774,185l0 -135 555 0 0 1053 -555 0 0 -194c-168,-260 -413,-390 -734,-390 -165,0 -300,35 -406,106 -106,71 -159,166 -159,284 0,120 49,203 146,248 98,45 307,92 628,142 309,48 542,104 699,169 158,64 288,172 392,321 104,150 156,325 156,524 0,295 -113,530 -339,704 -227,174 -520,261 -881,261 -339,0 -616,-77 -830,-231l0 178 -558 0z"/>
     <path class="fil0" d="M43696 12340c-303,0 -562,-61 -771,-182l0 130 -676 0 0 -1208 676 0 0 160c18,131 89,236 215,322 131,89 288,134 467,134 190,0 342,-32 453,-96 101,-60 150,-138 150,-241 0,-100 -37,-168 -119,-214 -93,-53 -285,-104 -572,-150 -447,-76 -772,-201 -967,-373 -199,-176 -300,-407 -300,-686 0,-282 109,-520 325,-710 214,-187 497,-282 843,-282 269,0 509,49 715,147l0 -98 673 0 0 1172 -673 0 0 -235c-158,-235 -379,-349 -675,-349 -152,0 -277,33 -373,97 -89,60 -132,136 -132,234 0,97 35,159 111,194 92,42 298,89 613,138 311,48 551,106 712,172 167,69 308,184 418,343 110,159 166,346 166,557 0,313 -122,566 -362,751 -236,181 -545,273 -917,273zm-890 -406l0 0 94 68c203,145 471,219 796,219 346,0 630,-83 844,-248 213,-164 317,-379 317,-657 0,-186 -49,-351 -146,-490 -96,-139 -219,-240 -365,-300 -153,-63 -383,-118 -686,-165 -330,-52 -540,-100 -644,-147 -118,-55 -180,-159 -180,-302 0,-138 62,-250 185,-333 116,-77 263,-117 439,-117 341,0 605,141 784,418l10 15 0 151 435 0 0 -934 -435 0 0 179 -89 -51c-206,-118 -457,-177 -745,-177 -316,0 -573,85 -764,253 -192,168 -285,371 -285,620 0,247 85,442 260,597 178,157 483,273 907,345 305,49 505,103 612,164 117,67 179,176 179,317 0,147 -70,262 -210,343 -129,75 -301,113 -512,113 -204,0 -383,-52 -534,-155 -155,-105 -244,-243 -266,-408l-1 -8 0 -46 -439 0 0 971 439 0 0 -235z"/>
    </g>
    <polygon class="fil0" points="43576,7266 43576,7379 43191,7379 43190,8430 43065,8430 43066,7378 42681,7378 42681,7265 "/>
    <polygon class="fil0" points="43913,7266 44282,8260 44660,7267 44821,7267 44820,8432 44696,8432 44697,7476 44346,8432 44233,8431 43877,7475 43876,8431 43752,8431 43753,7266 "/>
   </g>
   <g>
    <g>
     <polygon class="fil1" points="1675,4623 1468,4214 "/>
     <polygon class="fil2" points="1406,4245 1530,4183 1737,4592 1613,4655 "/>
    </g>
    <g>
     <polygon class="fil1" points="3182,4630 2045,3794 "/>
     <polygon class="fil3" points="1942,3934 2147,3655 3285,4490 3080,4769 "/>
    </g>
    <g>
     <polygon class="fil1" points="2989,3635 2319,4542 "/>
     <polygon class="fil2" points="2263,4501 2934,3594 3045,3676 2374,4583 "/>
    </g>
    <g>
     <polygon class="fil1" points="3920,4314 3739,3729 "/>
     <polygon class="fil4" points="3607,3770 3872,3688 4052,4273 3787,4355 "/>
    </g>
    <g>
     <polygon class="fil1" points="1820,1836 1572,2284 "/>
     <polygon class="fil5" points="1481,2234 1729,1786 1911,1887 1663,2335 "/>
    </g>
    <g>
     <polygon class="fil1" points="2900,1980 3182,2353 "/>
     <polygon class="fil5" points="2817,2043 2983,1917 3265,2290 3100,2415 "/>
    </g>
    <g>
     <polygon class="fil1" points="4041,1982 3799,2448 "/>
     <polygon class="fil6" points="3707,2400 3948,1935 4133,2030 3891,2496 "/>
    </g>
    <g>
     <polygon class="fil1" points="5246,1681 5523,1991 "/>
     <polygon class="fil7" points="5142,1773 5349,1589 5626,1899 5419,2084 "/>
    </g>
    <g>
     <polygon class="fil1" points="5199,4252 4792,4805 "/>
     <polygon class="fil8" points="4652,4702 5059,4149 5338,4355 4931,4908 "/>
    </g>
    <g>
     <path class="fil8" d="M4628 3251c0,-901 733,-1634 1634,-1634 902,0 1635,733 1635,1634 0,901 -733,1634 -1635,1634 -901,0 -1634,-733 -1634,-1634zm2922 0l0 0c0,-710 -577,-1288 -1288,-1288 -710,0 -1287,578 -1287,1288 0,710 577,1288 1287,1288 711,0 1288,-578 1288,-1288z"/>
    </g>
    <g>
     <path class="fil7" d="M3354 1109c0,-612 497,-1109 1108,-1109 612,0 1109,497 1109,1109 0,611 -497,1108 -1109,1108 -611,0 -1108,-497 -1108,-1108zm1940 0l0 0c0,-459 -373,-832 -832,-832 -458,0 -831,373 -831,832 0,458 373,831 831,831 459,0 832,-373 832,-831z"/>
    </g>
    <g>
     <path class="fil6" d="M2616 3073c0,-454 370,-824 825,-824 455,0 825,370 825,824 0,455 -370,825 -825,825 -455,0 -825,-370 -825,-825zm1442 0l0 0c0,-340 -277,-616 -617,-616 -340,0 -617,276 -617,616 0,341 277,617 617,617 340,0 617,-276 617,-617z"/>
    </g>
    <g>
     <path class="fil2" d="M1519 4887c0,-284 232,-516 516,-516 284,0 516,232 516,516 0,284 -232,516 -516,516 -284,0 -516,-232 -516,-516zm893 0l0 0c0,-208 -169,-377 -377,-377 -208,0 -377,169 -377,377 0,208 169,377 377,377 208,0 377,-169 377,-377z"/>
    </g>
    <g>
     <path class="fil4" d="M2762 5334c0,-639 519,-1159 1158,-1159 638,0 1158,520 1158,1159 0,638 -520,1158 -1158,1158 -639,0 -1158,-520 -1158,-1158zm2039 0l0 0c0,-486 -396,-881 -881,-881 -486,0 -881,395 -881,881 0,485 395,880 881,880 485,0 881,-395 881,-880z"/>
    </g>
    <g>
     <path class="fil5" d="M1571 1392c0,-473 385,-857 858,-857 473,0 857,384 857,857 0,473 -384,858 -857,858 -473,0 -858,-385 -858,-858zm1508 0l0 0c0,-358 -292,-649 -650,-649 -358,0 -650,291 -650,649 0,359 292,650 650,650 358,0 650,-291 650,-650z"/>
    </g>
    <g>
     <path class="fil3" d="M0 3232c0,-658 535,-1194 1194,-1194 658,0 1193,536 1193,1194 0,658 -535,1193 -1193,1193 -659,0 -1194,-535 -1194,-1193zm2040 0l0 0c0,-467 -379,-847 -846,-847 -468,0 -848,380 -848,847 0,467 380,847 848,847 467,0 846,-380 846,-847z"/>
    </g>
   </g>
   <path class="fil0" d="M11331 8432l-3 3863 -568 0 4 -3863 567 0zm2 -1547l0 0 -1 669 -567 -1 0 -668 568 0z"/>
   <path class="fil0" d="M12264 8433l568 0 -24 591c238,-440 570,-660 995,-660 42,0 86,4 132,12 47,8 91,20 132,35l0 583c-124,-41 -218,-62 -280,-62 -150,0 -285,28 -404,85 -119,57 -221,133 -303,229 -84,96 -146,206 -187,330 -42,124 -63,254 -63,389l-2 2332 -567 -1 3 -3863z"/>
   <polygon class="fil0" points="6576,6691 4506,7806 4506,6966 3518,6966 3518,8338 3275,8469 3275,12293 3761,12293 3761,8759 6577,7241 9408,8759 9408,12293 9893,12293 9893,8469 "/>
   <polygon class="fil0" points="5936,12294 7232,12294 7232,10283 5936,10283 "/>
   <rect class="fil9" x="3595" y="8431" width="5939" height="490"/>
  </g>
 </g>
</svg>
