<?xml version="1.0" encoding="utf-8"?>
<!-- Generator: Adobe Illustrator 17.1.0, SVG Export Plug-In . SVG Version: 6.00 Build 0)  -->
<!DOCTYPE svg PUBLIC "-//W3C//DTD SVG 1.1//EN" "http://www.w3.org/Graphics/SVG/1.1/DTD/svg11.dtd">
<svg version="1.1" id="Layer_1" xmlns="http://www.w3.org/2000/svg" xmlns:xlink="http://www.w3.org/1999/xlink" x="0px" y="0px"
	 viewBox="0 0 593.2 605.9" enable-background="new 0 0 593.2 605.9" xml:space="preserve">
<path fill-rule="evenodd" clip-rule="evenodd" fill="#999999" d="M209.3,59.6c83.8,0,151.7,67.9,151.7,151.7
	c0,83.8-67.9,151.7-151.7,151.7c-83.8,0-151.7-67.9-151.7-151.7C57.6,127.5,125.5,59.6,209.3,59.6 M209.3,2
	c115.6,0,209.3,93.7,209.3,209.3c0,115.6-93.7,209.3-209.3,209.3C93.7,420.6,0,326.9,0,211.3C0,95.7,93.7,2,209.3,2z"/>
<path fill-rule="evenodd" clip-rule="evenodd" fill="#999999" d="M128.5,182h52.4v-52.4c0-12.1,9.9-22,22-22h15.3
	c12.1,0,22,9.9,22,22V182h52.4c12.1,0,22,9.9,22,22v15.3c0,12.1-9.9,22-22,22h-52.4v52.4c0,12.1-9.9,22-22,22h-15.3
	c-12.1,0-22-9.9-22-22v-52.4h-52.4c-12.1,0-22-9.9-22-22v-15.3C106.4,192,116.3,182,128.5,182"/>
<path fill-rule="evenodd" clip-rule="evenodd" fill="#999999" d="M400.7,336.6l174.2,174.2c21.7,21.7,21.7,57.1,0,78.8
	c-21.7,21.7-57.1,21.7-78.8,0L319.9,413.4C353.3,395.6,381.2,368.9,400.7,336.6"/>
</svg>
