<?xml version="1.0" encoding="iso-8859-1"?>
<!-- Generator: Adobe Illustrator 17.1.0, SVG Export Plug-In . SVG Version: 6.00 Build 0)  -->
<!DOCTYPE svg PUBLIC "-//W3C//DTD SVG 1.1//EN" "http://www.w3.org/Graphics/SVG/1.1/DTD/svg11.dtd">
<svg version="1.1" id="circle_copy_5_1_" xmlns="http://www.w3.org/2000/svg" xmlns:xlink="http://www.w3.org/1999/xlink" x="0px"
	 y="0px" viewBox="0 0 44 44" style="enable-background:new 0 0 44 44;" xml:space="preserve">
<g id="circle_copy_5">
	<g>
		<path style="fill:#565A5C;" d="M28.807,16.006c-0.068-0.096-0.117-0.159-0.185-0.247c-0.297-0.386-0.662-0.762-1.053-1.061
			c-0.986-0.753-1.955-1.218-3.205-1.507c-1.21-0.278-2.755-0.236-3.962-0.001c-1.333,0.259-2.585,0.786-3.621,1.609
			c-0.851,0.679-1.406,1.371-1.957,2.292l-0.304,0.639c-0.269,0.657-0.522,1.564-0.522,2.297c0,0.77,0.089,1.548,0.34,2.259
			c0.276,0.783,0.751,1.48,1.447,1.959c0.276,0.19,0.851,0.596,1.163,0.249c0.103-0.115,0.377-1.165,0.377-1.343
			c0-0.227-0.214-0.419-0.326-0.564c-0.739-0.952-0.774-2.255-0.515-3.403c0.075-0.33,0.216-0.748,0.355-1.017
			c0.276-0.535,0.563-1.001,0.974-1.43c0.069-0.072,0.085-0.115,0.164-0.188l0.566-0.465c0.073-0.057,0.14-0.095,0.212-0.142
			c1.571-1.016,3.723-1.238,5.537-0.623c1.099,0.371,1.917,1.148,2.4,2.155c0.274,0.569,0.394,1.236,0.394,1.887
			c0,0.715-0.097,1.491-0.236,2.174c-0.279,1.368-1.021,3.034-2.385,3.691c-1.471,0.71-3.043-0.164-3.043-1.38
			c0-0.304,0.037-0.517,0.11-0.8c0.279-1.086,0.99-2.816,0.99-3.846c0-0.867-0.523-1.734-1.485-1.734
			c-0.834,0-1.362,0.313-1.814,0.935c-0.693,0.949-0.721,2.308-0.397,3.428c0.198,0.683,0.239,0.214-0.01,1.168
			c-0.215,0.825-0.385,1.633-0.6,2.461l-0.293,1.211c-0.085,0.394-0.202,0.82-0.301,1.229c-0.212,0.871-0.379,1.736-0.379,2.675
			c0,0.313,0.025,1.044,0.067,1.324l0.112,0.931c0.048,0.278,0.236,0.243,0.371,0.068l0.67-0.897c0.939-1.377,1.26-2.173,1.71-3.919
			c0.071-0.275,0.501-1.752,0.506-1.992h0.055c0.082,0.342,0.75,0.794,1.054,0.953c0.708,0.369,1.24,0.436,2.081,0.436
			c0.499,0,1.087-0.124,1.474-0.251c0.844-0.275,1.567-0.669,2.189-1.265l0.44-0.427c0.414-0.456,0.755-0.979,1.038-1.528
			c0.095-0.185,0.19-0.4,0.271-0.591c0.174-0.41,0.304-0.832,0.416-1.278c0.117-0.467,0.218-0.972,0.246-1.47
			c0.042-0.731,0.103-1.261-0.026-2.002C29.746,17.684,29.378,16.804,28.807,16.006z M22,0C9.869,0,0,9.869,0,22s9.869,22,22,22
			s22-9.869,22-22S34.131,0,22,0z M22,43.24C10.84,43.24,0.76,33.16,0.76,22S10.84,0.76,22,0.76S43.24,10.84,43.24,22
			S33.16,43.24,22,43.24z"/>
	</g>
</g>
</svg>
