<?xml version="1.0" encoding="utf-8"?>
<!-- Generator: Adobe Illustrator 17.1.0, SVG Export Plug-In . SVG Version: 6.00 Build 0)  -->
<!DOCTYPE svg PUBLIC "-//W3C//DTD SVG 1.1//EN" "http://www.w3.org/Graphics/SVG/1.1/DTD/svg11.dtd">
<svg version="1.1" id="Approved_Icon_1_" xmlns="http://www.w3.org/2000/svg" xmlns:xlink="http://www.w3.org/1999/xlink" x="0px"
	 y="0px" viewBox="0 0 612 792" enable-background="new 0 0 612 792" xml:space="preserve">
<g id="Approved_Icon">
	<g>
		<path fill="#FF7977" d="M600.9,322.3c-2.4-9.6-5-19.3-8.4-28.2l-10.6-26c-3.7-8.8-8.1-16.1-12.5-24.1c-1.1-2.1-2-3.6-3.2-5.5
			l-7.2-11.4c-3.3-5.4-15.6-21.4-19.8-26.2L517.1,177c-7.5-7.5-26.5-23.1-35.3-29.2c-7.5-5.2-14.4-9.5-22.4-14.3
			c-40.4-24.4-97.1-40.7-143.3-40.7c-21.4,0-29.2-0.2-51.2,2.9c-18.4,2.6-41.9,8-58.7,14.6l-13,5c-10.2,4-21.4,9.8-31.1,14.9
			c-2.1,1.1-3.9,2.4-5.8,3.5c-16.7,9.5-28.4,18.6-43,30.3L93.9,182c-1.5,1.5-3,2.8-4.3,4.3c-1.8,2-2.3,3-4.4,5
			c-16.9,16.5-37.4,49.2-48.3,70.9c-1.1,2.2-1.8,4.1-2.9,6.4C19.8,297.9,6.4,345,6.4,388.1c0,32.2,1.1,49.6,8.7,80
			c7.8,30.9,20.9,63,38.3,89.6c8.4,12.8,21.7,31.4,32.1,41.8l9,9.6c1.6,1.6,2.8,2.7,4.3,4.3c2,2,2.8,2.6,5,4.4
			c3.4,2.8,6.1,6,9.8,8.9c3.6,2.8,6.4,5.3,9.9,8.1c14.7,11.5,22.9,16.1,38.6,25.4c2.2,1.3,4,2,6.1,3.2c9.7,5.9,27.5,12.5,38.4,16.9
			c24.7,9.8,65.4,17.4,93.3,17.4c38.8,0,59.4-2.1,94.9-12.6c5.1-1.5,9.3-2.7,14.1-4.6c18.7-7.3,32.3-12.5,50.1-23.2
			c3.9-2.3,7.5-4.3,11.2-6.8l21.5-15.1c3.7-2.8,6.8-5.7,10.3-8.3l23.8-22.2c1.8-1.9,2.4-3.1,4.3-5c10.5-10.3,23.5-28.8,31.9-41.3
			c7.4-11.1,17.3-29.7,22.3-41.7c7.5-17.9,11.7-29.3,16.4-48.2C612.6,421.2,612.8,369.7,600.9,322.3z M530.9,538.2
			c-9.8,14.5-11.9,16.5-21.2,28.4c-1.3,1.7-2.4,2.6-3.8,4.3c-1.5,1.8-2.1,2.7-3.8,4.3c-8.4,7.5-14.1,15.3-26,24.3
			c-18.7,14.3-26.3,20.1-49.8,32.2c-67.1,34.6-147.4,36-217.7,8.5c-24.1-9.4-43.7-21.6-63.1-36.3L132,592.6
			c-7-5.7-23.2-22.5-28.7-29.7c-2.4-3.2-4.7-5.8-7.1-9C65.3,512.5,46.4,464,43.5,408.5c-2.8-53.9,12.7-113.4,41.7-156.1
			c5-7.4,21.7-30.7,28.8-37c3-2.7,5.4-5.6,8.3-8.4c8.3-8.3,17.2-15.9,26.7-23c42.3-31.4,89.4-48.9,146-52.5
			c52.9-3.4,114.5,13.4,156.2,41.6c14.5,9.8,16.5,11.9,28.5,21.2c1.7,1.3,2.6,2.4,4.3,3.8l12.8,12.1c8.3,8.3,16,17.2,23.1,26.6
			c30.9,41.3,49.8,89.9,52.7,145.3C575.4,436,559.9,495.4,530.9,538.2z M488.8,301l-19.1,19c-2.1,2.4-3.9,4.6-6,6.8
			c2,7.3,6.2,14.6,9.6,28.7c2.6,10.9,4.2,22.3,4.6,34c0.8,23.3-3.4,46.4-11.1,66c-15,38.5-40.4,65.7-70.3,84.3
			c-33.4,20.8-80.4,30.7-126.1,20.6c-44-9.7-74.9-34.8-95.1-59.6c-39.6-48.8-49.1-116.3-20.8-178.2c6.2-13.7,13.7-24,22.5-35.3
			c4.5-5.7,6.5-6.9,9.5-10.3c11-12.4,29-24.8,44.2-32.8c37.9-19.9,87.5-24.4,128.6-10.7c35.3,11.8,44.9,23.5,51.3,26.4
			c2.9-1.4,23.8-17,29.1-19.9c-3.3-4.3-20.8-16.2-27.3-19.8c-10.2-5.7-19.9-10.8-31.8-15.4c-66.9-25.5-147.8-13.3-202,32.8
			c-2.1,1.8-4.2,3.7-6.4,5.4c-2.6,2.1-4,4-6.4,6.1c-6.2,5.5-17.1,18.2-22.2,25c-56.6,75.7-51,178,4.9,248.4l11.1,12.5
			c3.8,3.5,7.6,8.4,11.8,11.8c12.8,10.1,11.9,10.5,27.3,20.5c18.9,12.2,42.2,22.1,67.7,27.4c58.3,12,112.1-2.5,153.1-29
			c74.7-48.3,110.8-142.5,83.2-230.9C500.4,326.4,493.1,306.5,488.8,301z M334.2,352.6c-3.5,3.5-34.8,37.7-36.6,38.6
			c-4.8,2.4-10.2-0.5-14.1-2.5c-23.2-11.7-53.3-26.7-77.6-34.9c-12.2-4.1-21-0.7-24.7,8.7c-4.4,11.1,7.8,19.8,11.9,23.9
			c32,32,59,64.2,85.9,101c2.2,3,5.9,8,8.8,9.8c7.6,4.7,19.3,3.7,25.4-7.9c2.1-4,4.5-7.9,6.7-11.9c4.5-8.3,9-15.8,13.6-23.7
			c18.6-32.1,37.8-61.2,59.2-90.5c5.5-7.6,10.6-14,16.2-21c12.6-15.8,18.3-21.4,30.6-35.2c1.6-1.8,2.8-3.1,4.4-5l37.9-36.6
			c8.5-8.4,0.3-22.1-10.7-19.1c-4.1,1.1-8.5,4.6-12.1,6.9c-24.7,15.5-54.2,36.3-76.3,54.7C364.7,322.9,350.7,336.3,334.2,352.6z"/>
	</g>
</g>
</svg>
