<?xml version="1.0" encoding="iso-8859-1"?>
<!-- Generator: Adobe Illustrator 17.1.0, SVG Export Plug-In . SVG Version: 6.00 Build 0)  -->
<!DOCTYPE svg PUBLIC "-//W3C//DTD SVG 1.1//EN" "http://www.w3.org/Graphics/SVG/1.1/DTD/svg11.dtd">
<svg version="1.1" id="circle_copy_3_1_" xmlns="http://www.w3.org/2000/svg" xmlns:xlink="http://www.w3.org/1999/xlink" x="0px"
	 y="0px" viewBox="0 0 44 44" style="enable-background:new 0 0 44 44;" xml:space="preserve">
<g id="circle_copy_3">
	<g>
		<path style="fill:#565A5C;" d="M30.591,17.515l0.581-0.426c0.06-0.049,0.08-0.053,0.14-0.105c0.322-0.279,0.557-0.616,0.786-0.969
			c0.077-0.119,0.3-0.552,0.313-0.703c-0.146,0.032-0.465,0.217-0.616,0.288c-0.217,0.101-0.4,0.176-0.64,0.266
			c-0.301,0.115-1.111,0.39-1.432,0.39c-0.06,0-0.51-0.392-0.604-0.457c-1.194-0.843-3.001-1.072-4.38-0.435
			c-1.403,0.649-2.519,1.918-2.519,3.62c0,0.332,0.042,0.689,0.112,0.97c-0.772,0-2.149-0.271-2.844-0.457
			c-0.425-0.114-0.843-0.262-1.22-0.405c-1.104-0.416-2.729-1.335-3.573-2.135l-1.121-1.1c-0.066-0.069-0.062-0.03-0.09-0.126
			c-0.125,0.086-0.371,0.678-0.432,0.88c-0.326,1.085-0.205,2.243,0.403,3.187c0.093,0.145,0.155,0.242,0.266,0.38
			c0.264,0.33,0.571,0.623,0.926,0.864c0.108,0.073,0.063-0.001,0.098,0.092l-0.54-0.072c-0.182-0.027-0.35-0.065-0.5-0.108
			c-0.3-0.087-0.634-0.2-0.864-0.344c0,1.157,0.414,2.133,1.239,2.904c0.661,0.617,1.189,0.849,2.077,1.096
			c0.009,0.003,0.034,0.01,0.042,0.013l0.058,0.025c-0.254,0.005-0.519,0.105-0.868,0.105h-0.476c-0.229,0-0.365-0.053-0.56-0.053
			c0.116,0.468,0.447,0.966,0.752,1.315c0.168,0.193,0.363,0.358,0.557,0.527c0.053,0.047,0.062,0.059,0.119,0.099
			c0.73,0.519,1.571,0.865,2.576,0.865c-0.579,0.471-1.462,0.9-2.175,1.161c-1.464,0.534-2.63,0.611-4.18,0.49
			c0.119,0.167,1.143,0.627,1.334,0.717c2.928,1.372,6.936,1.5,9.992,0.294c0.621-0.245,1.232-0.518,1.798-0.859l1.356-0.932
			c0.084-0.07,0.129-0.093,0.21-0.17c0.084-0.081,0.125-0.101,0.21-0.172c0.269-0.222,0.536-0.53,0.756-0.734
			c0.082-0.075,0.105-0.121,0.182-0.197c0.254-0.249,0.466-0.549,0.687-0.825c0.11-0.138,0.219-0.288,0.316-0.438
			c0.506-0.778,0.97-1.578,1.282-2.445l0.196-0.55c0.278-0.8,0.395-1.622,0.514-2.457c0.028-0.197,0.073-1.28,0.008-1.408
			c0.127-0.063,0.202-0.124,0.312-0.207c0.726-0.541,1.183-1.042,1.74-1.726c0.048-0.06,0.082-0.09,0.104-0.165
			c-0.151,0.074-0.373,0.149-0.536,0.206C31.994,17.257,31.088,17.505,30.591,17.515z M22,0C9.869,0,0,9.869,0,22s9.869,22,22,22
			s22-9.869,22-22S34.131,0,22,0z M22,43.24C10.84,43.24,0.76,33.16,0.76,22S10.84,0.76,22,0.76S43.24,10.84,43.24,22
			S33.16,43.24,22,43.24z"/>
	</g>
</g>
</svg>
