<?xml version="1.0" encoding="iso-8859-1"?>
<!-- Generator: Adobe Illustrator 17.1.0, SVG Export Plug-In . SVG Version: 6.00 Build 0)  -->
<!DOCTYPE svg PUBLIC "-//W3C//DTD SVG 1.1//EN" "http://www.w3.org/Graphics/SVG/1.1/DTD/svg11.dtd">
<svg version="1.1" id="Dollar_Icon_1_" xmlns="http://www.w3.org/2000/svg" xmlns:xlink="http://www.w3.org/1999/xlink" x="0px"
	 y="0px" viewBox="0 0 64 71" style="enable-background:new 0 0 64 71;" xml:space="preserve">
<g id="Dollar_Icon">
	<g>
		<path style="fill:#DBB041;" d="M16.174,10.243c0.506,0.006,0.238,0.017,0.357,0.111l0.066,0.745l0.331,0.001l0.083,0.822
			c0.126,0.099-0.105,0.087,0.349,0.1l0.091,1.155l0.354,0.076l0.044,0.761c0.159,0.137-0.043,0.086,0.348,0.108
			c0.093,2.067,0.426,0.622,0.497,2.088c0.755,0.471-0.038-0.047,0.667,1.034c0.328,0.503,0.001,0.627,0.391,1.182
			c0.174,0.246,0.268,0.72,0.404,0.831c0.021,0.017,0.15,0.069,0.178,0.089l0.065,0.762l0.349,0.031l0.08,0.85
			c0.728,0.026,0.169-0.063,0.483,0.41l0.701,0.079c0.014,0.521,0.024,0.23,0.126,0.352l0.74,0.056
			c0.002,0.392-0.003,0.207,0.087,0.34l1.262,0.083l0.001,0.328l3.089,0.112c0.648,0.002,0.654-0.136,0.661,0.348l3.798,0.001
			l0.03-0.352l2.515-0.1l0-0.344c1.06-0.064,1.243,0.169,1.263-0.413c0.78-0.041,0.833,0.093,0.867-0.396
			c0.962-0.122,0.498,0.04,1.028-0.427l1.018-1.049c0.161-0.126,0.088-2.531,0.092-2.91h0.327l0.111-2.986l0.337-0.001l0.094-1.572
			l0.335-0.096l0.089-1.264c0.454-0.225,0.311-0.547,0.565-0.912c0.07-0.1,0.114-0.157,0.14-0.187
			c0.083-0.179,0.077-0.379,0.09-0.575c0.438-0.43,0.189,0.168,0.369-0.401c0.131-0.415,0.073-0.6,0.358-1.03
			c0.164-0.249,0.056-0.069,0.151-0.381c0.201-0.66-0.051-0.107,0.381-0.489l0.057-2.404L41.29,4.233
			c-0.219-0.222-0.132,0.352-0.163-0.314l-2.142-0.033c-0.005,0.541-0.009,0.241-0.104,0.359l-1.135,0.082l-0.001,0.351
			l-0.827,0.095c-0.096,0.303-0.054,0.175-0.224,0.316c-0.292,0.244-0.271-0.244-0.301,0.425l-2.451,0.062
			c-0.022-0.593,0.127-0.46-0.398-0.489l-0.108-1.11L33.094,3.88c-0.028-0.612,0.119-0.818-0.402-0.855l-0.094-0.827
			c-0.329-0.118-0.305-0.166-0.529-0.405l-0.835-0.906l-0.741-0.075l-0.035-0.349l-1.911,0.001C28.343,0.809,28.4,0.703,28.09,0.906
			l-1.625,1.67c-0.085,0.095-0.086,0.066-0.078,0.041c-0.008,0.02-0.024,0.057-0.061,0.135c-0.08,0.169-0.084,0.484-0.095,0.675
			c-0.539,0.005-0.253-0.048-0.345,0.231c-0.028,0.086-0.036,0.544-0.039,0.657h-0.356c-0.088,0.879,0.033,0.492-0.421,0.956
			l-0.318,0.321c-0.016,0.016-0.04,0.035-0.056,0.051C24.283,6.037,24.02,5.9,23.718,6.209c-0.012,0.012-0.102,0.158-0.13,0.188
			l-6.622,0.037c-0.034,0.535-0.154,0.454-0.783,0.487c-0.041,0.622,0.058,0.791-0.433,0.811l0.013,1.65
			C16.265,9.399,16.153,9.663,16.174,10.243z M40.589,10.091l-0.002,0.005C40.366,10.563,40.721,9.942,40.589,10.091z M2.286,41.232
			C2.335,41.083,2.273,41.215,2.286,41.232L2.286,41.232z M16.367,69.297C15.754,69.058,16.606,69.478,16.367,69.297L16.367,69.297z
			 M63.394,49.329c-0.159-0.325-0.15,0.248-0.223-0.595c-0.04-0.462-0.008-1.233-0.21-1.586c-0.43-0.752-0.054-0.743-0.316-1.87
			c-0.13-0.563-0.386-0.011-0.429-1.568c-0.421-0.013-0.214,0.001-0.348-0.107l-0.097-1.129c-0.546-0.012-0.359-0.341-0.412-0.858
			c-0.425-0.211-0.377-0.126-0.41-0.911h-0.362l-0.283-0.891c-0.324-0.317,0.175-0.387-0.512-0.436
			c-0.012-0.152-0.011-0.335-0.05-0.482c-0.138-0.515-0.07-0.156-0.298-0.428c-0.013-0.016-0.033-0.04-0.045-0.056L58.878,37.6
			c-0.228-0.499-0.043-0.086-0.313-0.418l-0.5-0.48l-0.088-0.705c-0.682-0.043-0.199-0.013-0.439-0.286l-0.656-0.706
			c-0.015-0.017-0.034-0.04-0.048-0.057c-0.21-0.24-0.105-0.223-0.435-0.337c-0.067-0.392,0.011-0.487-0.283-0.719
			c-0.148-0.117-0.08-0.064-0.197-0.218l-0.799-0.855c-0.021-0.022-0.077-0.09-0.098-0.112l-0.573-0.559
			c-0.016-0.012-0.043-0.027-0.06-0.04l-0.744-0.717c-0.351-0.328-0.303,0.257-0.331-0.499c-0.838-0.13-0.452,0.032-0.855-0.393
			l-1.411-1.3c-0.436-0.223-0.888-0.406-1.109-0.902l-0.723-0.109c-0.205-0.541-0.092-0.159-0.423-0.466
			c-0.016-0.016-0.039-0.036-0.053-0.052c-0.019-0.019-0.071-0.135-0.144-0.233l-0.701-0.081c-0.035-0.975-0.444,0.249-0.482-0.746
			c-0.757-0.035-0.793,0.072-0.817-0.423c-0.585-0.047-0.798,0.08-0.833-0.413c-0.424-0.056-0.86,0.087-0.892-0.45
			c-0.972-0.037-0.639,0.051-0.924-0.459c-1.615-0.046-0.327-0.207-2.009-0.47c-0.811-0.127-0.117-0.522-2.021-0.399l-0.62,0.823
			c-0.557,0.053-0.524,0.203-0.931,0.402c-0.13,0.063-0.358,0.083-0.466,0.143c-0.416,0.232,0.152,0.282-0.995,0.386l-0.039,0.344
			l-1.294,0.079c-0.005,0.481-0.013,0.229-0.097,0.337l-1.981,0.088l0,0.327c-0.779,0.014-7.311,0.217-7.867-0.044
			c-0.053-0.025-0.087-0.041-0.112-0.051c0.068,0.027,0.173,0.056-0.073-0.127c-0.016-0.012-0.037-0.036-0.055-0.047
			c-0.227-0.134-0.407-0.066-0.636-0.159c-0.227-0.093-0.125-0.062-0.229-0.291l-0.888-0.085c-0.608-0.213,0.14-0.33-1.488-0.444
			c-0.396-0.496,0.248-0.164-0.479-0.399l-0.485-0.248c-0.333-0.281-1.257-0.284-1.629-0.049c-0.287,0.182,0.146,0.237-1.284,0.373
			c-0.03,0.485-0.293,0.377-0.841,0.406c-0.017,0.505-0.259,0.397-0.839,0.414c-0.007,0.589-0.307,0.387-0.818,0.443
			c-0.034,0.947-0.446-0.208-0.488,0.727l-0.782,0.105c-0.331,0.589-0.502,0.083-0.546,0.752l-0.693,0.093l-0.746,0.757
			c-0.362,0.186-0.667,0.312-0.95,0.623c-0.117,0.129-0.022,0.048-0.127,0.164l-0.534,0.511c-0.022,0.021-0.091,0.078-0.113,0.1
			c-0.016,0.015-0.039,0.036-0.055,0.052l-0.101,0.109c-0.242,0.241-0.345,0.239-0.577,0.605l-0.618,0.116
			c-0.097,0.26-0.245,0.343-0.436,0.537l-1.088,1.116c-0.015,0.015-0.039,0.033-0.054,0.049c-0.319,0.324,0.018,0.291-0.539,0.43
			l-0.124,0.73c-0.409,0.16-0.77,0.697-1.092,1.008c-0.014,0.014-0.036,0.035-0.05,0.05c-0.015,0.016-0.034,0.04-0.048,0.055
			c-0.328,0.367,0.128,0.053-0.429,0.352c-0.04,0.44-0.09,0.552-0.314,0.82l-0.532,0.435l-0.089,0.717
			C3.994,37.664,4.463,37.91,3.95,38.24c-0.147,0.095-0.127,0.551-0.15,0.732l-0.352,0.001l-0.061,0.761l-0.366,0.084l-0.056,0.753
			l-0.604,0.578c-0.052,0.076-0.071,0.091-0.076,0.084c-0.009,0.027-0.02,0.059-0.037,0.107c-0.098,0.271,0.01,0.656-0.106,0.906
			c-0.379,0.371-0.318-0.117-0.42,0.763l-0.376,0.991c-0.079,0.247,0.004,0.216-0.149,0.479c-0.232,0.399-0.085-0.265-0.254,0.444
			c-0.08,0.336-0.083,0.962-0.089,1.329l-0.349,0.034c-0.005,0.395-0.013,1.644-0.086,1.911C0.252,48.797,0.08,48.28,0.072,49.77
			c-0.006,0.972-0.188,3.513,0.037,4.32c0.149,0.533,0.021,0.044,0.182,0.314c0.32,0.538,0.058,2.11,0.247,2.707
			c0.238,0.752,0.148-0.197,0.32,0.606c0.069,0.321,0.006,0.673,0.079,0.987c0.069,0.299,0.099,0.212,0.212,0.383
			c0.183,0.28,0.193,0.866,0.206,1.247c0.698,0.181,0.18,0.063,0.512,0.433c0.015,0.017,0.035,0.041,0.05,0.055
			c0.004,0.004,0.152,0.088,0.218,0.138l0.068,0.732c0.367,0.013,0.191-0.026,0.36,0.105l0.084,0.696
			c0.708,0.04,0.201,0.033,0.477,0.352l0.203,0.211c0.015,0.016,0.034,0.039,0.049,0.056l0.147,0.173
			c0.015,0.016,0.037,0.037,0.052,0.054l0.409,0.428c0.015,0.016,0.039,0.035,0.054,0.05l1.569,1.679l0.722,0.108
			c0.174,0.454,0.327,0.346,0.621,0.748l0.73,0.072c0.004,0.422,0.004,0.224,0.096,0.352l0.747,0.065l0.001,0.35l1.112,0.101
			c0.094,0.114,0.079-0.1,0.091,0.334c0.642,0.051,0.929-0.161,0.96,0.406c0.437,0.013,1.257,0.046,1.544,0.229l0.111,0.091
			c0.309,0.198,1.13,0.071,1.546,0.33L14,68.772c0.141,0.089-0.159,0.031,0.291,0.131c0.058,0.013,0.314,0.027,0.389,0.032
			c0.399,0.026,1.189,0.048,1.445,0.204c0.13,0.08,0.198,0.125,0.241,0.158c0.001,0,0.001,0,0.001,0
			c0.596,0.233,1.343-0.005,1.956,0.118c0.84,0.169-0.115,0.077,0.547,0.269c0.533,0.155,2.535,0.128,3.251,0.131
			c0.005,0.472-0.098,0.377,0.521,0.368l7.249,0.032c2.756,0.005,5.511,0.001,8.267-0.018c0.782-0.005,2.166,0.144,2.827-0.206
			c1.005-0.533,1.921,0.17,3.151-0.464c0.578-0.299,2.665-0.084,3.415-0.241c0.841-0.177-0.669-0.182,1.747-0.356l0.739-0.238
			c0.337-0.226,0.929-0.164,1.217-0.347c0.262-0.169-0.2-0.028,0.306-0.194c0.174-0.058,0.72-0.081,0.988-0.086l0.032-0.363
			l1.208-0.076l0.03-0.346c0.306-0.011,0.914-0.017,1.114-0.128c0.221-0.123,0.101-0.333,0.896-0.386L55.91,66.4l0.745-0.059
			l0.237-0.33c0.105-0.092,0.061-0.034,0.189-0.141l0.438-0.396c0.016-0.016,0.038-0.038,0.053-0.053
			c0.257-0.25,0.546-0.242,0.823-0.503l0.519-0.528c0.015-0.015,0.035-0.038,0.05-0.052l0.999-0.958
			c0.015-0.016,0.038-0.036,0.053-0.052l0.401-0.436c0.015-0.016,0.035-0.039,0.049-0.056c0.036-0.041,0.135-0.179,0.138-0.182
			c0.185-0.179-0.331-0.142,0.346-0.167l0.082-0.8l0.353-0.003c0.042-0.423-0.147-0.805,0.416-0.826l0.081-0.838l0.349-0.091
			c0.019-0.58-0.117-0.836,0.385-0.879c0.012-0.443,0.065-0.886,0.085-1.335c0.008-0.197,0.009-0.396,0.036-0.591
			c0.113-0.811,0.329,0.024,0.409-1.624c0.05-1.026-0.166-1.061,0.328-1.114C63.477,53.653,63.693,49.939,63.394,49.329z
			 M37.28,52.086c-0.025,0.028-0.055,0.065-0.102,0.127c-0.29,0.386-0.24,0.991-0.536,1.361c-0.552,0.688-0.519,0.145-0.689,1.165
			l-0.688,0.117l-0.401,0.483c-0.016,0.014-0.038,0.035-0.054,0.049c-0.016,0.014-0.036,0.037-0.052,0.051l-0.526,0.63
			c-0.185,0.005-0.454,0.004-0.632,0.027c-0.77,0.097-0.195,0.402-1.4,0.423c-0.001,0.61-0.002,1.219-0.002,1.829
			c0.002,1.749,0.468,1.875-3.32,1.618l-0.096-3.326c-0.603-0.071-1.019-0.243-1.654-0.129c-1.232,0.17-0.97-0.286-1.772-0.386
			c-0.179-0.021-0.446-0.026-0.631-0.036c-0.527-0.597-0.297-0.114-0.85-0.543c-0.23-0.18-0.026-0.071-0.144-0.163
			c-0.139-0.107,0.243-0.107-0.395-0.127c0.004-0.331-0.029-0.849,0.105-1.138c0.014-0.031,0.276-0.239,0.325-0.8
			c0.18-2.051,0.381-0.19,0.468-1.854c0.891-0.008,0.536-0.002,0.874,0.229l0.657,0.275c0.32,0.207-0.146,0.133,0.451,0.278
			c0.196,0.047,0.29,0.018,0.474,0.049c0.76,0.129,0.085,0.151,0.682,0.345c0.693,0.226,3.389,0.065,4.276,0.007l0.493-0.492
			c0.158-0.142,0.015-0.032,0.147-0.168c0.015-0.015,0.034-0.042,0.049-0.056l0.307-0.169l-0.025-1.987l-0.653-0.536
			c-0.015-0.013-0.045-0.028-0.058-0.041c-0.138-0.141-0.129-0.038-0.136-0.339l-0.744-0.082c-0.529-1.034-0.948-0.504-1.625-0.903
			c-0.019-0.012-0.041-0.033-0.059-0.044c-0.63-0.438-0.758-0.144-1.209-0.316c-0.123-0.097-0.199-0.24-0.2-0.24l-1.55-0.747
			c-0.018-0.012-0.04-0.034-0.058-0.048l-1.622-1.601c-0.332-0.379,0.196-0.305-0.483-0.349l-0.099-1.131l-0.403-0.209l0.077-3.768
			c0.74-0.079,0.047-0.197,0.544-0.805l0.205-0.208c0.015-0.017,0.033-0.042,0.048-0.059l0.568-0.668
			c0.4-0.429,0.898-0.76,1.217-1.239l0.74-0.065l0.086-0.356l1.227-0.095c0.021-0.697-0.046-0.107,0.381-0.476l0.043-2.938
			l3.344,0.025l0.026,2.971c1.468,0.062,1.427-0.15,1.799,0.399l1.446,0.103c0.109,0.131,0.108-0.209,0.112,0.34l0.818,0.085
			c0.241,0.44,0.385,0.206,0.405,0.796c-0.526,0.06-0.359,0.589-0.418,1.348l-0.323,0.113l-0.107,1.541l-1.228,0.007v-0.363
			c-1.407-0.032-0.454-0.262-1.126-0.411c-1.154-0.257-3.162-0.053-4.336-0.026c-0.023,0.695,0.038,0.137-0.328,0.493
			c-0.221,0.215-0.144,0.302-0.526,0.32l0.026,1.696c0.662,0.031,0.172-0.027,0.502,0.325c0.154,0.165,0.082,0.072,0.221,0.207
			l0.719,0.407c0.544,0.252-0.139,0.319,1.037,0.417l0.11,0.354l0.756,0.053l0.07,0.359c1.651,0.099,0.858,0.459,2.043,0.519
			l0.001,0.355l0.747,0.072l1.279,1.365c0.016,0.016,0.037,0.039,0.053,0.055l0.792,1.098c0.186,0.303,0.102,0.362,0.208,0.635
			c0.104,0.264,0.258,0.156,0.329,0.459l-0.02,3.45C37.282,52.079,37.282,52.08,37.28,52.086
			C37.476,51.864,37.073,52.565,37.28,52.086z"/>
	</g>
</g>
</svg>
