<?xml version="1.0" encoding="utf-8"?>
<!-- Generator: Adobe Illustrator 17.1.0, SVG Export Plug-In . SVG Version: 6.00 Build 0)  -->
<!DOCTYPE svg PUBLIC "-//W3C//DTD SVG 1.1//EN" "http://www.w3.org/Graphics/SVG/1.1/DTD/svg11.dtd">
<svg version="1.1"
	 id="svg2" xmlns:dc="http://purl.org/dc/elements/1.1/" xmlns:svg="http://www.w3.org/2000/svg" xmlns:cc="http://creativecommons.org/ns#" xmlns:rdf="http://www.w3.org/1999/02/22-rdf-syntax-ns#"
	 xmlns="http://www.w3.org/2000/svg" xmlns:xlink="http://www.w3.org/1999/xlink" x="0px" y="0px" viewBox="0 0 612 792"
	 enable-background="new 0 0 612 792" xml:space="preserve">
<g id="g10" transform="matrix(1.25,0,0,-1.25,-74.19125,149.0417)">
	<g id="g4163" transform="matrix(0.6384875,0,0,0.6384875,24.348951,24.07854)">
		<g id="g12" transform="translate(143.448,67.609)">
			<path id="path14" fill="#2B3894" d="M171.6-528.1l37,229.5H268l-37-229.5H171.6"/>
		</g>
		<g id="g16" transform="translate(224.353,133.66)">
			<path id="path18" fill="#2B3894" d="M364.5-370.3c-11.6,4.6-30,9.8-52.9,9.8c-58.4,0-99.8-31.2-100.1-75.9
				c-0.3-33,29.4-51.4,52-62.4c22.9-11.3,30.9-18.4,30.6-28.5c-0.3-15.3-18.4-22.3-35.5-22.3c-23.9,0-36.4,3.4-55.7,11.9l-7.6,3.7
				l-8.3-51.4c13.8-6.4,39.5-11.9,66.1-12.2c62.1,0,102.8,30.9,103.1,78.3c0.3,26-15.6,45.9-49.9,62.4
				c-20.7,10.7-33.3,17.7-33.3,28.4c0,9.5,10.7,19.9,34,19.9c19.3,0.3,33.4-4.3,44.4-8.9l5.2-2.8L364.5-370.3"/>
		</g>
		<g id="g20" transform="translate(247.634,91.616)">
			<path id="path22" fill="#2B3894" d="M420.1-470.7c4.9,13.2,23.6,64.3,23.6,64.3c-0.3-0.6,4.9,13.2,8,22l4-19.9
				c0,0,11.3-54.8,13.8-66.1C460.2-470.7,431.8-470.7,420.1-470.7z M493.3-322.9h-45.9c-14.1,0-24.8-4-30.9-19l-88.1-210.2h62.1
				c0,0,10.1,28.2,12.5,34.6c6.7,0,67.3,0,75.9,0c1.8-8,7.3-34.3,7.3-34.3h55.1L493.3-322.9"/>
		</g>
		<g id="g24" transform="translate(128.78,135.265)">
			<path id="path26" fill="#2B3894" d="M136.4-366.4L78.6-522.8L72.5-491c-11,36.7-44.7,76.2-82.3,96.1l52.9-200.7h62.7l93.3,229.2
				L136.4-366.4"/>
		</g>
		<g id="g28" transform="translate(95.781,135.311)">
			<path id="path30" fill="#F79510" d="M57.4-366.3H-38l-0.9-4.9c74.7-19,123.6-64.6,144.1-120L84.4-385.6
				C80.7-371.2,70.3-366.9,57.4-366.3"/>
		</g>
		<g id="g32" transform="translate(288.329,72.034)">
			<path id="path34" fill="#2B3894" d="M517.4-517.5h2.8c1.8,0,2.4,1.2,2.4,2.1c0,1.5-0.9,1.8-2.8,1.8h-2.4V-517.5z M515-511.6h5.8
				c1.2,0,4.3-0.3,4.3-3.7c0-0.9-0.3-2.1-2.1-3.1l0,0c1.5-0.3,1.8-1.8,1.8-3.1c0-2.1,0-2.4,0.6-3.1H523c-0.6,0.6-0.3,0.9-0.6,3.1
				c0,1.2,0,2.4-2.8,2.4h-2.1v-5.5H515V-511.6z M519.9-529.4c5.8,0,10.7,4.9,10.7,11s-4.6,11-10.7,11c-5.8,0-10.7-4.9-10.7-11
				C509.2-524.2,513.8-529.4,519.9-529.4z M519.9-505.2c7.3,0,13.2-5.8,13.2-12.9c0-7.3-5.8-13.2-13.2-13.2s-13.2,5.8-13.2,13.2
				C506.7-511,512.5-505.2,519.9-505.2"/>
		</g>
	</g>
</g>
</svg>
