<?xml version="1.0" encoding="iso-8859-1"?>
<!-- Generator: Adobe Illustrator 17.1.0, SVG Export Plug-In . SVG Version: 6.00 Build 0)  -->
<!DOCTYPE svg PUBLIC "-//W3C//DTD SVG 1.1//EN" "http://www.w3.org/Graphics/SVG/1.1/DTD/svg11.dtd">
<svg version="1.1" id="circle_copy_6_1_" xmlns="http://www.w3.org/2000/svg" xmlns:xlink="http://www.w3.org/1999/xlink" x="0px"
	 y="0px" viewBox="0 0 44 44" style="enable-background:new 0 0 44 44;" xml:space="preserve">
<g id="circle_copy_6">
	<g>
		<path style="fill:#565A5C;" d="M29.773,16.222c-0.539-0.131-1.781-0.136-2.373-0.143c-0.234-0.003-0.341-0.041-0.796-0.041
			l-2.508-0.04h-4.293c-0.375,0.007-0.666,0.018-0.805,0.034c-0.332,0.04-0.898-0.014-1.249,0.006
			c-0.169,0.009-0.182,0.039-0.378,0.041c-0.483,0.006-1.498,0.017-1.969,0.089c-0.288,0.043-0.674,0.202-0.92,0.351
			c-1.008,0.615-1.42,1.611-1.407,2.881c0.003,0.316-0.039,0.499-0.038,0.841C13.039,20.82,13,21.336,13,21.954v2.435
			c0.001,0.52,0.021,1.723,0.07,2.183c0.017,0.157-0.002,0.318,0.006,0.475c0.06,1.214,0.825,2.29,1.913,2.669
			c0.624,0.216,2.526,0.184,3.295,0.251c0.55,0.049,1.213-0.041,1.718,0.031l5.294-0.005c0.555-0.089,1.185,0.049,1.748-0.04
			c0.263-0.042,0.572-0.022,0.853-0.022c0.209,0,0.244-0.032,0.416-0.041c0.146-0.01,0.31,0.003,0.458,0.002l0.846-0.07
			c1.495-0.311,2.322-1.571,2.307-3.215c-0.003-0.357,0.039-0.555,0.038-0.921C31.961,25.049,32,24.486,32,23.815v-1.983
			c0-0.679-0.046-2.84-0.141-3.365C31.657,17.351,30.797,16.47,29.773,16.222z M22.968,24.379c-0.227,0.117-0.4,0.23-0.62,0.346
			c-0.101,0.054-0.205,0.105-0.305,0.16l-1.596,0.88v-5.525l0.633,0.334c0.23,0.121,0.409,0.238,0.62,0.348l1.875,1.027
			c0.117,0.062,0.188,0.097,0.305,0.159c0.286,0.154,1.411,0.813,1.583,0.855C25.351,23.126,23.171,24.272,22.968,24.379z M22,0
			C9.869,0,0,9.869,0,22s9.869,22,22,22s22-9.869,22-22S34.131,0,22,0z M22,43.24C10.84,43.24,0.76,33.16,0.76,22
			S10.84,0.76,22,0.76S43.24,10.84,43.24,22S33.16,43.24,22,43.24z"/>
	</g>
</g>
</svg>
