<svg xmlns="http://www.w3.org/2000/svg" id="arrow_right_1_" enable-background="new 0 0 16 46" viewBox="0 0 16 46" x="0px" y="0px" version="1.1" xmlns:xml="http://www.w3.org/XML/1998/namespace" xml:space="preserve">
<g id="arrow_right" transform="matrix(-1 -0 0 1 16.4331 0.165897)">
	<g>
		<path fill="#ffffff" d="M 15.9 23.5 c -0.1 -0.4 -0.2 -0.8 -0.3 -1 c -0.1 -0.2 -0.1 -0.5 -0.2 -0.6 L 2.2 0.3 C 1.8 -0.3 1.3 0.1 1.1 1.2 C 0.8 2.4 1 3.9 1.4 4.6 l 12 19.7 l -12.2 17 c -0.4 0.6 -0.6 2.1 -0.4 3.3 C 1 45.8 1.5 46.3 2 45.7 l 13.6 -19 C 15.9 26.2 16.1 24.7 15.9 23.5 Z" />
	</g>
</g>
</svg>