<?xml version="1.0" encoding="utf-8"?>
<!-- Generator: Adobe Illustrator 17.1.0, SVG Export Plug-In . SVG Version: 6.00 Build 0)  -->
<!DOCTYPE svg PUBLIC "-//W3C//DTD SVG 1.1//EN" "http://www.w3.org/Graphics/SVG/1.1/DTD/svg11.dtd">
<svg version="1.1" id="Capa_1" xmlns="http://www.w3.org/2000/svg" xmlns:xlink="http://www.w3.org/1999/xlink" x="0px" y="0px"
	 viewBox="-28.1 -61.2 130.1 92.9" enable-background="new -28.1 -61.2 130.1 92.9" xml:space="preserve">
<g>
	<g>
		<path fill="#999999" d="M14.1,8c0.1,0,0.1,0,0.2,0l1.8-0.4c0.2,0.1,0.5,0.2,0.7,0.3c1.7,0.5,3.4-0.5,3.9-2.2
			c0.5-1.7-0.5-3.4-2.2-3.9C16.8,1.3,15,2.3,14.6,4c-0.2,0.6-0.1,1.2,0.1,1.8l-0.7,1.7c-0.1,0.1,0,0.3,0.1,0.4C14,7.9,14.1,8,14.1,8
			z M15.3,5.7c-0.2-0.5-0.2-1-0.1-1.5c0.4-1.3,1.7-2.1,3-1.7c1.3,0.4,2.1,1.7,1.7,3c-0.4,1.3-1.7,2.1-3,1.7
			c-0.2-0.1-0.4-0.1-0.6-0.3c-0.1-0.1-0.2-0.1-0.3,0l-1.2,0.3L15.3,6C15.4,5.9,15.4,5.8,15.3,5.7z"/>
		<path fill="#999999" d="M16.5,4.5l2.3,0.1c0.2,0,0.4-0.2,0.4-0.3c0-0.2-0.1-0.4-0.3-0.4l-2.3-0.1c-0.2,0-0.4,0.2-0.4,0.4
			C16.2,4.3,16.3,4.5,16.5,4.5z"/>
		<path fill="#999999" d="M16.5,5.7l2.3,0.1c0.2,0,0.4-0.1,0.4-0.3c0-0.2-0.1-0.4-0.3-0.4L16.5,5c-0.2,0-0.4,0.1-0.4,0.3
			C16.1,5.5,16.3,5.7,16.5,5.7z"/>
		<circle fill="#999999" cx="9.1" cy="5.4" r="2.8"/>
		<path fill="#999999" d="M14.4,21.5c0-2.1-1.6-3.1-2.7-3.2l-0.2,0c-0.6,0-1.3,0-2.1,0c-0.1-1.6-0.2-4-0.2-4.2
			c0.4,0.2,0.8,0.3,1.3,0.4c1.1,0.2,2.3,0,3.5-0.5c0.6-0.3,2.5-1.7,2.9-2c0.5-0.4,0.6-0.8,0.6-1.2c0-0.6-0.4-1.2-0.4-1.2
			c-0.6-0.9-1.7-0.7-2.4-0.1c-1,0.9-2.4,2-3.6,1.8c-0.5-0.1-1-0.4-1.3-0.7C9.7,9.7,9.2,8.9,8.3,8.5c-1.4-0.6-2.8,0-3.6,1.3
			c-1.1,1.8-1.1,6.4-0.8,9.8c0.2,1,0.2,1.8,1.5,1.8c0.5,0,4.6,0,5.9,0c0,0,0,0.1,0,0.1c0,1.2,0,5.5,0,7.5c0,0.6,0.5,1.1,1,1.1h1
			c0.3,0,0.5-0.1,0.7-0.3s0.3-0.5,0.3-0.7C14.4,27,14.3,22.7,14.4,21.5z"/>
		<path fill="#999999" d="M3.1,8.5C3.1,7.7,2.4,7,1.5,7C0.7,7,0,7.7,0,8.5v15.4c0,0.8,0.6,1.4,1.4,1.5c0,0,0,0,0,0H2V29
			c0,0.6,0.4,1,1,1c0.6,0,1-0.5,1-1v-3.6h3.2V29c0,0.6,0.4,1,1,1c0.6,0,1-0.5,1-1v-3.6h0.9v-3.1H3.1V8.5z"/>
		<path fill="#999999" d="M30.8,18.7c-0.2-1.2-1-2.2-2.1-2.8v-1h1.5V8.2l-5.6-2V5.3h-2v10.2h2v-0.5h1.1v0.7c-1.3,0.4-2.4,1.7-2.7,3
			h-6.5c-0.6,0-1,0.5-1,1.1c0,0.6,0.5,1.1,1,1.1h2.1v9.2h11.3v-9.2h1c0.6,0,1-0.5,1-1C31.8,19.2,31.3,18.8,30.8,18.7z"/>
	</g>
</g>
<g>
	<g>
		<path fill="#999999" d="M55,6.7c0.1-0.1,0.1-0.3,0.1-0.5L54.1,4c0.3-0.8,0.3-1.7,0.1-2.5c-0.6-2.3-2.9-3.6-5.2-3
			c-2.3,0.6-3.6,2.9-3,5.2c0.6,2.3,2.9,3.6,5.2,3c0.3-0.1,0.6-0.2,0.9-0.4l2.4,0.5c0.1,0,0.2,0,0.2,0C54.9,6.9,54.9,6.8,55,6.7z
			 M53.2,4.2l0.7,1.5l-1.6-0.4c-0.1,0-0.2,0-0.4,0.1c-0.3,0.2-0.6,0.3-0.8,0.4c-1.7,0.5-3.6-0.5-4-2.3c-0.5-1.7,0.6-3.6,2.3-4
			c1.7-0.5,3.6,0.6,4,2.3c0.2,0.7,0.1,1.4-0.1,2C53.1,4,53.1,4.1,53.2,4.2z"/>
		<path fill="#999999" d="M52.1,1.7c0-0.3-0.2-0.5-0.5-0.5l-3,0.1c-0.3,0-0.5,0.2-0.5,0.5c0,0.3,0.2,0.5,0.5,0.5l3-0.1
			C51.9,2.2,52.1,2,52.1,1.7z"/>
		<path fill="#999999" d="M52.1,3.3c0-0.3-0.2-0.5-0.5-0.4l-3,0.1c-0.3,0-0.5,0.2-0.5,0.5c0,0.3,0.2,0.5,0.5,0.4l3-0.1
			C51.9,3.8,52.1,3.6,52.1,3.3z"/>
		<circle fill="#999999" cx="59.4" cy="5.4" r="2.8"/>
		<path fill="#999999" d="M51.9,18.1c1.2-0.1,1.5-0.7,2.2-0.9c1.6-0.7,1.3-0.8,2.4-1.3c1.2-0.7,2.6-1.5,2.7-1.7
			c0,0.2-0.1,2.6-0.2,4.2c-0.7,0-1.4,0-2.1,0l-0.2,0c-1.1,0.1-2.7,1.1-2.7,3.2c0,1.2,0,5.5,0,7.5c0,0.3,0.1,0.5,0.3,0.7
			s0.5,0.3,0.7,0.3h1c0.6,0,1-0.5,1-1.1c0-2,0-6.3,0-7.5c0-0.1,0-0.1,0-0.1c1.3,0,5.4,0,5.9,0c1.3,0,1.3-0.8,1.5-1.8
			c0.4-3.4,0.3-8.1-0.8-9.8c-0.8-1.3-2.3-1.9-3.6-1.3c-0.9,0.4-1.4,1.2-1.5,2.1c-0.3,0.3-1.7,1.6-2.4,2c-1.1,0.7-3.2,1.9-4.3,2.4"/>
		<path fill="#999999" d="M65.4,22.3h-7.1v3.1h0.9V29c0,0.6,0.4,1,1,1c0.6,0,1-0.5,1-1v-3.6h3.2V29c0,0.6,0.4,1,1,1c0.6,0,1-0.5,1-1
			v-3.6h0.6c0,0,0,0,0,0c0.8-0.1,1.4-0.7,1.4-1.5V8.5C68.5,7.7,67.8,7,67,7c-0.8,0-1.5,0.7-1.5,1.5V22.3z"/>
		<path fill="#999999" d="M36.7,19.8c0,0.6,0.5,1,1,1h1v9.2H50v-9.2h2.1c0.6,0,1-0.5,1-1.1c0-0.6-0.5-1.1-1-1.1h-6.5
			c-0.3-1.3-1.3-2.6-2.7-3v-0.7H44v0.5h2V5.3h-2v0.9l-5.6,2v6.7h1.5v1c-1.1,0.6-1.8,1.6-2.1,2.8C37.2,18.8,36.7,19.2,36.7,19.8z"/>
	</g>
</g>
<g>
	<g>
		<path fill="#FF7977" d="M8.6-7.4l0.7-0.7l2.9,2.9l-0.7,0.7l2.9,2.9L6.4-2.2l-0.7-8.1L8.6-7.4z M13-5.9l0.7-0.7l-2.9-2.9l-0.7,0.7
			L13-5.9z M14.5-7.4l0.7-0.7l-2.9-2.9l-0.7,0.7L14.5-7.4z M16-8.9l0.7-0.7l-2.9-2.9L13-11.8L16-8.9z M16-14.7l2.9,2.9l0.7-0.7
			l-2.9-2.9L16-14.7z M17.5-10.3l0.7-0.7L15.2-14l-0.7,0.7L17.5-10.3z"/>
	</g>
	<g>
		<path fill="#FF7977" d="M13.8-18.5l8.1,0.7l0.7,8.1l-2.9-2.9l-0.7,0.7L16-14.8l0.7-0.7L13.8-18.5z M15.2-14.1l-0.7,0.7l2.9,2.9
			l0.7-0.7L15.2-14.1z M13.8-12.6L13-11.8L16-8.9l0.7-0.7L13.8-12.6z M12.3-11.1l-0.7,0.7l2.9,2.9l0.7-0.7L12.3-11.1z M8.6-7.4
			l2.9,2.9l0.7-0.7L9.3-8.2L8.6-7.4z M10.8-9.6l-0.7,0.7L13-6l0.7-0.7L10.8-9.6z"/>
	</g>
</g>
<g>
	<g>
		<path fill="#FF7977" d="M62.9-10.3l-0.7,8.1l-8.1,0.7L57-4.4l-0.7-0.7l2.9-2.9L60-7.4L62.9-10.3z M58.5-8.9l-0.7-0.7l-2.9,2.9
			l0.7,0.7L58.5-8.9z M57-10.3l-0.7-0.7l-2.9,2.9l0.7,0.7L57-10.3z M55.5-11.8l-0.7-0.7l-2.9,2.9l0.7,0.7L55.5-11.8z M51.9-15.5
			l-2.9,2.9l0.7,0.7l2.9-2.9L51.9-15.5z M54.1-13.3L53.3-14l-2.9,2.9l0.7,0.7L54.1-13.3z"/>
	</g>
	<g>
		<path fill="#FF7977" d="M51.9-15.5l0.7,0.7l-2.9,2.9l-0.7-0.7L46-9.6l0.7-8.1l8.1-0.7L51.9-15.5z M50.4-11.1l0.7,0.7l2.9-2.9
			l-0.7-0.7L50.4-11.1z M51.9-9.6l0.7,0.7l2.9-2.9l-0.7-0.7L51.9-9.6z M53.3-8.2l0.7,0.7l2.9-2.9l-0.7-0.7L53.3-8.2z M59.2-8.2
			l-2.9,2.9L57-4.5L60-7.4L59.2-8.2z M54.8-6.7L55.5-6l2.9-2.9l-0.7-0.7L54.8-6.7z"/>
	</g>
</g>
<g>
	<g>
		<g>
			<path fill="#FEFEFE" d="M21.5-39l-0.5-1.1L21.5-39z"/>
			<polygon fill="#ECABCC" points="20.7,-40 21.1,-40.2 21.6,-39.1 21.3,-39 			"/>
		</g>
		<g>
			<path fill="#FEFEFE" d="M25.4-39l-3-2.2L25.4-39z"/>
			<polygon fill="#3BC2D8" points="22.2,-40.9 22.7,-41.6 25.7,-39.4 25.2,-38.7 			"/>
		</g>
		<g>
			<path fill="#FEFEFE" d="M24.9-41.6l-1.8,2.4L24.9-41.6z"/>
			<polygon fill="#ECABCC" points="23,-39.4 24.8,-41.8 25.1,-41.5 23.3,-39.1 			"/>
		</g>
		<g>
			<path fill="#FEFEFE" d="M27.4-39.9l-0.5-1.5L27.4-39.9z"/>
			<polygon fill="#DBB24C" points="26.6,-41.3 27.3,-41.5 27.7,-40 27,-39.7 			"/>
		</g>
		<g>
			<path fill="#FEFEFE" d="M21.8-46.4l-0.7,1.2L21.8-46.4z"/>
			<polygon fill="#81476E" points="20.9,-45.3 21.6,-46.5 22.1,-46.3 21.4,-45.1 			"/>
		</g>
		<g>
			<path fill="#FEFEFE" d="M24.7-46l0.7,1L24.7-46z"/>
			<polygon fill="#81476E" points="24.5,-45.8 24.9,-46.2 25.6,-45.2 25.2,-44.9 			"/>
		</g>
		<g>
			<path fill="#FEFEFE" d="M27.7-46l-0.6,1.2L27.7-46z"/>
			<polygon fill="#EB9437" points="26.8,-44.9 27.5,-46.1 27.9,-45.9 27.3,-44.7 			"/>
		</g>
		<g>
			<path fill="#FEFEFE" d="M30.9-46.8l0.7,0.8L30.9-46.8z"/>
			<polygon fill="#4BB356" points="30.6,-46.6 31.1,-47 31.9,-46.2 31.3,-45.7 			"/>
		</g>
		<g>
			<path fill="#FEFEFE" d="M30.8-40l-1.1,1.5L30.8-40z"/>
			<polygon fill="#C2353A" points="29.3,-38.8 30.4,-40.3 31.1,-39.7 30,-38.3 			"/>
		</g>
		<g>
			<path fill="#C2353A" d="M29.2-42.7c0-2.4,1.9-4.3,4.3-4.3c2.4,0,4.3,1.9,4.3,4.3c0,2.4-1.9,4.3-4.3,4.3
				C31.2-38.3,29.2-40.3,29.2-42.7z M37-42.7L37-42.7c0-1.9-1.5-3.4-3.4-3.4c-1.9,0-3.4,1.5-3.4,3.4c0,1.9,1.5,3.4,3.4,3.4
				C35.4-39.3,37-40.8,37-42.7z"/>
		</g>
		<g>
			<path fill="#4BB356" d="M25.9-48.3c0-1.6,1.3-2.9,2.9-2.9c1.6,0,2.9,1.3,2.9,2.9c0,1.6-1.3,2.9-2.9,2.9
				C27.2-45.4,25.9-46.7,25.9-48.3z M31-48.3L31-48.3c0-1.2-1-2.2-2.2-2.2c-1.2,0-2.2,1-2.2,2.2c0,1.2,1,2.2,2.2,2.2
				C30-46.1,31-47.1,31-48.3z"/>
		</g>
		<g>
			<path fill="#EB9437" d="M23.9-43.1c0-1.2,1-2.2,2.2-2.2s2.2,1,2.2,2.2c0,1.2-1,2.2-2.2,2.2S23.9-41.9,23.9-43.1z M27.7-43.1
				L27.7-43.1c0-0.9-0.7-1.6-1.6-1.6s-1.6,0.7-1.6,1.6c0,0.9,0.7,1.6,1.6,1.6S27.7-42.2,27.7-43.1z"/>
		</g>
		<g>
			<path fill="#ECABCC" d="M21-38.3c0-0.7,0.6-1.4,1.4-1.4c0.7,0,1.4,0.6,1.4,1.4c0,0.7-0.6,1.4-1.4,1.4C21.7-37,21-37.6,21-38.3z
				 M23.4-38.3L23.4-38.3c0-0.5-0.4-1-1-1c-0.5,0-1,0.4-1,1c0,0.5,0.4,1,1,1C23-37.3,23.4-37.8,23.4-38.3z"/>
		</g>
		<g>
			<path fill="#DBB24C" d="M24.3-37.2c0-1.7,1.4-3.1,3.1-3.1c1.7,0,3.1,1.4,3.1,3.1c0,1.7-1.4,3.1-3.1,3.1
				C25.7-34.1,24.3-35.5,24.3-37.2z M29.7-37.2L29.7-37.2c0-1.3-1-2.3-2.3-2.3c-1.3,0-2.3,1-2.3,2.3c0,1.3,1,2.3,2.3,2.3
				C28.7-34.8,29.7-35.9,29.7-37.2z"/>
		</g>
		<g>
			<path fill="#81476E" d="M21.2-47.6c0-1.2,1-2.3,2.3-2.3s2.3,1,2.3,2.3s-1,2.3-2.3,2.3S21.2-46.3,21.2-47.6z M25.2-47.6L25.2-47.6
				c0-0.9-0.8-1.7-1.7-1.7c-0.9,0-1.7,0.8-1.7,1.7c0,0.9,0.8,1.7,1.7,1.7C24.4-45.8,25.2-46.6,25.2-47.6z"/>
		</g>
		<g>
			<path fill="#3BC2D8" d="M17-42.7c0-1.7,1.4-3.2,3.2-3.2c1.7,0,3.1,1.4,3.1,3.2c0,1.7-1.4,3.1-3.1,3.1C18.4-39.6,17-41,17-42.7z
				 M22.4-42.7L22.4-42.7c0-1.2-1-2.2-2.2-2.2c-1.2,0-2.2,1-2.2,2.2c0,1.2,1,2.2,2.2,2.2C21.4-40.5,22.4-41.5,22.4-42.7z"/>
		</g>
	</g>
	<polygon fill="#727272" points="34.4,-33.6 28.9,-30.6 28.9,-32.9 26.3,-32.9 26.3,-29.2 25.7,-28.9 25.7,-18.8 27,-18.8 27,-28.1 
		34.4,-32.1 41.9,-28.1 41.9,-18.8 43.1,-18.8 43.1,-28.9 	"/>
	<polygon fill="#727272" points="32.7,-18.8 36.1,-18.8 36.1,-24.1 32.7,-24.1 	"/>
	<rect x="26.5" y="-29" fill="#727272" width="15.7" height="1.3"/>
</g>
</svg>
