<?xml version="1.0" encoding="utf-8"?>
<!-- Generator: Adobe Illustrator 17.1.0, SVG Export Plug-In . SVG Version: 6.00 Build 0)  -->
<!DOCTYPE svg PUBLIC "-//W3C//DTD SVG 1.1//EN" "http://www.w3.org/Graphics/SVG/1.1/DTD/svg11.dtd">
<svg version="1.1" id="Layer_1" xmlns="http://www.w3.org/2000/svg" xmlns:xlink="http://www.w3.org/1999/xlink" x="0px" y="0px"
	 viewBox="0 0 295.9 295.9" enable-background="new 0 0 295.9 295.9" xml:space="preserve">
<circle fill="none" stroke="#7D7D7D" stroke-width="7.9999" stroke-miterlimit="2.6131" cx="147" cy="149" r="143"/>
<path fill-rule="evenodd" clip-rule="evenodd" fill="#7D7D7D" stroke="#7D7D7D" stroke-miterlimit="10" d="M147,6
	c79,0,143,64,143,143s-64,143-143,143S4,227.9,4,149S68,6,147,6"/>
<path fill-rule="evenodd" clip-rule="evenodd" fill="#FFFFFF" d="M147,167c49.1,0,92.4,24.8,118.1,62.5
	c-25.7,37.7-69,62.5-118.1,62.5c-49.1,0-92.4-24.8-118.1-62.5C54.6,191.8,97.9,167,147,167"/>
<path fill-rule="evenodd" clip-rule="evenodd" fill="#FFFFFF" d="M147,34.9c31.5,0,57,25.5,57,57s-25.5,57-57,57
	c-31.5,0-57-25.5-57-57S115.4,34.9,147,34.9"/>
</svg>
