<?xml version="1.0" encoding="utf-8"?>
<!-- Generator: Adobe Illustrator 17.1.0, SVG Export Plug-In . SVG Version: 6.00 Build 0)  -->
<!DOCTYPE svg PUBLIC "-//W3C//DTD SVG 1.1//EN" "http://www.w3.org/Graphics/SVG/1.1/DTD/svg11.dtd">
<svg version="1.1" xmlns="http://www.w3.org/2000/svg" xmlns:xlink="http://www.w3.org/1999/xlink" x="0px" y="0px"
	 viewBox="0 0 42 42" enable-background="new 0 0 42 42" xml:space="preserve">
<g id="Ellipse_2_1_" enable-background="new    ">
	<g id="Ellipse_2">
		<g>
			<circle fill-rule="evenodd" clip-rule="evenodd" fill="#7D7D7D" cx="21" cy="21" r="21"/>
		</g>
	</g>
</g>
<g id="F_1_" enable-background="new    ">
	<g id="F">
		<g>
			<path fill-rule="evenodd" clip-rule="evenodd" fill="#FFFFFF" d="M21.7,18.2C21.6,18.2,21.7,18.2,21.7,18.2
				c-0.1-0.6-0.1-2.6,0-3.1c0.2-1,1.3-0.8,2.2-0.8c0.2,0,0.5,0,0.7,0c0.3,0,0.3,0.1,0.3-0.9c0-0.2,0-0.2,0-0.4c0-0.2,0-0.6,0-0.8
				c0-0.2,0-0.5,0-0.8c0-0.4,0.1-0.4-0.4-0.4c-1.5-0.1-3.1-0.3-4.5,0.6c-0.4,0.3-0.8,0.6-1.1,1c-0.4,0.6-0.8,1.6-0.8,2.5v3H16v3.4
				h2.3V31h3.3v-9.4h3.2l0-0.8c0-0.1,0-0.3,0-0.4l0.1-1.3c0-0.1,0-0.3,0-0.4c0-0.1,0-0.3,0-0.4H21.7z"/>
		</g>
	</g>
</g>
</svg>
