<?xml version="1.0" encoding="utf-8"?>
<!-- Generator: Adobe Illustrator 17.1.0, SVG Export Plug-In . SVG Version: 6.00 Build 0)  -->
<!DOCTYPE svg PUBLIC "-//W3C//DTD SVG 1.1//EN" "http://www.w3.org/Graphics/SVG/1.1/DTD/svg11.dtd">
<svg version="1.1" xmlns="http://www.w3.org/2000/svg" xmlns:xlink="http://www.w3.org/1999/xlink" x="0px" y="0px"
	 viewBox="0 0 42 42" enable-background="new 0 0 42 42" xml:space="preserve">
<g id="Ellipse_2_1_" enable-background="new    ">
	<g id="Ellipse_2">
		<g>
			<circle fill-rule="evenodd" clip-rule="evenodd" fill="#7D7D7D" cx="21" cy="21" r="21"/>
		</g>
	</g>
</g>
<g id="G_1_" enable-background="new    ">
	<g id="G">
		<g>
			<path fill-rule="evenodd" clip-rule="evenodd" fill="#FFFFFF" d="M20.9,11.9c0.2-0.2,1.2-0.8,1.3-0.9c-1.3,0-2.7,0-4,0
				c-2.3,0-3.9-0.2-5.8,1.2l-0.6,0.5c-0.7,0.7-1.3,1.7-1.3,2.7c0,0.9,0.1,1.5,0.5,2.3c0.6,1,1.5,1.8,2.7,2.1
				c0.7,0.2,1.3,0.2,2.2,0.2c-0.4,0.7-0.4,1.5,0,2.1c0.1,0.1,0.2,0.3,0.2,0.4c0.1,0.1,0.2,0.2,0.3,0.3c-1.9,0-3.3,0.1-4.8,1
				c-0.8,0.5-1.7,1.3-2.1,2.2c-0.5,1.4-0.3,2.4,0.8,3.4c0.1,0.1,0.2,0.2,0.3,0.3c1.3,0.9,3.2,1.3,5.1,1.3c2.2,0,4.3-0.8,5.4-2.4
				c0.6-0.8,0.7-1.4,0.7-2.4c0-0.3-0.1-0.8-0.1-1c0-0.1-0.1-0.3-0.1-0.4c-0.2-0.5-0.5-1-0.9-1.4c-0.1-0.1-0.2-0.2-0.3-0.3l-0.7-0.5
				c-0.1-0.1-0.2-0.2-0.3-0.2c-1.5-1.2-1.9-2-0.3-3.3c0.9-0.7,1.4-1.2,1.8-2.4c0.3-0.9,0.1-2-0.2-2.8c-0.1-0.4-0.4-0.8-0.6-1
				c-0.6-0.7-0.8-0.6-1-0.7l1.6,0C20.7,12,20.7,12,20.9,11.9z M19.4,25.3c0.5,0.7,0.5,1,0.5,1.8c0,0.9-0.6,1.7-1.3,2.2
				c-1.1,0.7-3.5,0.9-4.9,0.4c-0.4-0.2-0.8-0.4-1.2-0.6c-0.6-0.4-1.3-1.3-1.3-2.3c0-1.1,0.6-1.9,1.5-2.4c0.7-0.5,1.8-0.9,3-0.9
				c0.5,0,1.2,0.1,1.6,0.2C17.6,23.8,19.1,24.9,19.4,25.3z M18.5,16.2c0,0.9-0.1,1.7-0.6,2.3c-0.8,1.1-2.1,1.1-3.2,0.4
				c-1.1-0.7-2-2.4-2-3.9c0-0.9,0.1-1.6,0.6-2.2c0.9-1.2,2.2-1.2,3.4-0.4C17.9,13.2,18.9,14.8,18.5,16.2z M28.9,15v-4h-1v4h-4v1h4v4
				h1v-4H33v-1H28.9z"/>
		</g>
	</g>
</g>
</svg>
