<?xml version="1.0" encoding="utf-8"?>
<!-- Generator: Adobe Illustrator 17.1.0, SVG Export Plug-In . SVG Version: 6.00 Build 0)  -->
<!DOCTYPE svg PUBLIC "-//W3C//DTD SVG 1.1//EN" "http://www.w3.org/Graphics/SVG/1.1/DTD/svg11.dtd">
<svg version="1.1" xmlns="http://www.w3.org/2000/svg" xmlns:xlink="http://www.w3.org/1999/xlink" x="0px" y="0px"
	 viewBox="-101 0 779 792" enable-background="new -101 0 779 792" xml:space="preserve">
<g id="Layer_2">
	<circle fill="none" stroke="#DDDDDD" stroke-width="3" stroke-miterlimit="10" cx="291.2" cy="400.2" r="251.2"/>
</g>
<g id="Layer_1">
	<g id="CV_1_">
		<path fill="#B2B2B2" d="M94.4,335c0-3-2.4-5.4-5.4-5.4H-16.4c-3,0-5.4,2.4-5.4,5.4v137.5c0,3,2.4,5.4,5.4,5.4h69.5l0.2,0.2
			l41.2-44.4h0.2V335H94.4z M54.1,471.8v-38.2h35.4L54.1,471.8z M90.9,430.2H52.4c-0.9,0-1.7,0.9-1.7,1.7v42.5h-67
			c-1,0-1.9-0.9-1.9-1.9V335c0-1,0.9-1.9,1.9-1.9H89c1,0,1.9,0.9,1.9,1.9V430.2z"/>
		<path fill="#FFFFFF" d="M89.5,433.6l-35.4,38.2v-38.2H89.5z M90.9,335v95.3H52.4c-0.9,0-1.7,0.9-1.7,1.7v42.5h-67
			c-1,0-1.9-0.9-1.9-1.9V335.2c0-1,0.9-1.9,1.9-1.9H89C90,333.1,90.9,334,90.9,335z"/>
		<path fill="#B2B2B2" d="M94.2,433.5h-1.4c0.3-0.2,0.5-0.3,0.7-0.7L94.2,433.5z M72.5,392.1H-0.1c-1,0-1.7-0.7-1.7-1.7
			s0.7-1.7,1.7-1.7h72.6c1,0,1.7,0.7,1.7,1.7S73.4,392.1,72.5,392.1z M72.5,409.7H-0.1c-1,0-1.7-0.7-1.7-1.7c0-1,0.7-1.7,1.7-1.7
			h72.6c1,0,1.7,0.7,1.7,1.7C74.2,409,73.4,409.7,72.5,409.7z M24.1,427H-0.1c-1,0-1.7-0.7-1.7-1.7s0.7-1.7,1.7-1.7h24.1
			c1,0,1.7,0.7,1.7,1.7S25.1,427,24.1,427z"/>
		<path fill="#B2B2B2" d="M94.2,433.5h-3.3v-1.4l0.9-0.9l0.9,0.9L94.2,433.5z"/>
		<path fill="#59BD1B" d="M-0.6,361.4c0-4.7,3.5-8.3,8.3-8.3c3.1,0,4.9,1,6.4,2.4l-2.3,2.6c-1.2-1.2-2.4-1.7-4.2-1.7
			c-2.8,0-4.7,2.3-4.7,5c0,2.8,1.9,5,4.7,5c1.9,0,3-0.7,4.2-1.9l2.3,2.3c-1.7,1.7-3.5,3-6.6,3C2.9,369.7-0.6,366.1-0.6,361.4
			L-0.6,361.4z M15.5,353.2h4l4.2,11.3l4.2-11.3h3.8l-6.6,16.3H22L15.5,353.2z"/>
	</g>
	<g id="pencil_1_">
		<path fill="#FFFFFF" d="M314.5,697.5h34c0.8,0,1.2-0.6,1.2-1.2v-37.4L314.5,697.5L314.5,697.5z M348.6,574.5H228
			c-0.8,0-1.2,0.6-1.2,1.2v26.3h123v-26.3C349.8,575.1,349.3,574.5,348.6,574.5z M226.8,605v91.3c0,0.6,0.6,1.2,1.2,1.2h59.2
			l25.5-27.9h-29.3c-0.8,0-1.5-0.6-1.5-1.5c0-0.8,0.8-1.5,1.5-1.5h32l34.2-37.5v-24H226.8L226.8,605z M350.1,633.2l-0.2-0.2v0.3
			l-5.3,5.8l5.3,4.9l1.5,1.4v-11L350.1,633.2z M351,647.3l-1.1,1.1l-7.3-6.7l-5.5,6l7.5,6.9l-1.1,1.1l-1.1,1.1l-7.5-6.9l-5.5,6.1
			l7.5,6.9l-1.1,1.1l-1.1,1.1l-7.5-6.9l-5.5,6.1l2.6,2.3l1.5,1.4l3.4,3.1l-1.1,1.1l-1.1,1.1l-4.1-3.7l-3.4-3.1l-2.7,3.1l-2.7,2.9
			l7.5,6.9l-1.1,1.1l-1.1,1.1l-7.5-6.9l-5.5,6.1l7.5,6.9l-1.1,1.1l-1.1,1.1l-7.5-6.9l-5.5,6.1l7.5,6.9l-1.1,1.1l-0.5,0.5h-1.2
			l-6.7-6.1l-5.5,6.1l-0.2,0.2h0.3l1.7,1.5H309l1.4-1.5l39.4-43.2l1.5-1.7v-5.8L351,647.3L351,647.3z"/>
		<path fill="#B2B2B2" d="M291.6,697.5l1.7,1.5l1.7,1.5h12.5l1.4-1.5l1.4-1.5H291.6z M288.9,699l0.6,0.6l0.6-0.6H288.9L288.9,699z
			 M289.5,699.6l-0.9,0.9h1.8L289.5,699.6L289.5,699.6z M351.3,634.4l-1.4-1.2l-0.2-0.2v11l1.5,1.4l0.6,0.6l-0.6,0.6l-0.5,0.5
			l-1.1,1.1v6l1.5-1.7l1.5-1.7v-15L351.3,634.4L351.3,634.4z M352.1,630.9l0.8,0.8V630L352.1,630.9z M239.7,593.4
			c-3.4,0-6.1-2.7-6.1-6.1s2.7-6.1,6.1-6.1s6.1,2.7,6.1,6.1S243.1,593.4,239.7,593.4z M239.7,584.2c-1.7,0-3.1,1.4-3.1,3.1
			c0,1.7,1.4,3.1,3.1,3.1s3.1-1.4,3.1-3.1C242.8,585.6,241.4,584.2,239.7,584.2z M257,593.4c-3.4,0-6.1-2.7-6.1-6.1s2.7-6.1,6.1-6.1
			s6.1,2.7,6.1,6.1S260.4,593.4,257,593.4z M257,584.2c-1.7,0-3.1,1.4-3.1,3.1c0,1.7,1.4,3.1,3.1,3.1c1.7,0,3.1-1.4,3.1-3.1
			C260,585.6,258.5,584.2,257,584.2z M274.1,593.4c-3.4,0-6.1-2.7-6.1-6.1s2.7-6.1,6.1-6.1s6.1,2.7,6.1,6.1S277.4,593.4,274.1,593.4
			z M274.1,584.2c-1.7,0-3.1,1.4-3.1,3.1c0,1.7,1.4,3.1,3.1,3.1c1.7,0,3.1-1.4,3.1-3.1C277.1,585.6,275.8,584.2,274.1,584.2z"/>
		<path fill="#59BD1B" d="M252.4,671.1c-0.5,0-0.8-0.2-1.1-0.5c-0.6-0.6-0.6-1.5,0-2.1l20.8-20.8l-22.3-22.3c-0.6-0.6-0.6-1.5,0-2.1
			c0.6-0.6,1.5-0.6,2.1,0l23.4,23.4c0.3,0.3,0.5,0.6,0.5,1.1c0,0.5-0.2,0.8-0.5,1.1l-21.8,21.8C253.2,670.9,252.9,671.1,252.4,671.1
			L252.4,671.1z"/>
		<path fill="#B1B1B1" d="M200.1,576.6c-0.5,0-0.8-0.2-1.1-0.6c-0.2-0.3-0.2-0.8,0-1.1c0.3-0.5,0.8-0.8,1.4-0.6
			c0.5,0.2,0.9,0.6,0.9,1.1c0,0.5-0.3,1.1-0.9,1.2H200.1z"/>
		<path fill="#FFFFFF" d="M207.1,601.8v96.6c0,0.9-0.6,1.5-1.5,1.5h-10.8c-0.9,0-1.5-0.6-1.5-1.5v-96.6c0-0.8,0.2-1.5,0.3-2.3
			l6.7-24.1l6.6,24.1C206.9,600.3,207.1,601,207.1,601.8L207.1,601.8z"/>
		<path fill="#B2B2B2" d="M208,599.2l-6.6-24.1c0,0,0-0.2-0.2-0.3c-0.3-0.5-0.8-0.8-1.4-0.6c-0.5,0.2-0.8,0.5-0.9,0.9l-6.7,24.1
			c-0.2,0.8-0.3,1.7-0.3,2.6v96.6c0,1.5,1.2,2.7,2.7,2.7h10.8c1.5,0,2.7-1.2,2.7-2.7v-96.6C208.3,600.9,208.2,599.9,208,599.2
			L208,599.2z M198.1,587.3h4.1l3.1,11H195L198.1,587.3z M194.4,601.8v-1.1h11.4v83.6h-11.6v-82.6H194.4z M205.9,698.2
			c0,0.2-0.2,0.3-0.3,0.3h-10.8c-0.2,0-0.3-0.2-0.3-0.3v-11.4H206v11.4H205.9z"/>
		<path fill="none" d="M193.2,685.6h13.9 M193.5,599.5h13.3"/>
		<path fill="#FFFFFF" d="M289.5,697.5h-0.2v-0.2L289.5,697.5z M290,699l-0.5,0.6l-0.6-0.6H290z M381.7,619.3l-28.8,31.6l-1.5,1.7
			l-1.5,1.7l-39.4,43.2L309,699l-1.4,1.5l-11.9,13l-10.4-9.5l3.2-3.5l0.9-0.9l1.1,0.9l6.4,5.8l0.9-1.1l1.1-1.1l-4-3.7l-1.7-1.5
			l-1.7-1.5h-0.2v-0.2l5.5-6.1l6.9,6.3h1.2l0.5-0.5l1.1-1.2l-7.5-6.7l5.5-6.1l7.5,6.9l1.1-1.2l0.9-1.1l-7.3-6.9l5.5-6l7.3,6.7
			l1.1-1.1l1.1-1.1l-7.5-6.9l2.7-2.9l2.7-3.1v-0.2l0.2,0.2l3.2,3.1l4.1,3.7l1.1-1.1l1.1-1.2l-3.5-3.1l-1.5-1.4l-2.4-2.3l5.5-6.1
			l7.5,6.9l0.9-1.2l1.1-1.1l-7.5-6.9l5.5-6l7.5,6.9l1.1-1.2l1.1-1.1l-7.5-6.9l5.5-6l7.3,6.7h0.2l1.1-1.1l0.3-0.5l0.6-0.6l-0.6-0.6
			l-1.5-1.4l-5.3-4.9l5.3-5.8v-0.5l0.3,0.2l1.2,1.2l1.5,1.5l4.6,4.1l1.1-1.1l1.1-1.2l-6.7-6.1l-0.8-0.8l0.8-0.8l4.7-5.2l7.5,6.9
			l1.1-1.2l0.9-1.1l-7.3-6.9l5.5-6l7.5,6.7l2-2.1l-7.5-6.9l4.1-4.6L381.7,619.3z"/>
		<path fill="#B2B2B2" d="M349.8,633.1v0.3l0.2-0.2L349.8,633.1z M349.8,633.1v0.3l0.2-0.2L349.8,633.1z M349.8,633.1v0.3l0.2-0.2
			L349.8,633.1z M288.9,699l0.6,0.6l0.6-0.6H288.9L288.9,699z M349.8,633.1v0.3l0.2-0.2L349.8,633.1z M349.8,633.1v0.3l0.2-0.2
			L349.8,633.1z M289.5,697.5h-0.2v-0.2L289.5,697.5z M290,699l-0.5,0.6l-0.6-0.6H290z"/>
		<path fill="none" d="M373.6,622.4l-7.5-6.9"/>
		<path fill="#B2B2B2" d="M384.9,618.1l-12.7-11.4c-0.3-0.3-0.6-0.5-1.1-0.5c-0.5,0-0.8,0.2-1.1,0.5l-17.2,18.9v-49.9
			c0-2.3-2-4.3-4.3-4.3H228c-2.4,0-4.3,2-4.3,4.3v120.6c0,2.3,2,4.3,4.3,4.3h56.5l-2.3,2.6c-0.6,0.6-0.5,1.5,0.2,2.1l12.7,11.4
			c0.3,0.3,0.6,0.5,1.1,0.5s0.8-0.2,1.1-0.5l14.8-16.2h36.8c2.4,0,4.3-2,4.3-4.3v-40.7l32-35.1C385.5,619.6,385.5,618.7,384.9,618.1
			L384.9,618.1z M226.8,575.7c0-0.8,0.6-1.2,1.2-1.2h120.6c0.8,0,1.2,0.6,1.2,1.2v26.3h-123V575.7z M228.1,697.5
			c-0.8,0-1.2-0.6-1.2-1.2V605h123v24l-34.2,37.5h-32c-0.8,0-1.5,0.8-1.5,1.5c0,0.9,0.8,1.5,1.5,1.5H313l-25.5,27.9H228.1z
			 M349.8,696.3c0,0.6-0.6,1.2-1.2,1.2h-34l35.3-38.6V696.3z M352.8,650.9l-1.5,1.7l-1.5,1.7l-39.4,43.2L309,699l-1.4,1.5l-11.9,13
			l-10.4-9.5l3.2-3.5l0.9-0.9l-0.6-0.6h1.2l-0.6,0.6l1.1,0.9l6.4,5.8l1.1-1.1l1.1-1.1l-4-3.7l-1.7-1.5l-1.7-1.5h-0.3l0.2-0.2
			l5.5-6.1l6.7,6.1h1.2l0.5-0.5l1.1-1.1l-7.5-6.9l5.5-6.1l7.5,6.9l1.1-1.1l1.1-1.1l-7.5-6.9l5.5-6.1l7.5,6.9l1.1-1.1l1.1-1.1
			l-7.5-6.9l2.7-2.9l2.7-3.1l3.4,3.1l4.1,3.7l1.1-1.1l1.1-1.1l-3.4-3.1l-1.5-1.4l-2.6-2.3l5.5-6.1l7.5,6.9l1.1-1.1l1.1-1.1l-7.5-6.9
			l5.5-6.1l7.5,6.9l1.1-1.1l1.1-1.1l-7.5-6.9l5.5-6l7.3,6.7l1.1-1.1l0.5-0.5l0.6-0.6l-0.6-0.6l-1.5-1.4l-5.3-4.9l5.3-5.8v-0.3
			l0.2,0.2l1.4,1.2l1.5,1.4l4.6,4.1l1.1-1.1l1.1-1.1l-6.7-6.1l-0.8-0.8l0.8-0.9l4.7-5.2l7.5,6.9l1.1-1.1l1.1-1.1l-7.5-6.9l5.5-6.1
			l7.5,6.9l2-2.3l-7.5-6.9l4.1-4.6l10.4,9.5L352.8,650.9L352.8,650.9z M305.1,697.5l-0.6,0.6l-0.6-0.6H305.1z"/>
		<path fill="#B2B2B2" d="M290,699l-0.5,0.6l-0.6-0.6H290z M289.5,697.5h-0.2v-0.2L289.5,697.5z M291.6,697.5h-0.2v-0.2L291.6,697.5
			z"/>
	</g>
	<g id="PC_1_">
		<polygon fill="none" stroke="#B1B1B1" stroke-width="3" stroke-miterlimit="10" points="303.3,229.2 274,229.2 270.2,248.8 
			307.2,248.8 		"/>
		<path fill="#FFFFFF" stroke="#B1B1B1" stroke-width="3" stroke-miterlimit="10" d="M197.5,211.6v-98c0-5.5,4.8-10,10.7-10h161
			c5.9,0,10.7,4.5,10.7,10v98H197.5z"/>
		<rect x="208.2" y="114.2" fill="none" stroke="#B1B1B1" stroke-width="3" stroke-miterlimit="10" width="161" height="97.4"/>
		<polygon opacity="5.000000e-002" fill="#B2B2B2" enable-background="new    " points="300.2,114.2 208.2,206.2 208.2,213.7 
			300.4,213.7 369.2,144.9 369.2,114.2 		"/>
		<path fill="none" stroke="#B1B1B1" stroke-width="3" stroke-miterlimit="10" d="M197.5,211.6v6.9c0,5.9,4.8,10.7,10.7,10.7h161
			c5.9,0,10.7-4.8,10.7-10.7v-6.9H197.5z"/>
		<g>
			<g>
				<path fill="#59BD1B" d="M291.2,107c0-0.3-0.3-0.6-0.6-0.6h-3.9c-0.3,0-0.6,0.3-0.6,0.6v3.9c0,0.3,0.3,0.6,0.6,0.6h3.9
					c0.3,0,0.6-0.3,0.6-0.6V107z"/>
				<circle fill="#59BD1B" cx="288.7" cy="108.9" r="1.9"/>
				<circle fill="#59BD1B" cx="288.7" cy="108.9" r="1"/>
			</g>
			<circle fill="#59BD1B" cx="282.5" cy="108.9" r="0.6"/>
			<circle fill="#59BD1B" cx="294.8" cy="108.9" r="0.6"/>
		</g>
		<circle fill="#59BD1B" cx="288.7" cy="219.8" r="4.2"/>
		<path fill="none" stroke="#59BD1B" stroke-width="3" stroke-miterlimit="10" d="M308.8,254.9c1.7,0,3.1-1.4,3.1-3.1
			c0-1.7-1.4-3.1-3.1-3.1h-40.2c-1.7,0-3.1,1.4-3.1,3.1s1.4,3.1,3.1,3.1H308.8z"/>
	</g>
	<g id="WIFI_1_">
		<path fill="#FFFFFF" stroke="#B1B1B1" stroke-width="3" stroke-miterlimit="10" d="M455.3,390l-12.7-12.7
			c24.3-24.3,56.6-37.7,90.8-37.7c34.3,0,66.5,13.4,90.8,37.7L611.5,390c-20.9-20.9-48.6-32.4-78.1-32.4
			C503.9,357.6,476.2,369.1,455.3,390z"/>
		<path fill="#FFFFFF" stroke="#59BD1B" stroke-width="3" stroke-miterlimit="10" d="M479.2,413.9l-12.7-12.7
			c17.9-17.9,41.7-27.8,66.9-27.8c25.3,0,49,9.9,66.9,27.8l-12.7,12.7c-14.5-14.5-33.8-22.5-54.2-22.5
			C513,391.4,493.7,399.4,479.2,413.9z"/>
		<path fill="#FFFFFF" stroke="#B1B1B1" stroke-width="3" stroke-miterlimit="10" d="M503.1,437.8l-12.7-12.7
			c11.5-11.5,26.8-17.8,43-17.8s31.5,6.3,43,17.8l-12.7,12.7c-8.1-8.1-18.9-12.6-30.3-12.6C522,425.3,511.2,429.7,503.1,437.8z"/>
		<path fill="#FFFFFF" stroke="#59BD1B" stroke-width="3" stroke-miterlimit="10" d="M533.4,441.5c-7.4,0-14,3-18.8,7.8l18.8,18.8
			l18.8-18.8C547.4,444.5,540.8,441.5,533.4,441.5z"/>
	</g>
</g>
</svg>
