<?xml version="1.0" encoding="utf-8"?>
<!-- Generator: Adobe Illustrator 17.1.0, SVG Export Plug-In . SVG Version: 6.00 Build 0)  -->
<!DOCTYPE svg PUBLIC "-//W3C//DTD SVG 1.1//EN" "http://www.w3.org/Graphics/SVG/1.1/DTD/svg11.dtd">
<svg version="1.1" xmlns="http://www.w3.org/2000/svg" xmlns:xlink="http://www.w3.org/1999/xlink" x="0px" y="0px"
	 viewBox="0 0 1027.4 800" enable-background="new 0 0 1027.4 800" xml:space="preserve">
<g id="objects">
	<g>
		<g>
			<g>
				<g>
					<g>
						<g>
							
								<polyline fill="none" stroke="#FFFFFF" stroke-width="16.9498" stroke-linecap="round" stroke-linejoin="round" stroke-miterlimit="10" points="
								186.4,491.4 377.7,491.4 377.7,651 							"/>
							
								<rect x="574.1" y="491.4" fill="none" stroke="#FFFFFF" stroke-width="16.9498" stroke-linecap="round" stroke-linejoin="round" stroke-miterlimit="10" width="196.3" height="159.6"/>
							
								<rect x="358.5" y="330.4" fill="none" stroke="#FFFFFF" stroke-width="16.9498" stroke-linecap="round" stroke-linejoin="round" stroke-miterlimit="10" width="277.5" height="161"/>
							
								<rect x="636" y="330.4" fill="none" stroke="#FFFFFF" stroke-width="16.9498" stroke-linecap="round" stroke-linejoin="round" stroke-miterlimit="10" width="134.4" height="161"/>
							
								<polyline fill="none" stroke="#FFFFFF" stroke-width="16.9498" stroke-linecap="round" stroke-linejoin="round" stroke-miterlimit="10" points="
								232.3,329.2 232.3,219.6 498.8,92.9 770.4,223.6 770.4,381.2 							"/>
							
								<path fill="none" stroke="#FFFFFF" stroke-width="16.9498" stroke-linecap="round" stroke-linejoin="round" stroke-miterlimit="10" d="
								M208.2,267.2"/>
							
								<path fill="none" stroke="#FFFFFF" stroke-width="16.9498" stroke-linecap="round" stroke-linejoin="round" stroke-miterlimit="10" d="
								M415.2,119.9"/>
							
								<path fill="none" stroke="#FFFFFF" stroke-width="16.9498" stroke-linecap="round" stroke-linejoin="round" stroke-miterlimit="10" d="
								M793.7,297.9"/>
							
								<path fill="none" stroke="#FFFFFF" stroke-width="16.9498" stroke-linecap="round" stroke-linejoin="round" stroke-miterlimit="10" d="
								M415.2,119.9"/>
							
								<polyline fill="none" stroke="#FFFFFF" stroke-width="16.9498" stroke-linecap="round" stroke-linejoin="round" stroke-miterlimit="10" points="
								776,340.5 868.3,447.4 837.2,447.4 							"/>
							
								<polygon fill="none" stroke="#FFFFFF" stroke-width="16.9498" stroke-linecap="round" stroke-linejoin="round" stroke-miterlimit="10" points="
								862.4,447.2 780.4,447.2 780.4,360.2 							"/>
							
								<rect x="378.8" y="491.5" fill="none" stroke="#FFFFFF" stroke-width="16.9498" stroke-linecap="round" stroke-linejoin="round" stroke-miterlimit="10" width="196.3" height="159.6"/>
							
								<rect x="193.5" y="330.4" fill="none" stroke="#FFFFFF" stroke-width="16.9498" stroke-linecap="round" stroke-linejoin="round" stroke-miterlimit="10" width="165" height="161"/>
						</g>
					</g>
					<g>
						<g>
							<path fill="#FFFFFF" d="M520.5,526.9c0,6.6,5.4,12,12,12c6.6,0,12-5.4,12-12c0-6.6-5.4-12-12-12
								C525.9,515,520.5,520.3,520.5,526.9z M533.6,517.9c0,0.6-0.5,1-1.1,1c-0.6,0-1.1-0.5-1-1.1c0-0.6,0.5-1.1,1.1-1
								C533.1,516.9,533.6,517.3,533.6,517.9z M532.5,521.2c0.2,0,0.4,0.2,0.4,0.4v5.1l4.3,2.6c0.2,0.1,0.3,0.4,0.1,0.6
								c-0.1,0.1-0.2,0.2-0.4,0.2c-0.1,0-0.1,0-0.2-0.1l-4.6-2.7c-0.1-0.1-0.2-0.2-0.2-0.4v-5.3
								C532.1,521.4,532.3,521.2,532.5,521.2z M540.9,523.4c-0.2,0.1-0.3,0.1-0.5,0.1c-0.4,0-0.7-0.2-0.9-0.5
								c-0.3-0.5-0.1-1.1,0.4-1.4c0.5-0.3,1.1-0.1,1.4,0.4C541.6,522.4,541.4,523.1,540.9,523.4z M541.6,528c-0.6,0-1-0.5-1-1.1
								c0-0.6,0.5-1.1,1.1-1.1c0.6,0,1.1,0.5,1.1,1.1C542.6,527.5,542.1,528,541.6,528z M539.4,531c0.3-0.5,0.9-0.7,1.4-0.4
								c0.5,0.3,0.7,0.9,0.4,1.4c-0.2,0.3-0.6,0.5-0.9,0.5c-0.2,0-0.4,0-0.5-0.1C539.3,532.1,539.1,531.5,539.4,531z M538,519.7
								c-0.2,0.3-0.5,0.5-0.9,0.5c-0.2,0-0.4,0-0.5-0.1c-0.5-0.3-0.7-0.9-0.4-1.4c0.3-0.5,0.9-0.7,1.4-0.4
								C538.1,518.5,538.3,519.2,538,519.7z M536.5,533.9c0.5-0.3,1.1-0.1,1.4,0.4c0.3,0.5,0.1,1.1-0.4,1.4
								c-0.2,0.1-0.3,0.1-0.5,0.1c-0.4,0-0.7-0.2-0.9-0.5C535.8,534.8,536,534.2,536.5,533.9z M531.5,536c0-0.6,0.5-1.1,1.1-1.1
								c0.6,0,1.1,0.5,1.1,1.1c0,0.6-0.5,1.1-1.1,1.1C531.9,537,531.5,536.6,531.5,536z M528.6,520c-0.2,0.1-0.3,0.1-0.5,0.1
								c-0.4,0-0.7-0.2-0.9-0.5c-0.3-0.5-0.1-1.1,0.4-1.4c0.5-0.3,1.1-0.1,1.4,0.4C529.2,519.1,529.1,519.7,528.6,520z M527.1,534.2
								c0.3-0.5,0.9-0.7,1.4-0.4c0.5,0.3,0.7,0.9,0.4,1.4c-0.2,0.3-0.5,0.5-0.9,0.5c-0.2,0-0.4,0-0.5-0.1
								C527,535.4,526.8,534.7,527.1,534.2z M525.6,522.9c-0.2,0.3-0.5,0.5-0.9,0.5c-0.2,0-0.4,0-0.5-0.1c-0.5-0.3-0.7-0.9-0.4-1.4
								c0.3-0.5,0.9-0.7,1.4-0.4C525.7,521.8,525.9,522.4,525.6,522.9z M524.2,530.6c0.5-0.3,1.1-0.1,1.4,0.4
								c0.3,0.5,0.1,1.1-0.4,1.4c-0.2,0.1-0.3,0.1-0.5,0.1c-0.4,0-0.7-0.2-0.9-0.5C523.5,531.5,523.7,530.8,524.2,530.6z
								 M522.4,526.9C522.4,526.9,522.4,526.9,522.4,526.9c0-0.6,0.5-1.1,1.1-1.1c0.6,0,1.1,0.5,1,1.1c0,0,0,0,0,0c0,0,0,0,0,0
								c0,0.6-0.5,1.1-1.1,1.1C522.9,528,522.4,527.5,522.4,526.9C522.4,526.9,522.4,526.9,522.4,526.9z"/>
							<g>
								<path fill="#FFFFFF" d="M547.5,613.1h5v-32.5h-1.2c-2.1,0-3.7,1.7-3.7,3.7V613.1z"/>
								<rect x="529.4" y="611.6" fill="#FFFFFF" width="2.5" height="24"/>
								<rect x="550" y="611.6" fill="#FFFFFF" width="2.5" height="24"/>
								<path fill="#FFFFFF" d="M525.1,614h26.2v-4.7h-22.4c-2.1,0-3.7,1.7-3.7,3.7V614z"/>
							</g>
							<g>
								<path fill="#FFFFFF" d="M402.8,613.1h-5v-32.5h1.2c2.1,0,3.7,1.7,3.7,3.7V613.1z"/>
								<rect x="418.4" y="611.6" fill="#FFFFFF" width="2.5" height="24"/>
								<rect x="397.8" y="611.6" fill="#FFFFFF" width="2.5" height="24"/>
								<path fill="#FFFFFF" d="M425.2,614h-26.2v-4.7h22.4c2.1,0,3.7,1.7,3.7,3.7V614z"/>
							</g>
							<g>
								<g>
									<g>
										<rect x="424.5" y="584.7" fill="#FFFFFF" width="101.2" height="6.2"/>
									</g>
									<g>
										<rect x="498.4" y="589" fill="#FFFFFF" width="6.2" height="46.6"/>
										<rect x="445.6" y="589" fill="#FFFFFF" width="6.2" height="46.6"/>
									</g>
								</g>
								<g>
									<path fill="#FFFFFF" d="M494.5,575.2c0,4.2,4.2,7.6,9.5,7.6c5.2,0,9.5-3.4,9.5-7.6"/>
									<path fill="#FFFFFF" d="M436.9,575.2c0,4.2,4.2,7.6,9.5,7.6c5.2,0,9.5-3.4,9.5-7.6"/>
									<g>
										<path fill="#FFFFFF" d="M472.2,582.8h5.9c1,0,1.9-0.8,1.9-1.9v-11.6c0-2.6-2.2-4.8-4.8-4.8l0,0c-2.6,0-4.8,2.2-4.8,4.8
											V581C470.3,582,471.2,582.8,472.2,582.8z"/>
										<path fill="#FFFFFF" d="M475.1,556.7L475.1,556.7c0.9,0,1.7,0.8,1.7,1.7v16.5c0,0.9-0.8,1.7-1.7,1.7l0,0
											c-0.9,0-1.7-0.8-1.7-1.7v-16.5C473.4,557.5,474.2,556.7,475.1,556.7z"/>
									</g>
								</g>
							</g>
							<g>
								<rect x="441.1" y="539.3" fill="#FFFFFF" width="40.3" height="4.2"/>
								<g>
									<path fill="#FFFFFF" d="M469.5,537.4h7.8c0.5,0,0.9-0.4,0.9-0.9v-4.9c0-0.5-0.4-0.9-0.9-0.9h-7.8c-0.5,0-0.9,0.4-0.9,0.9
										v4.9C468.6,537,469,537.4,469.5,537.4z"/>
									<path fill="#FFFFFF" d="M471.3,530h4.2c0.3,0,0.6-0.3,0.6-0.6l0,0c0-0.3-0.3-0.6-0.6-0.6h-4.2c-0.3,0-0.6,0.3-0.6,0.6l0,0
										C470.6,529.7,470.9,530,471.3,530z"/>
								</g>
								<g>
									<path fill="#FFFFFF" d="M459.2,534.3c0.1-1.2,1.1-2.2,2.3-2.2c1.2,0,2.2,1,2.3,2.2H459.2z"/>
									<path fill="#FFFFFF" d="M463.9,534.7v1.7c0,0.4-0.3,0.7-0.7,0.7h-3.3c-0.4,0-0.7-0.3-0.7-0.7v-1.7H463.9z"/>
								</g>
								<g>
									<path fill="#FFFFFF" d="M452.9,534.4c0.1-1.2,1.1-2.2,2.3-2.2c1.2,0,2.2,1,2.3,2.2H452.9z"/>
									<path fill="#FFFFFF" d="M457.5,534.8v1.7c0,0.4-0.3,0.7-0.7,0.7h-3.3c-0.4,0-0.7-0.3-0.7-0.7v-1.7H457.5z"/>
								</g>
							</g>
							<g>
								<rect x="403.5" y="526.1" fill="#FFFFFF" width="44.5" height="3.6"/>
								<g>
									<path fill="#FFFFFF" d="M429.9,523.8l-2.7-11.2c-0.2-0.8-1.4-0.8-1.6,0l-2.7,11.2c-0.1,0.5,0.3,1,0.8,1h5.3
										C429.7,524.8,430.1,524.3,429.9,523.8z"/>
									<circle fill="#FFFFFF" cx="426.5" cy="510.5" r="0.8"/>
								</g>
								<g>
									<path fill="#FFFFFF" d="M411.7,520c0.1-2,1.8-3.7,3.8-3.7c2.1,0,3.7,1.6,3.8,3.7H411.7z"/>
									<path fill="#FFFFFF" d="M419.4,520.7v2.9c0,0.6-0.5,1.1-1.1,1.1h-5.4c-0.6,0-1.1-0.5-1.1-1.1v-2.9H419.4z"/>
									<path fill="#FFFFFF" d="M415.5,515.7L415.5,515.7c0.1,0,0.3,0.1,0.3,0.3v1.5c0,0.1-0.1,0.3-0.3,0.3l0,0
										c-0.1,0-0.3-0.1-0.3-0.3V516C415.3,515.9,415.4,515.7,415.5,515.7z"/>
								</g>
								<g>
									<g>
										<path fill="#FFFFFF" d="M435.7,524.8h5.2c0.5,0,0.9-0.4,0.9-0.9v-7.1c0-0.5-0.4-0.9-0.9-0.9h-5.2c-0.5,0-0.9,0.4-0.9,0.9
											v7.1C434.8,524.4,435.2,524.8,435.7,524.8z"/>
										<path fill="#FFFFFF" d="M437.2,515.2h2.3c0.5,0,0.8-0.4,0.8-0.8l0,0c0-0.5-0.4-0.8-0.8-0.8h-2.3c-0.5,0-0.8,0.4-0.8,0.8
											l0,0C436.3,514.8,436.7,515.2,437.2,515.2z"/>
									</g>
									<circle fill="#FFFFFF" stroke="#FFFFFF" stroke-width="0.5637" stroke-miterlimit="10" cx="434.8" cy="520" r="1.5"/>
								</g>
							</g>
						</g>
						<g>
							<g>
								<rect x="581.9" y="384.5" fill="#FFFFFF" width="26.1" height="4.2"/>
								<g>
									<polygon fill="#FFFFFF" points="595.3,382.7 605.9,382.7 604.3,375.1 597,375.1 									"/>
									<polygon fill="#FFFFFF" points="583.9,375.1 591.7,375.1 590.5,382.7 585.1,382.7 									"/>
									<g>
										<path fill="#FFFFFF" d="M598.6,367.8c-3.5,1.5-2.9,2.9,0.6,1.4c-1.5,3.5-0.1,4.1,1.4,0.6c1.5,3.5,2.9,2.9,1.4-0.6
											c3.5,1.5,4.1,0.1,0.6-1.4c3.5-1.5,2.9-2.9-0.6-1.4c1.5-3.5,0.1-4.1-1.4-0.6c-1.5-3.5-2.9-2.9-1.4,0.6
											C595.7,364.9,595.1,366.2,598.6,367.8z"/>
									</g>
									
										<line fill="#FFFFFF" stroke="#FFFFFF" stroke-width="0.696" stroke-miterlimit="10" x1="600.6" y1="367.8" x2="600.6" y2="377.7"/>
									
										<line fill="#FFFFFF" stroke="#FFFFFF" stroke-width="0.696" stroke-miterlimit="10" x1="587.8" y1="368.1" x2="587.8" y2="378"/>
									<g>
										
											<line fill="#FFFFFF" stroke="#FFFFFF" stroke-width="2.4359" stroke-linecap="round" stroke-miterlimit="10" x1="590.4" y1="369.2" x2="585.2" y2="367"/>
										
											<line fill="#FFFFFF" stroke="#FFFFFF" stroke-width="2.4359" stroke-linecap="round" stroke-miterlimit="10" x1="588.9" y1="370.7" x2="586.7" y2="365.5"/>
										
											<line fill="#FFFFFF" stroke="#FFFFFF" stroke-width="2.4359" stroke-linecap="round" stroke-miterlimit="10" x1="586.7" y1="370.7" x2="588.9" y2="365.5"/>
										
											<line fill="#FFFFFF" stroke="#FFFFFF" stroke-width="2.4359" stroke-linecap="round" stroke-miterlimit="10" x1="585.2" y1="369.2" x2="590.4" y2="367"/>
									</g>
								</g>
							</g>
							<g>
								
									<rect x="372.5" y="376.9" fill="#FFFFFF" stroke="#FFFFFF" stroke-width="3.1824" stroke-miterlimit="10" width="51.1" height="31.2"/>
								
									<rect x="372.5" y="408.1" fill="#FFFFFF" stroke="#FFFFFF" stroke-width="3.1824" stroke-miterlimit="10" width="51.1" height="31.2"/>
								
									<rect x="372.5" y="439.4" fill="#FFFFFF" stroke="#FFFFFF" stroke-width="3.1824" stroke-miterlimit="10" width="51.1" height="31.2"/>
								<g>
									<rect x="416.3" y="470.6" fill="#FFFFFF" width="4.6" height="6.2"/>
									<rect x="375.1" y="470.6" fill="#FFFFFF" width="4.6" height="6.2"/>
								</g>
								<rect x="413.7" y="387" fill="#FFFFFF" width="5" height="17.4"/>
								<rect x="408" y="390.4" fill="#FFFFFF" width="2.5" height="14"/>
								
									<rect x="402.4" y="384.9" transform="matrix(-0.9685 -0.249 0.249 -0.9685 696.0326 877.4061)" fill="#FFFFFF" width="2.1" height="19.5"/>
								<rect x="390" y="388.2" fill="#FFFFFF" width="7.3" height="16.3"/>
								<rect x="384.8" y="387" fill="#FFFFFF" width="3.4" height="17.4"/>
								
									<rect x="377.9" y="387" transform="matrix(-0.9801 0.1986 -0.1986 -0.9801 830.3159 708.2141)" fill="#FFFFFF" width="3.4" height="17.4"/>
								
									<rect x="394.8" y="422.9" transform="matrix(-0.9322 -0.362 0.362 -0.9322 611.3101 974.0821)" fill="#FFFFFF" width="4.3" height="13.8"/>
								<rect x="402" y="433.2" fill="#FFFFFF" width="16.6" height="3"/>
								<rect x="402.9" y="428.7" fill="#FFFFFF" width="16.6" height="3"/>
								<rect x="403.9" y="424.3" fill="#FFFFFF" width="11.9" height="3"/>
								<rect x="401.9" y="420" fill="#FFFFFF" width="16.6" height="3"/>
								<rect x="417.6" y="445.3" fill="#FFFFFF" width="2.4" height="21.7"/>
								<rect x="413.8" y="451.4" fill="#FFFFFF" width="2.4" height="15.7"/>
								<rect x="409.9" y="448.8" fill="#FFFFFF" width="2.4" height="18.3"/>
								<rect x="406" y="452.4" fill="#FFFFFF" width="2.4" height="14.7"/>
								<rect x="402.2" y="446.9" fill="#FFFFFF" width="2.4" height="20.1"/>
							</g>
							<g>
								
									<rect x="571.9" y="451.7" fill="#FFFFFF" stroke="#FFFFFF" stroke-width="1.9327" stroke-miterlimit="10" width="36.7" height="15.5"/>
								
									<line fill="#FFFFFF" stroke="#FFFFFF" stroke-width="1.9327" stroke-miterlimit="10" x1="608.5" y1="451.7" x2="608.5" y2="476.8"/>
								
									<line fill="#FFFFFF" stroke="#FFFFFF" stroke-width="1.9327" stroke-miterlimit="10" x1="571.9" y1="451.7" x2="571.9" y2="476.8"/>
								<path fill="#FFFFFF" d="M580.9,439.1c0,5.1,4.2,9.3,9.3,9.3c5.1,0,9.3-4.2,9.3-9.3"/>
							</g>
							<g>
								<g>
									<path fill="#FFFFFF" d="M554.3,476.8h6v-20.1c0-1.1-0.9-1.9-1.9-1.9h-4.1V476.8z"/>
									<path fill="#FFFFFF" d="M436.1,476.8h6v-22.1H438c-1.1,0-1.9,0.9-1.9,1.9V476.8z"/>
								</g>
								<g>
									<path fill="#FFFFFF" d="M518.3,463.8h33.6v-19.3c0-3.7-3-6.7-6.7-6.7h-20.3c-3.7,0-6.7,3-6.7,6.7V463.8z"/>
									<path fill="#FFFFFF" d="M481.4,463.8H515v-19.3c0-3.7-3-6.7-6.7-6.7h-20.3c-3.7,0-6.7,3-6.7,6.7V463.8z"/>
									<path fill="#FFFFFF" d="M444.5,463.8h33.6v-19.3c0-3.7-3-6.7-6.7-6.7h-20.3c-3.7,0-6.7,3-6.7,6.7V463.8z"/>
									<rect x="444.5" y="465.8" fill="#FFFFFF" width="107.4" height="5.9"/>
								</g>
							</g>
							<g>
								
									<rect x="461.3" y="372.3" fill="#FFFFFF" stroke="#FFFFFF" stroke-width="3.1307" stroke-miterlimit="10" width="73.7" height="33.2"/>
								<g>
									<polygon fill="#FFFFFF" points="527.3,396.5 518.6,381.4 509.9,396.5 									"/>
									<polygon fill="#FFFFFF" points="506.9,381.4 498.2,396.5 489.5,381.4 									"/>
									<polygon fill="#FFFFFF" points="486.6,396.5 477.9,381.4 469.2,396.5 									"/>
								</g>
							</g>
						</g>
						<g>
							<g>
								<rect x="722.9" y="406.9" fill="#FFFFFF" width="29" height="2.4"/>
								<path fill="#FFFFFF" d="M730.5,431.6h13.7c2,0,3.6-1.6,3.6-3.6v-20h-20.9v20C726.9,430,728.5,431.6,730.5,431.6z"/>
							</g>
							<g>
								<path fill="#FFFFFF" d="M725.6,472h-32.8c-8.5,0-15.4-6.9-15.4-15.4v-8H741v8C741,465.1,734.1,472,725.6,472z"/>
								<rect x="675.2" y="446.3" fill="#FFFFFF" width="68.1" height="3.4"/>
								<g>
									<rect x="691.1" y="470.6" fill="#FFFFFF" width="3.1" height="6.3"/>
									<rect x="724.2" y="470.6" fill="#FFFFFF" width="3.1" height="6.3"/>
								</g>
								<path fill="#FFFFFF" stroke="#FFFFFF" stroke-width="2.0386" stroke-miterlimit="10" d="M682.5,448.1v-46c0,0-1-14.9,14-2.7
									"/>
								<path fill="#FFFFFF" d="M704.1,397.5c-3.4-1.2-6.6-0.8-8.2,1.3c-1.6,2.1-1.1,5.4,1,8.3L704.1,397.5z"/>
							</g>
							<g>
								<rect x="714.3" y="351.1" fill="#FFFFFF" width="29.9" height="13.2"/>
								<rect x="682" y="351.1" fill="#FFFFFF" width="29.9" height="13.2"/>
								<rect x="682" y="366.7" fill="#FFFFFF" width="29.9" height="13.2"/>
								<rect x="714.3" y="366.7" fill="#FFFFFF" width="29.9" height="13.2"/>
							</g>
						</g>
						<g>
							<g>
								<path fill="#FFFFFF" d="M504.8,201.2v99.2h26.2v-99.2H504.8z M521.1,250.8c0-2.9,1-5.3,2.2-5.3c1.2,0,2.2,2.4,2.2,5.3
									c0,2.9-1,5.3-2.2,5.3C522.1,256.2,521.1,253.8,521.1,250.8z"/>
								<path fill="#FFFFFF" d="M533.1,201.2v99.2h26.2v-99.2H533.1z M538.5,250.8c0-2.9,1-5.3,2.2-5.3c1.2,0,2.2,2.4,2.2,5.3
									c0,2.9-1,5.3-2.2,5.3C539.5,256.2,538.5,253.8,538.5,250.8z"/>
								<polygon fill="#FFFFFF" points="559.3,302.7 559.3,309.9 559.3,311 559.3,315.6 552.8,315.6 552.8,311 511.2,311 
									511.2,315.6 504.8,315.6 504.8,311 504.8,309.9 504.8,302.7 								"/>
							</g>
							<g>
								<polygon fill="#FFFFFF" points="489.4,302.7 489.4,308.7 489.4,310.1 489.4,315.6 481.6,315.6 481.6,310.1 451.2,310.1 
									451.2,315.6 443.4,315.6 443.4,310.1 443.4,308.7 443.4,302.7 								"/>
								<rect x="443.4" y="272.2" fill="#FFFFFF" width="46" height="4.1"/>
								<path fill="#FFFFFF" d="M443.4,278.1v22.3h22.1v-22.3H443.4z M452.1,289.3c0-1.3,1-2.3,2.3-2.3c1.3,0,2.3,1,2.3,2.3
									c0,1.3-1,2.3-2.3,2.3C453.1,291.6,452.1,290.5,452.1,289.3z"/>
								<path fill="#FFFFFF" d="M467.3,278.1v22.3h22.1v-22.3H467.3z M476,289.3c0-1.3,1-2.3,2.3-2.3c1.3,0,2.3,1,2.3,2.3
									c0,1.3-1,2.3-2.3,2.3C477.1,291.6,476,290.5,476,289.3z"/>
							</g>
							<g>
								<rect x="295.5" y="290.1" fill="#FFFFFF" width="133" height="18.2"/>
								<rect x="297.3" y="287.3" fill="#FFFFFF" width="125.5" height="18.2"/>
								<rect x="305.5" y="302.8" fill="#FFFFFF" width="6.4" height="12.8"/>
								<rect x="414.8" y="302.8" fill="#FFFFFF" width="6.4" height="12.8"/>
								<path fill="#FFFFFF" d="M351.3,284.1h-50.1v-6.9c0-4.3,3.5-7.7,7.7-7.7h34.7c4.3,0,7.7,3.5,7.7,7.7V284.1z"/>
								<rect x="295.5" y="268.6" fill="#FFFFFF" width="3.6" height="23.2"/>
							</g>
							<g>
								<path fill="#FFFFFF" d="M615.6,290h-5.7v-37h1.4c2.3,0,4.3,1.9,4.3,4.3V290z"/>
								<rect x="633.3" y="288.3" fill="#FFFFFF" width="2.8" height="27.3"/>
								<rect x="609.9" y="288.3" fill="#FFFFFF" width="2.8" height="27.3"/>
								<path fill="#FFFFFF" d="M641.1,290.9h-29.8v-5.3h25.5c2.3,0,4.3,1.9,4.3,4.3V290.9z"/>
							</g>
							<g>
								<path fill="#FFFFFF" d="M473.5,187.2h-13.2c-1.3,0-2.4,1.1-2.4,2.4V207c0,1.3,1.1,2.4,2.4,2.4h13.2c1.3,0,2.4-1.1,2.4-2.4
									v-17.5C475.8,188.2,474.8,187.2,473.5,187.2z M461.5,199.2c-0.6-3.7,2.6-6.9,6.3-6.3c2.3,0.4,4.1,2.2,4.5,4.5
									c0.6,3.7-2.6,6.9-6.3,6.3C463.7,203.3,461.9,201.5,461.5,199.2z"/>
								<path fill="#FFFFFF" d="M450.1,187.2h-13.2c-1.3,0-2.4,1.1-2.4,2.4V207c0,1.3,1.1,2.4,2.4,2.4h13.2c1.3,0,2.4-1.1,2.4-2.4
									v-17.5C452.5,188.2,451.4,187.2,450.1,187.2z M438.1,199.2c-0.6-3.7,2.6-6.9,6.3-6.3c2.3,0.4,4.1,2.2,4.5,4.5
									c0.6,3.7-2.6,6.9-6.3,6.3C440.3,203.3,438.5,201.5,438.1,199.2z"/>
								
									<line fill="#FFFFFF" stroke="#FFFFFF" stroke-width="1.4913" stroke-miterlimit="10" x1="487.7" y1="213.8" x2="395.2" y2="213.8"/>
								<polyline fill="#FFFFFF" stroke="#FFFFFF" stroke-width="1.4913" stroke-miterlimit="10" points="419.8,213.9 419.8,233.7 
									352.1,233.7 								"/>
								<g>
									<g>
										<g>
											<path fill="#FFFFFF" d="M359.8,215.4c-2.2,1.4-1.6,2.6,0.8,2c-0.6,2.4,0.6,3,2,0.8c1.4,2.2,2.6,1.6,2-0.8
												c2.4,0.6,3-0.6,0.8-2c2.2-1.4,1.6-2.6-0.8-2c0.6-2.4-0.6-3-2-0.8c-1.4-2.2-2.6-1.6-2,0.8
												C358.2,212.8,357.6,214,359.8,215.4z"/>
										</g>
										
											<line fill="#FFFFFF" stroke="#FFFFFF" stroke-width="0.7161" stroke-miterlimit="10" x1="362.5" y1="215.4" x2="362.5" y2="225.6"/>
									</g>
									<path fill="#FFFFFF" d="M355.4,223.5c0,4,3.2,7.2,7.2,7.2c4,0,7.2-3.2,7.2-7.2"/>
								</g>
								<g>
									<rect x="403" y="208.1" fill="#FFFFFF" width="19.8" height="2"/>
									<rect x="404.3" y="204.7" fill="#FFFFFF" width="19.8" height="2"/>
									<rect x="402.4" y="201.4" fill="#FFFFFF" width="19.8" height="2"/>
								</g>
								<g>
									<path fill="#FFFFFF" d="M379.6,220c0,5.9,2.3,10.7,5.1,10.7c2.8,0,5.1-4.8,5.1-10.7"/>
									
										<line fill="#FFFFFF" stroke="#FFFFFF" stroke-width="0.6107" stroke-linecap="round" stroke-miterlimit="10" x1="384.8" y1="227" x2="384.8" y2="210.5"/>
									<path fill="#FFFFFF" d="M381.2,206.6c0,3.1,1.6,5.5,3.6,5.5c2,0,3.6-2.5,3.6-5.5c0,0-2.7,0.6-3.6,0.6
										C383.9,207.2,381.2,206.6,381.2,206.6z"/>
									<path fill="#FFFFFF" d="M382.3,216c0.7,0.7,2.5,1.2,2.5,1.2s-0.4-1.9-1.1-2.6c-0.7-0.7-1.5-1-1.9-0.6
										C381.4,214.4,381.6,215.3,382.3,216z"/>
								</g>
							</g>
							<g>
								<rect x="586" y="192.5" fill="#FFFFFF" width="2.6" height="25.3"/>
								<circle fill="#FFFFFF" cx="587.3" cy="222.4" r="9"/>
								<path fill="#FFFFFF" d="M571,220.1c3.2-5.7,9.3-9.6,16.3-9.6s13.1,3.9,16.3,9.6H571z"/>
							</g>
							<g>
								<g>
									<rect x="648.8" y="275.1" fill="#FFFFFF" width="88.3" height="5"/>
									<rect x="713.5" y="282.2" fill="#FFFFFF" width="23.6" height="33.4"/>
									<rect x="680.2" y="282.2" fill="#FFFFFF" width="2.6" height="33.4"/>
								</g>
								<g>
									<polygon fill="#FFFFFF" points="668.8,273.4 671.4,273.4 675.6,257.2 673,257.2 									"/>
									<rect x="656.1" y="270.7" fill="#FFFFFF" width="15.3" height="2.7"/>
								</g>
								<g>
									
										<rect x="703" y="263.3" transform="matrix(-0.9322 -0.362 0.362 -0.9322 1264.2839 773.8066)" fill="#FFFFFF" width="3.2" height="10.4"/>
									<rect x="708.5" y="271" fill="#FFFFFF" width="12.6" height="2.2"/>
									<rect x="709.1" y="267.7" fill="#FFFFFF" width="12.6" height="2.2"/>
									<rect x="709.9" y="264.3" fill="#FFFFFF" width="9" height="2.2"/>
									<rect x="708.4" y="261.1" fill="#FFFFFF" width="12.6" height="2.2"/>
								</g>
							</g>
						</g>
						<g>
							<g>
								
									<rect x="801.4" y="530.3" fill="#FFFFFF" stroke="#FFFFFF" stroke-width="2.8573" stroke-miterlimit="10" width="45.3" height="105.3"/>
								
									<line fill="#FFFFFF" stroke="#FFFFFF" stroke-width="2.8573" stroke-miterlimit="10" x1="846.8" y1="530.3" x2="801.4" y2="530.3"/>
								
									<line fill="#FFFFFF" stroke="#FFFFFF" stroke-width="2.8573" stroke-miterlimit="10" x1="846.8" y1="545.4" x2="801.4" y2="545.4"/>
								
									<line fill="#FFFFFF" stroke="#FFFFFF" stroke-width="2.8573" stroke-miterlimit="10" x1="846.8" y1="560.5" x2="801.4" y2="560.5"/>
								
									<line fill="#FFFFFF" stroke="#FFFFFF" stroke-width="2.8573" stroke-miterlimit="10" x1="846.8" y1="575.6" x2="801.4" y2="575.6"/>
								
									<line fill="#FFFFFF" stroke="#FFFFFF" stroke-width="2.8573" stroke-miterlimit="10" x1="846.8" y1="590.7" x2="801.4" y2="590.7"/>
								
									<line fill="#FFFFFF" stroke="#FFFFFF" stroke-width="2.8573" stroke-miterlimit="10" x1="846.8" y1="605.8" x2="801.4" y2="605.8"/>
								<path fill="#FFFFFF" d="M801.4,605.8v29.8h21v-29.8H801.4z M809.5,620.7c0-1.4,1.1-2.4,2.4-2.4c1.4,0,2.4,1.1,2.4,2.4
									c0,1.4-1.1,2.4-2.4,2.4C810.6,623.2,809.5,622.1,809.5,620.7z"/>
								<path fill="#FFFFFF" d="M825.7,605.8v29.8h21v-29.8H825.7z M833.8,620.7c0-1.4,1.1-2.4,2.4-2.4c1.4,0,2.4,1.1,2.4,2.4
									c0,1.4-1.1,2.4-2.4,2.4C834.9,623.2,833.8,622.1,833.8,620.7z"/>
							</g>
							<g>
								<g>
									<path fill="#FFFFFF" d="M923.3,554.6c5.6,0,11.5,13.7,11.5,34c0,20.4-6,34-11.5,34c-5.6,0-11.5-13.7-11.5-34
										C911.8,568.2,917.7,554.6,923.3,554.6z"/>
									<path fill="#FFFFFF" d="M907.3,588.6c0,22.1,7.2,40,16,40c8.8,0,16-17.9,16-40c0-22.1-7.2-40-16-40
										C914.5,548.5,907.3,566.5,907.3,588.6z M909.7,588.6c0-20.2,6-36.1,13.6-36.1c7.6,0,13.6,15.9,13.6,36.1s-6,36.1-13.6,36.1
										C915.7,624.7,909.7,608.8,909.7,588.6z"/>
								</g>
								<path fill="#FFFFFF" stroke="#FFFFFF" stroke-width="3.1307" stroke-miterlimit="10" d="M933.4,617l4.9,15.4
									c0.5,1.5-0.7,3.1-2.3,3.1h-25.4c-1.6,0-2.8-1.6-2.3-3.1l5-15.7"/>
							</g>
							<path fill="#FFFFFF" d="M863,532.6c0,6.6,5.4,12,12,12c6.6,0,12-5.4,12-12c0-6.6-5.4-12-12-12C868.4,520.6,863,526,863,532.6
								z M876,523.6c0,0.6-0.5,1-1.1,1c-0.6,0-1.1-0.5-1-1.1c0-0.6,0.5-1.1,1.1-1C875.6,522.5,876,523,876,523.6z M875,526.9
								c0.2,0,0.4,0.2,0.4,0.4v5.1l4.3,2.6c0.2,0.1,0.3,0.4,0.1,0.6c-0.1,0.1-0.2,0.2-0.4,0.2c-0.1,0-0.1,0-0.2-0.1l-4.6-2.7
								c-0.1-0.1-0.2-0.2-0.2-0.4v-5.3C874.5,527.1,874.7,526.9,875,526.9z M883.3,529c-0.2,0.1-0.3,0.1-0.5,0.1
								c-0.4,0-0.7-0.2-0.9-0.5c-0.3-0.5-0.1-1.1,0.4-1.4c0.5-0.3,1.1-0.1,1.4,0.4C884,528.1,883.8,528.7,883.3,529z M884,533.7
								c-0.6,0-1-0.5-1-1.1c0-0.6,0.5-1.1,1.1-1.1c0.6,0,1.1,0.5,1.1,1.1C885.1,533.2,884.6,533.7,884,533.7z M881.9,536.6
								c0.3-0.5,0.9-0.7,1.4-0.4c0.5,0.3,0.7,0.9,0.4,1.4c-0.2,0.3-0.6,0.5-0.9,0.5c-0.2,0-0.4,0-0.5-0.1
								C881.8,537.8,881.6,537.1,881.9,536.6z M880.4,525.3c-0.2,0.3-0.5,0.5-0.9,0.5c-0.2,0-0.4,0-0.5-0.1
								c-0.5-0.3-0.7-0.9-0.4-1.4c0.3-0.5,0.9-0.7,1.4-0.4C880.5,524.2,880.7,524.8,880.4,525.3z M879,539.5
								c0.5-0.3,1.1-0.1,1.4,0.4c0.3,0.5,0.1,1.1-0.4,1.4c-0.2,0.1-0.3,0.1-0.5,0.1c-0.4,0-0.7-0.2-0.9-0.5
								C878.3,540.5,878.4,539.8,879,539.5z M873.9,541.6c0-0.6,0.5-1.1,1.1-1.1c0.6,0,1.1,0.5,1.1,1.1c0,0.6-0.5,1.1-1.1,1.1
								C874.4,542.7,873.9,542.2,873.9,541.6z M871,525.7c-0.2,0.1-0.3,0.1-0.5,0.1c-0.4,0-0.7-0.2-0.9-0.5
								c-0.3-0.5-0.1-1.1,0.4-1.4c0.5-0.3,1.1-0.1,1.4,0.4C871.7,524.7,871.5,525.4,871,525.7z M869.5,539.9
								c0.3-0.5,0.9-0.7,1.4-0.4c0.5,0.3,0.7,0.9,0.4,1.4c-0.2,0.3-0.5,0.5-0.9,0.5c-0.2,0-0.4,0-0.5-0.1
								C869.4,541,869.2,540.4,869.5,539.9z M868.1,528.6c-0.2,0.3-0.5,0.5-0.9,0.5c-0.2,0-0.4,0-0.5-0.1c-0.5-0.3-0.7-0.9-0.4-1.4
								c0.3-0.5,0.9-0.7,1.4-0.4C868.2,527.4,868.4,528.1,868.1,528.6z M866.6,536.2c0.5-0.3,1.1-0.1,1.4,0.4
								c0.3,0.5,0.1,1.1-0.4,1.4c-0.2,0.1-0.3,0.1-0.5,0.1c-0.4,0-0.7-0.2-0.9-0.5C865.9,537.1,866.1,536.5,866.6,536.2z
								 M864.9,532.6C864.9,532.6,864.9,532.6,864.9,532.6c0-0.6,0.5-1.1,1.1-1.1c0.6,0,1.1,0.5,1,1.1c0,0,0,0,0,0c0,0,0,0,0,0
								c0,0.6-0.5,1.1-1.1,1.1C865.4,533.7,864.9,533.2,864.9,532.6C864.9,532.6,864.9,532.6,864.9,532.6z"/>
							<path fill="#FFFFFF" d="M865.9,608.3h15.9c4.2,0,7.6,3.4,7.6,7.6v11.8v3.4v4.4h-5v-4.4h-21.2v4.4h-5v-4.4v-3.4V616
								C858.3,611.8,861.7,608.3,865.9,608.3z"/>
							<g>
								<circle fill="#FFFFFF" cx="882.2" cy="556.9" r="2.1"/>
								<circle fill="#FFFFFF" cx="875" cy="556.9" r="2.1"/>
								<circle fill="#FFFFFF" cx="867.7" cy="556.9" r="2.1"/>
							</g>
							<g>
								<g>
									<rect x="922" y="498.2" fill="#FFFFFF" width="2.6" height="14.1"/>
									<polygon fill="#FFFFFF" points="937.1,524.5 923.3,509.4 909.6,524.5 									"/>
								</g>
								<circle fill="#FFFFFF" cx="923.3" cy="524.5" r="3.9"/>
							</g>
						</g>
						<g>
							<g>
								<path fill="#FFFFFF" d="M231.7,379.6c0,17.7,10,32,22.3,32c12.3,0,22.3-14.3,22.3-32c0-17.7-10-32-22.3-32
									C241.7,347.7,231.7,362,231.7,379.6z M234.3,379.6c0-16,8.8-29.1,19.7-29.1c10.9,0,19.7,13.1,19.7,29.1
									c0,16-8.8,29.1-19.7,29.1C243.1,408.7,234.3,395.7,234.3,379.6z"/>
								<path fill="#FFFFFF" d="M254,353.9c9,0,16.3,11.5,16.3,25.7s-7.3,25.7-16.3,25.7c-9,0-16.3-11.5-16.3-25.7
									S245,353.9,254,353.9z"/>
							</g>
							<g>
								<g>
									<path fill="#FFFFFF" d="M319.3,470.7h2.9c6.1,0,11.1-5,11.1-11.1V455h-25.1v4.7C308.2,465.7,313.2,470.7,319.3,470.7z"/>
									<path fill="#FFFFFF" d="M320.7,434L320.7,434c5.6,0,10.2,4.6,10.2,10.2v9h-20.4v-9C310.5,438.6,315.1,434,320.7,434z"/>
									<rect x="316.6" y="458.2" fill="#FFFFFF" width="8.2" height="18.7"/>
								</g>
								<g>
									<path fill="#FFFFFF" stroke="#FFFFFF" stroke-width="1.1914" stroke-miterlimit="10" d="M300.8,444.1h-13.7
										c-1.7,0-3.2,1.4-3.2,3.2l0,0c0,1.7,1.4,3.2,3.2,3.2h16.5v-2.4"/>
									<path fill="#FFFFFF" d="M290.9,463.5h5.7c1.6,0,2.9-1.3,2.9-2.9v-10.2H288v10.2C288,462.2,289.3,463.5,290.9,463.5z"/>
								</g>
							</g>
							<g>
								<rect x="275.2" y="418.8" fill="#FFFFFF" width="25.7" height="3.2"/>
								<g>
									<rect x="280" y="414.2" fill="#FFFFFF" width="7" height="3.1"/>
									<g>
										<rect x="290.5" y="406.5" fill="#FFFFFF" width="5.9" height="10.5"/>
										
											<line fill="#FFFFFF" stroke="#FFFFFF" stroke-width="1.0436" stroke-miterlimit="10" x1="295.5" y1="413.5" x2="290.5" y2="399.7"/>
									</g>
								</g>
							</g>
							<g>
								<rect x="229.2" y="433.8" fill="#FFFFFF" width="49.5" height="5.8"/>
								<g>
									<rect x="269" y="473.3" fill="#FFFFFF" width="2.3" height="3.5"/>
									<rect x="236.6" y="473.3" fill="#FFFFFF" width="2.3" height="3.5"/>
								</g>
								<path fill="#FFFFFF" d="M238.4,425.1c0,5.2,7,9.4,15.6,9.4s15.6-4.2,15.6-9.4"/>
								<path fill="#FFFFFF" d="M253.7,418.2h0.5c0.6,0,1.1,0.5,1.1,1.1v8.3c0,0.6-0.5,1.1-1.1,1.1h-0.5c-0.6,0-1.1-0.5-1.1-1.1
									v-8.3C252.6,418.7,253.1,418.2,253.7,418.2z"/>
								<path fill="#FFFFFF" d="M252.5,420.4h2.9c0.9,0,1.6-0.7,1.6-1.6l0,0c0-0.9-0.7-1.6-1.6-1.6h-2.9c-0.9,0-1.6,0.7-1.6,1.6l0,0
									C250.9,419.7,251.6,420.4,252.5,420.4z"/>
								<path fill="#FFFFFF" d="M234.2,466.8v7.4h39.5v-7.4H234.2z M250,469h8v3h-8V469z"/>
								<path fill="#FFFFFF" d="M236.6,440.7v24.9h15.9v-24.9H236.6z M245.9,453.2c0-1.3,1.1-2.4,2.4-2.4c1.3,0,2.4,1.1,2.4,2.4
									c0,1.3-1.1,2.4-2.4,2.4C246.9,455.6,245.9,454.5,245.9,453.2z"/>
								<path fill="#FFFFFF" d="M255.4,440.7v24.9h15.9v-24.9H255.4z M257.3,453.2c0-1.3,1.1-2.4,2.4-2.4s2.4,1.1,2.4,2.4
									c0,1.3-1.1,2.4-2.4,2.4S257.3,454.5,257.3,453.2z"/>
							</g>
							<g>
								
									<line fill="#FFFFFF" stroke="#FFFFFF" stroke-width="1.1038" stroke-miterlimit="10" x1="328.2" y1="359.3" x2="295.2" y2="359.3"/>
								<g>
									
										<rect x="295.2" y="381" fill="#FFFFFF" stroke="#FFFFFF" stroke-width="1.1038" stroke-miterlimit="10" width="33" height="8.5"/>
									<path fill="#FFFFFF" stroke="#FFFFFF" stroke-width="1.1038" stroke-miterlimit="10" d="M295.2,359.3V381h15.3v-21.7H295.2
										z M300.2,370.2c0-1.5,1.2-2.6,2.6-2.6c1.5,0,2.6,1.2,2.6,2.6c0,1.5-1.2,2.6-2.6,2.6C301.4,372.8,300.2,371.6,300.2,370.2z"
										/>
									<path fill="#FFFFFF" stroke="#FFFFFF" stroke-width="1.1038" stroke-miterlimit="10" d="M312.9,359.3V381h15.3v-21.7H312.9
										z M317.9,370.2c0-1.5,1.2-2.6,2.6-2.6s2.6,1.2,2.6,2.6c0,1.5-1.2,2.6-2.6,2.6S317.9,371.6,317.9,370.2z"/>
								</g>
							</g>
						</g>
						<g>
							<g>
								<path fill="#FFFFFF" d="M743.9,635.6h5.7v-23c0-1.1-0.9-2-2-2h-3.7V635.6z"/>
								<path fill="#FFFFFF" d="M702.8,635.6h5.7v-25h-3.7c-1.1,0-2,0.9-2,2V635.6z"/>
								<path fill="#FFFFFF" d="M710.2,620.9h32.1v-22.5c0-3.8-3.1-6.9-6.9-6.9h-18.2c-3.8,0-6.9,3.1-6.9,6.9V620.9z"/>
								<rect x="710.2" y="623.1" fill="#FFFFFF" width="32.1" height="6.6"/>
							</g>
							<g>
								<g>
									<polygon fill="#FFFFFF" points="674.8,610.9 690,610.9 685.8,602 679.1,602 									"/>
									<polygon fill="#FFFFFF" points="684.8,610.2 682.4,613.2 680.1,610.2 									"/>
									
										<line fill="#FFFFFF" stroke="#FFFFFF" stroke-width="1.1392" stroke-miterlimit="10" x1="682.4" y1="606.6" x2="682.4" y2="619.1"/>
									<rect x="678.8" y="618.2" fill="#FFFFFF" width="7.2" height="1.2"/>
								</g>
								<path fill="#FFFFFF" d="M673.8,623v8.3v1.9v2.4h2.8v-2.4h11.7v2.4h2.8v-2.4v-1.9V623c0-1.3-1.1-2.4-2.4-2.4h-12.3
									C674.9,620.6,673.8,621.7,673.8,623z M676.2,623.6h12.5v2.3h-12.5V623.6z"/>
							</g>
							<g>
								<g>
									<polyline fill="#FFFFFF" stroke="#FFFFFF" stroke-width="2.0871" stroke-miterlimit="10" points="744.9,539.4 744.9,550.2 
										744.9,569.4 680.6,569.4 									"/>
									
										<line fill="#FFFFFF" stroke="#FFFFFF" stroke-width="2.0871" stroke-miterlimit="10" x1="700.1" y1="553.2" x2="744.9" y2="553.2"/>
								</g>
								<g>
									<rect x="735.9" y="537.5" fill="#FFFFFF" width="3.6" height="12.7"/>
									<rect x="731.8" y="540.1" fill="#FFFFFF" width="1.8" height="10.2"/>
									
										<rect x="727.7" y="536" transform="matrix(-0.9685 -0.2489 0.2489 -0.9685 1298.7996 1250.354)" fill="#FFFFFF" width="1.5" height="14.2"/>
									<rect x="718.6" y="538.3" fill="#FFFFFF" width="5.3" height="11.9"/>
									<rect x="714.8" y="537.5" fill="#FFFFFF" width="2.5" height="12.7"/>
									
										<rect x="709.8" y="537.5" transform="matrix(-0.9801 0.1986 -0.1986 -0.9801 1516.0129 935.6121)" fill="#FFFFFF" width="2.5" height="12.7"/>
								</g>
								<g>
									
										<rect x="684.7" y="552.1" transform="matrix(0.9586 0.2846 -0.2846 0.9586 187.7029 -172.0461)" fill="#FFFFFF" width="2.2" height="15.3"/>
									<rect x="689.6" y="555.1" fill="#FFFFFF" width="4.1" height="12.3"/>
									<rect x="694.8" y="555.2" fill="#FFFFFF" width="1.9" height="12.1"/>
									<g>
										<rect x="698.3" y="564.6" fill="#FFFFFF" width="12.7" height="2.8"/>
										<rect x="700" y="562.1" fill="#FFFFFF" width="9.8" height="1.6"/>
										<rect x="699.5" y="559.2" fill="#FFFFFF" width="12.7" height="1.9"/>
									</g>
								</g>
							</g>
							<g>
								<g>
									<path fill="#FFFFFF" d="M625.5,590.7c0,2.9,2.3,5.2,5.1,5.2c2.8,0,5.1-2.3,5.1-5.2"/>
									<path fill="#FFFFFF" d="M626.8,584.3c0,2.1,1.7,3.8,3.8,3.8c2.1,0,3.8-1.7,3.8-3.8"/>
									<rect x="629.9" y="581.2" fill="#FFFFFF" width="1.3" height="16"/>
								</g>
								<g>
									<rect x="599" y="599" fill="#FFFFFF" width="63.1" height="3"/>
									<rect x="649.6" y="630.5" fill="#FFFFFF" width="1.8" height="5.1"/>
									<rect x="609.8" y="630.5" fill="#FFFFFF" width="1.8" height="5.1"/>
									<path fill="#FFFFFF" d="M641.4,603.4v12.9h18.2v-12.9H641.4z M648.2,609.8c0-1.2,1-2.3,2.3-2.3c1.2,0,2.3,1,2.3,2.3
										s-1,2.3-2.3,2.3C649.2,612.1,648.2,611.1,648.2,609.8z"/>
									<path fill="#FFFFFF" d="M621.5,603.4v12.9h18.2v-12.9H621.5z M628.3,609.8c0-1.2,1-2.3,2.3-2.3s2.3,1,2.3,2.3
										s-1,2.3-2.3,2.3S628.3,611.1,628.3,609.8z"/>
									<path fill="#FFFFFF" d="M601.5,603.4v12.9h18.2v-12.9H601.5z M608.4,609.8c0-1.2,1-2.3,2.3-2.3s2.3,1,2.3,2.3
										s-1,2.3-2.3,2.3S608.4,611.1,608.4,609.8z"/>
									<path fill="#FFFFFF" d="M601.5,618v11.5v1.5v1.5h58.1V631v-1.5V618h-18.2v11.5h-1.7V618h-18.2v11.5h-1.7V618H601.5z
										 M648.2,624.5c0-1.2,1-2.3,2.3-2.3c1.2,0,2.3,1,2.3,2.3s-1,2.3-2.3,2.3C649.2,626.8,648.2,625.8,648.2,624.5z M628.3,624.5
										c0-1.2,1-2.3,2.3-2.3s2.3,1,2.3,2.3s-1,2.3-2.3,2.3S628.3,625.8,628.3,624.5z M608.4,624.5c0-1.2,1-2.3,2.3-2.3
										s2.3,1,2.3,2.3s-1,2.3-2.3,2.3S608.4,625.8,608.4,624.5z"/>
								</g>
							</g>
							<g>
								<rect x="600.2" y="575.2" fill="#FFFFFF" width="68.3" height="2.4"/>
								<rect x="629.7" y="520.1" fill="#FFFFFF" width="34.4" height="15.2"/>
								<rect x="604.6" y="520.1" fill="#FFFFFF" width="22.4" height="15.2"/>
								<rect x="604.6" y="538" fill="#FFFFFF" width="22.4" height="34.4"/>
								<path fill="#FFFFFF" d="M629.7,538v34.4h34.4V538H629.7z M650.3,559.2c-1.6-1-1.2-1.9,0.6-1.4c-0.5-1.8,0.4-2.2,1.4-0.6
									c1-1.6,1.9-1.2,1.4,0.6c1.8-0.5,2.2,0.4,0.6,1.4c1.6,1,1.2,1.9-0.6,1.4c0.4,1.6-0.3,2.1-1.2,0.9v3.1h1.7l0.9,5.7h-5.8
									l0.9-5.7h1.7v-3.1c-0.9,1.1-1.6,0.7-1.2-0.9C649.2,561.1,648.8,560.2,650.3,559.2z M641.5,559.5l-1.6-0.7
									c-0.2-0.1-0.4-0.4-0.3-0.6c0.1-0.3,0.4-0.4,0.6-0.3l1.6,0.7l-0.7-1.6c-0.1-0.2,0-0.5,0.3-0.6c0.3-0.1,0.5,0,0.6,0.3l0.7,1.6
									l0.7-1.6c0.1-0.3,0.4-0.4,0.6-0.3c0.2,0.1,0.4,0.4,0.3,0.6l-0.7,1.6l1.6-0.7c0.3-0.1,0.5,0,0.6,0.3c0.1,0.2,0,0.5-0.3,0.6
									l-1.6,0.7l1.6,0.7c0.2,0.1,0.4,0.4,0.3,0.6c-0.1,0.2-0.3,0.3-0.5,0.3c-0.1,0-0.1,0-0.2,0l-1.6-0.7l0.7,1.6
									c0.1,0.2,0,0.5-0.3,0.6c-0.1,0-0.1,0-0.2,0c-0.2,0-0.4-0.1-0.5-0.3l-0.4-1.1v3.4h2.7l-0.9,5.7h-4l-0.9-5.7h2.7v-3.3l-0.4,1
									c-0.1,0.2-0.3,0.3-0.5,0.3c-0.1,0-0.1,0-0.2,0c-0.2-0.1-0.4-0.4-0.3-0.6l0.7-1.6l-1.6,0.7c-0.1,0-0.1,0-0.2,0
									c-0.2,0-0.4-0.1-0.5-0.3c-0.1-0.2,0-0.5,0.3-0.6L641.5,559.5z"/>
							</g>
						</g>
					</g>
				</g>
			</g>
		</g>
	</g>
	<line fill="none" x1="78.4" y1="800" x2="78.4" y2="0"/>
	<line fill="none" x1="878.4" y1="0" x2="878.4" y2="800"/>
	
		<rect x="774.4" y="454" fill="none" stroke="#FFFFFF" stroke-width="16.9498" stroke-linecap="round" stroke-linejoin="round" stroke-miterlimit="10" width="191.4" height="197"/>
</g>
<g id="Layer_3">
	<g>
		<g>
			<polygon fill="#FFFFFF" points="259.3,577.8 237.3,551.3 201.6,551.3 201.6,577.8 			"/>
		</g>
		<g>
			<path fill="#FFFFFF" d="M186.6,551.3v26.5h-49.7c0,0,2.2-21.4,7.7-25.3C150,548.7,186.6,551.3,186.6,551.3z"/>
		</g>
		<path fill="#FFFFFF" d="M70.9,629.7c3.6,5.2,10.1,5.5,13.4,5.2c3.2,13.1,15,22.8,29,22.8c13.3,0,24.6-8.7,28.5-20.7h124.5
			c3.9,12,15.1,20.7,28.5,20.7c13.3,0,24.5-8.7,28.4-20.7c0.4,0,0.9,0,1.4,0c6,0,18.2-0.7,22.6-5.9c5.5-6.5-0.6-34.8-1.8-40.4
			c-3.8-15.2-24.7-18.6-25.6-18.8l-0.2,0l-37.8,1.3L245,538.1l-0.8,0c-3.9-0.1-96.4-1.6-107.3,0c-10.9,1.6-22.5,29.7-25.1,36.3
			c-8.4,1.4-37.9,6.5-42.9,11.2C62.9,591.3,66.2,622.9,70.9,629.7z M272.6,627.8c0-12.2,9.9-22.1,22.1-22.1
			c12.2,0,22.1,9.9,22.1,22.1c0,12.2-9.9,22.1-22.1,22.1C282.5,649.9,272.6,640,272.6,627.8z M91.2,627.8c0-12.2,9.9-22.1,22.1-22.1
			c12.2,0,22.1,9.9,22.1,22.1c0,12.2-9.9,22.1-22.1,22.1C101.1,649.9,91.2,640,91.2,627.8z M71.6,588.5c3.4-3.2,27.6-8.1,42-10.4
			l1.1-0.2l0.4-1.1C120,564,130.4,543,137.5,542c10.1-1.5,96.7-0.1,105.9,0l36.8,35.2l39.1-1.3c1.9,0.3,19.2,3.8,22.2,15.8
			c3,13.1,5.7,33.3,2.6,36.9c-2.9,3.4-12.9,4.5-20.1,4.5c0.3-1.7,0.5-3.5,0.5-5.3c0-16.5-13.4-29.9-29.9-29.9
			c-16.5,0-29.9,13.4-29.9,29.9c0,1.8,0.2,3.5,0.5,5.2H142.7c0.3-1.7,0.5-3.4,0.5-5.2c0-16.5-13.4-29.9-29.9-29.9
			c-16.5,0-29.9,13.4-29.9,29.9c0,1.1,0.1,2.2,0.2,3.3c-2.6,0.1-7.1-0.2-9.4-3.6C70.2,621.8,67.5,592.3,71.6,588.5z"/>
	</g>
</g>
</svg>
