<?xml version="1.0" encoding="utf-8"?>
<!-- Generator: Adobe Illustrator 17.1.0, SVG Export Plug-In . SVG Version: 6.00 Build 0)  -->
<!DOCTYPE svg PUBLIC "-//W3C//DTD SVG 1.1//EN" "http://www.w3.org/Graphics/SVG/1.1/DTD/svg11.dtd">
<svg version="1.1" xmlns="http://www.w3.org/2000/svg" xmlns:xlink="http://www.w3.org/1999/xlink" x="0px" y="0px"
	 viewBox="0 0 42 42" enable-background="new 0 0 42 42" xml:space="preserve">
<g id="Ellipse_2_1_" enable-background="new    ">
	<g id="Ellipse_2">
		<g>
			<circle fill-rule="evenodd" clip-rule="evenodd" fill="#7D7D7D" cx="21" cy="21" r="21"/>
		</g>
	</g>
</g>
<g id="LN_1_" enable-background="new    ">
	<g id="LN">
		<g>
			<path fill-rule="evenodd" clip-rule="evenodd" fill="#FFFFFF" d="M29.2,17.7c-1.4-0.7-3.6-0.7-4.9,0.2c-0.3,0.2-0.6,0.4-0.8,0.7
				c-0.3,0.3-0.4,0.5-0.6,0.8c0,0,0,0-0.1,0.1v-1.9h-4.5l0,3.8c0,3.3,0,6.5,0,9.7h4.5v-7.4c0-0.7,0-1.1,0.3-1.6
				c0.1-0.2,0.2-0.3,0.3-0.4c0.2-0.2,0.1-0.1,0.3-0.3c0.9-0.8,2.5-0.7,3.3,0.3c0.3,0.5,0.5,1.3,0.5,2.2V31H32v-8.1
				C32,20.8,31.2,18.7,29.2,17.7z M15.7,17.5h-4.5V31h4.5c0.1,0,0.1,0,0.1-0.1L15.7,17.5C15.8,17.5,15.8,17.5,15.7,17.5z M15,11.4
				c-0.1-0.1-0.3-0.1-0.4-0.2c-0.6-0.2-1.5-0.3-2.1,0c-0.5,0.2-1,0.6-1.3,1.1c-0.1,0.2-0.3,0.6-0.3,0.9c0,0.6,0,0.8,0.3,1.3
				c0.8,1.5,3,1.6,4,0.6c0.6-0.5,0.8-1,0.8-1.8c0-0.5-0.3-1.3-0.7-1.6C15.2,11.5,15.1,11.5,15,11.4z"/>
		</g>
	</g>
</g>
</svg>
