<?xml version="1.0" encoding="utf-8"?>
<!-- Generator: Adobe Illustrator 17.1.0, SVG Export Plug-In . SVG Version: 6.00 Build 0)  -->
<!DOCTYPE svg PUBLIC "-//W3C//DTD SVG 1.1//EN" "http://www.w3.org/Graphics/SVG/1.1/DTD/svg11.dtd">
<svg version="1.1" xmlns="http://www.w3.org/2000/svg" xmlns:xlink="http://www.w3.org/1999/xlink" x="0px" y="0px"
	 viewBox="0 0 24 24" enable-background="new 0 0 24 24" xml:space="preserve">
<g id="Ellipse_3_1_" enable-background="new    ">
	<g id="Ellipse_3">
		<g>
			<path fill="#0088CC" d="M12,1c6.1,0,11,4.9,11,11s-4.9,11-11,11C5.9,23,1,18.1,1,12S5.9,1,12,1 M12,0C5.4,0,0,5.4,0,12
				c0,6.6,5.4,12,12,12c6.6,0,12-5.4,12-12C24,5.4,18.6,0,12,0L12,0z"/>
		</g>
	</g>
</g>
<g id="Shape_1_1_" enable-background="new    ">
	<g id="Shape_1">
		<g>
			<polygon fill="#0088CC" points="12.5,5 11.4,5 11.4,20 12.5,20 12.5,5 			"/>
		</g>
	</g>
</g>
<g id="Shape_1_copy_1_" enable-background="new    ">
	<g id="Shape_1_copy">
		<g>
			<polygon fill="#0088CC" points="19,11.5 4,11.5 4,12.6 19,12.6 19,11.5 			"/>
		</g>
	</g>
</g>
</svg>
