<?xml version="1.0" encoding="utf-8"?>
<!-- Generator: Adobe Illustrator 17.1.0, SVG Export Plug-In . SVG Version: 6.00 Build 0)  -->
<!DOCTYPE svg PUBLIC "-//W3C//DTD SVG 1.1//EN" "http://www.w3.org/Graphics/SVG/1.1/DTD/svg11.dtd">
<svg version="1.1" id="objects" xmlns="http://www.w3.org/2000/svg" xmlns:xlink="http://www.w3.org/1999/xlink" x="0px" y="0px"
	 viewBox="0 0 800 800" enable-background="new 0 0 800 800" xml:space="preserve">
<g>
	<g>
		<g>
			<g>
				<g>
					<g>
						<g>
							
								<rect x="108" y="491.4" fill="none" stroke="#FFFFFF" stroke-width="16.9498" stroke-linecap="round" stroke-linejoin="round" stroke-miterlimit="10" width="191.4" height="159.6"/>
							
								<rect x="495.7" y="491.4" fill="none" stroke="#FFFFFF" stroke-width="16.9498" stroke-linecap="round" stroke-linejoin="round" stroke-miterlimit="10" width="196.3" height="159.6"/>
							
								<rect x="299.4" y="330.4" fill="none" stroke="#FFFFFF" stroke-width="16.9498" stroke-linecap="round" stroke-linejoin="round" stroke-miterlimit="10" width="279.7" height="161"/>
							
								<rect x="579" y="330.4" fill="none" stroke="#FFFFFF" stroke-width="16.9498" stroke-linecap="round" stroke-linejoin="round" stroke-miterlimit="10" width="113" height="161"/>
							
								<polyline fill="none" stroke="#FFFFFF" stroke-width="16.9498" stroke-linecap="round" stroke-linejoin="round" stroke-miterlimit="10" points="
								153.9,381.2 153.9,286.6 508.4,119.9 692,250.6 692,381.2 							"/>
							
								<line fill="none" stroke="#FFFFFF" stroke-width="16.9498" stroke-linecap="round" stroke-linejoin="round" stroke-miterlimit="10" x1="508.4" y1="119.9" x2="715.3" y2="267.2"/>
							
								<line fill="none" stroke="#FFFFFF" stroke-width="16.9498" stroke-linecap="round" stroke-linejoin="round" stroke-miterlimit="10" x1="508.4" y1="119.9" x2="129.8" y2="297.9"/>
							
								<polyline fill="none" stroke="#FFFFFF" stroke-width="16.9498" stroke-linecap="round" stroke-linejoin="round" stroke-miterlimit="10" points="
								153.9,450.5 84.7,509.4 108,509.4 							"/>
							
								<polygon fill="none" stroke="#FFFFFF" stroke-width="16.9498" stroke-linecap="round" stroke-linejoin="round" stroke-miterlimit="10" points="
								115.2,483.4 146.8,483.4 146.8,459.2 							"/>
							
								<rect x="300.5" y="491.5" fill="none" stroke="#FFFFFF" stroke-width="16.9498" stroke-linecap="round" stroke-linejoin="round" stroke-miterlimit="10" width="196.3" height="159.6"/>
							
								<rect x="153.7" y="330.4" fill="none" stroke="#FFFFFF" stroke-width="16.9498" stroke-linecap="round" stroke-linejoin="round" stroke-miterlimit="10" width="145.5" height="161"/>
						</g>
					</g>
					<g>
						<rect x="231.4" y="536.2" fill="#FFFFFF" width="7.4" height="6.5"/>
						<rect x="243.9" y="551.3" fill="#FFFFFF" width="5.3" height="6.5"/>
						<rect x="236.1" y="551.3" fill="#FFFFFF" width="5.3" height="6.5"/>
						<path fill="#FFFFFF" d="M263.9,569c0,2.3-1.9,4.2-4.2,4.2c-2.3,0-4.2-1.9-4.2-4.2"/>
						<g>
							<path fill="#FFFFFF" d="M536.4,515c-6.6,0-12,5.4-12,12c0,6.6,5.4,12,12,12c6.6,0,12-5.4,12-12
								C548.4,520.3,543,515,536.4,515z M536.4,516.9c0.6,0,1.1,0.5,1.1,1c0,0.6-0.5,1.1-1,1.1c-0.6,0-1.1-0.5-1.1-1
								C535.3,517.3,535.8,516.9,536.4,516.9z M536.8,521.6v5.3c0,0.1-0.1,0.3-0.2,0.4L532,530c-0.1,0-0.1,0.1-0.2,0.1
								c-0.1,0-0.3-0.1-0.4-0.2c-0.1-0.2-0.1-0.5,0.1-0.6l4.3-2.6v-5.1c0-0.2,0.2-0.4,0.4-0.4C536.6,521.2,536.8,521.4,536.8,521.6z
								 M527.6,521.9c0.3-0.5,0.9-0.7,1.4-0.4c0.5,0.3,0.7,0.9,0.4,1.4c-0.2,0.3-0.6,0.5-0.9,0.5c-0.2,0-0.4,0-0.5-0.1
								C527.5,523.1,527.4,522.4,527.6,521.9z M526.3,527c0-0.6,0.5-1.1,1.1-1.1c0.6,0,1.1,0.5,1.1,1.1c0,0.6-0.5,1.1-1,1.1
								C526.8,528,526.3,527.5,526.3,527z M529.1,532.4c-0.2,0.1-0.3,0.1-0.5,0.1c-0.4,0-0.7-0.2-0.9-0.5c-0.3-0.5-0.1-1.1,0.4-1.4
								c0.5-0.3,1.1-0.1,1.4,0.4C529.8,531.5,529.6,532.1,529.1,532.4z M531.3,518.2c0.5-0.3,1.1-0.1,1.4,0.4
								c0.3,0.5,0.1,1.1-0.4,1.4c-0.2,0.1-0.3,0.1-0.5,0.1c-0.4,0-0.7-0.2-0.9-0.5C530.6,519.2,530.8,518.5,531.3,518.2z
								 M532.8,535.3c-0.2,0.3-0.5,0.5-0.9,0.5c-0.2,0-0.4,0-0.5-0.1c-0.5-0.3-0.7-0.9-0.4-1.4c0.3-0.5,0.9-0.7,1.4-0.4
								C532.9,534.2,533.1,534.8,532.8,535.3z M536.4,537c-0.6,0-1.1-0.5-1.1-1.1c0-0.6,0.5-1.1,1.1-1.1c0.6,0,1.1,0.5,1.1,1.1
								C537.4,536.6,537,537,536.4,537z M540,518.6c0.3-0.5,0.9-0.7,1.4-0.4c0.5,0.3,0.7,0.9,0.4,1.4c-0.2,0.3-0.5,0.5-0.9,0.5
								c-0.2,0-0.4,0-0.5-0.1C539.8,519.7,539.7,519.1,540,518.6z M541.4,535.7c-0.2,0.1-0.3,0.1-0.5,0.1c-0.4,0-0.7-0.2-0.9-0.5
								c-0.3-0.5-0.1-1.1,0.4-1.4c0.5-0.3,1.1-0.1,1.4,0.4C542.1,534.7,541.9,535.4,541.4,535.7z M543.7,521.5
								c0.5-0.3,1.1-0.1,1.4,0.4c0.3,0.5,0.1,1.1-0.4,1.4c-0.2,0.1-0.3,0.1-0.5,0.1c-0.4,0-0.7-0.2-0.9-0.5
								C543,522.4,543.2,521.8,543.7,521.5z M545.1,532c-0.2,0.3-0.5,0.5-0.9,0.5c-0.2,0-0.4,0-0.5-0.1c-0.5-0.3-0.7-0.9-0.4-1.4
								c0.3-0.5,0.9-0.7,1.4-0.4C545.2,530.8,545.4,531.5,545.1,532z M546.5,526.9c0,0.6-0.5,1.1-1.1,1.1s-1.1-0.5-1.1-1.1
								c0,0,0,0,0,0c0,0,0,0,0,0c0-0.6,0.5-1.1,1-1.1C546,525.9,546.5,526.3,546.5,526.9C546.5,526.9,546.5,526.9,546.5,526.9
								C546.5,526.9,546.5,526.9,546.5,526.9z"/>
							<g>
								<path fill="#FFFFFF" d="M521.4,613.1h-5v-32.5h1.2c2.1,0,3.7,1.7,3.7,3.7V613.1z"/>
								<rect x="537" y="611.6" fill="#FFFFFF" width="2.5" height="24"/>
								<rect x="516.4" y="611.6" fill="#FFFFFF" width="2.5" height="24"/>
								<path fill="#FFFFFF" d="M543.8,614h-26.2v-4.7h22.4c2.1,0,3.7,1.7,3.7,3.7V614z"/>
							</g>
							<g>
								<path fill="#FFFFFF" d="M666.1,613.1h5v-32.5h-1.2c-2.1,0-3.7,1.7-3.7,3.7V613.1z"/>
								<rect x="648.1" y="611.6" fill="#FFFFFF" width="2.5" height="24"/>
								<rect x="668.6" y="611.6" fill="#FFFFFF" width="2.5" height="24"/>
								<path fill="#FFFFFF" d="M643.7,614h26.2v-4.7h-22.4c-2.1,0-3.7,1.7-3.7,3.7V614z"/>
							</g>
							<g>
								<g>
									<g>
										<rect x="543.1" y="584.7" fill="#FFFFFF" width="101.2" height="6.2"/>
									</g>
									<g>
										<rect x="564.3" y="589" fill="#FFFFFF" width="6.2" height="46.6"/>
										<rect x="617.1" y="589" fill="#FFFFFF" width="6.2" height="46.6"/>
									</g>
								</g>
								<g>
									<path fill="#FFFFFF" d="M574.4,575.2c0,4.2-4.2,7.6-9.5,7.6c-5.2,0-9.5-3.4-9.5-7.6"/>
									<path fill="#FFFFFF" d="M632,575.2c0,4.2-4.2,7.6-9.5,7.6c-5.2,0-9.5-3.4-9.5-7.6"/>
									<g>
										<path fill="#FFFFFF" d="M596.7,582.8h-5.9c-1,0-1.9-0.8-1.9-1.9v-11.6c0-2.6,2.2-4.8,4.8-4.8l0,0c2.6,0,4.8,2.2,4.8,4.8
											V581C598.6,582,597.7,582.8,596.7,582.8z"/>
										<path fill="#FFFFFF" d="M593.8,556.7L593.8,556.7c-0.9,0-1.7,0.8-1.7,1.7v16.5c0,0.9,0.8,1.7,1.7,1.7l0,0
											c0.9,0,1.7-0.8,1.7-1.7v-16.5C595.5,557.5,594.7,556.7,593.8,556.7z"/>
									</g>
								</g>
							</g>
							<g>
								<rect x="587.5" y="539.3" fill="#FFFFFF" width="40.3" height="4.2"/>
								<g>
									<path fill="#FFFFFF" d="M599.4,537.4h-7.8c-0.5,0-0.9-0.4-0.9-0.9v-4.9c0-0.5,0.4-0.9,0.9-0.9h7.8c0.5,0,0.9,0.4,0.9,0.9
										v4.9C600.3,537,599.9,537.4,599.4,537.4z"/>
									<path fill="#FFFFFF" d="M597.6,530h-4.2c-0.3,0-0.6-0.3-0.6-0.6l0,0c0-0.3,0.3-0.6,0.6-0.6h4.2c0.3,0,0.6,0.3,0.6,0.6l0,0
										C598.3,529.7,598,530,597.6,530z"/>
								</g>
								<g>
									<path fill="#FFFFFF" d="M609.7,534.3c-0.1-1.2-1.1-2.2-2.3-2.2c-1.2,0-2.2,1-2.3,2.2H609.7z"/>
									<path fill="#FFFFFF" d="M605,534.7v1.7c0,0.4,0.3,0.7,0.7,0.7h3.3c0.4,0,0.7-0.3,0.7-0.7v-1.7H605z"/>
								</g>
								<g>
									<path fill="#FFFFFF" d="M616,534.4c-0.1-1.2-1.1-2.2-2.3-2.2c-1.2,0-2.2,1-2.3,2.2H616z"/>
									<path fill="#FFFFFF" d="M611.4,534.8v1.7c0,0.4,0.3,0.7,0.7,0.7h3.3c0.4,0,0.7-0.3,0.7-0.7v-1.7H611.4z"/>
								</g>
							</g>
							<g>
								<rect x="620.9" y="526.1" fill="#FFFFFF" width="44.5" height="3.6"/>
								<g>
									<path fill="#FFFFFF" d="M639,523.8l2.7-11.2c0.2-0.8,1.4-0.8,1.5,0l2.7,11.2c0.1,0.5-0.3,1-0.8,1h-5.3
										C639.2,524.8,638.9,524.3,639,523.8z"/>
									<circle fill="#FFFFFF" cx="642.4" cy="510.5" r="0.8"/>
								</g>
								<g>
									<path fill="#FFFFFF" d="M657.2,520c-0.1-2-1.8-3.7-3.8-3.7c-2.1,0-3.7,1.6-3.8,3.7H657.2z"/>
									<path fill="#FFFFFF" d="M649.5,520.7v2.9c0,0.6,0.5,1.1,1.1,1.1h5.4c0.6,0,1.1-0.5,1.1-1.1v-2.9H649.5z"/>
									<path fill="#FFFFFF" d="M653.4,515.7L653.4,515.7c-0.1,0-0.3,0.1-0.3,0.3v1.5c0,0.1,0.1,0.3,0.3,0.3l0,0
										c0.1,0,0.3-0.1,0.3-0.3V516C653.6,515.9,653.5,515.7,653.4,515.7z"/>
								</g>
								<g>
									<g>
										<path fill="#FFFFFF" d="M633.2,524.8H628c-0.5,0-0.9-0.4-0.9-0.9v-7.1c0-0.5,0.4-0.9,0.9-0.9h5.2c0.5,0,0.9,0.4,0.9,0.9
											v7.1C634.1,524.4,633.7,524.8,633.2,524.8z"/>
										<path fill="#FFFFFF" d="M631.7,515.2h-2.3c-0.5,0-0.8-0.4-0.8-0.8l0,0c0-0.5,0.4-0.8,0.8-0.8h2.3c0.5,0,0.8,0.4,0.8,0.8
											l0,0C632.6,514.8,632.2,515.2,631.7,515.2z"/>
									</g>
									<circle fill="none" stroke="#FFFFFF" stroke-width="0.5637" stroke-miterlimit="10" cx="634.1" cy="520" r="1.5"/>
								</g>
							</g>
						</g>
						<g>
							<g>
								<rect x="324.6" y="384.5" fill="#FFFFFF" width="26.1" height="4.2"/>
								<g>
									<polygon fill="#FFFFFF" points="337.3,382.7 326.7,382.7 328.4,375.1 335.6,375.1 									"/>
									<polygon fill="#FFFFFF" points="348.7,375.1 340.9,375.1 342.2,382.7 347.5,382.7 									"/>
									<g>
										<path fill="#FFFFFF" d="M334.1,367.8c3.5,1.5,2.9,2.9-0.6,1.4c1.5,3.5,0.1,4.1-1.4,0.6c-1.5,3.5-2.9,2.9-1.4-0.6
											c-3.5,1.5-4.1,0.1-0.6-1.4c-3.5-1.5-2.9-2.9,0.6-1.4c-1.5-3.5-0.1-4.1,1.4-0.6c1.5-3.5,2.9-2.9,1.4,0.6
											C336.9,364.9,337.5,366.2,334.1,367.8z"/>
									</g>
									
										<line fill="none" stroke="#FFFFFF" stroke-width="0.696" stroke-miterlimit="10" x1="332" y1="367.8" x2="332" y2="377.7"/>
									
										<line fill="none" stroke="#FFFFFF" stroke-width="0.696" stroke-miterlimit="10" x1="344.8" y1="368.1" x2="344.8" y2="378"/>
									<g>
										
											<line fill="none" stroke="#FFFFFF" stroke-width="2.4359" stroke-linecap="round" stroke-miterlimit="10" x1="342.2" y1="369.2" x2="347.5" y2="367"/>
										
											<line fill="none" stroke="#FFFFFF" stroke-width="2.4359" stroke-linecap="round" stroke-miterlimit="10" x1="343.7" y1="370.7" x2="345.9" y2="365.5"/>
										
											<line fill="none" stroke="#FFFFFF" stroke-width="2.4359" stroke-linecap="round" stroke-miterlimit="10" x1="345.9" y1="370.7" x2="343.8" y2="365.5"/>
										
											<line fill="none" stroke="#FFFFFF" stroke-width="2.4359" stroke-linecap="round" stroke-miterlimit="10" x1="347.4" y1="369.2" x2="342.2" y2="367"/>
									</g>
								</g>
							</g>
							<g>
								
									<rect x="509" y="376.9" fill="none" stroke="#FFFFFF" stroke-width="3.1824" stroke-miterlimit="10" width="51.1" height="31.2"/>
								
									<rect x="509" y="408.1" fill="none" stroke="#FFFFFF" stroke-width="3.1824" stroke-miterlimit="10" width="51.1" height="31.2"/>
								
									<rect x="509" y="439.4" fill="none" stroke="#FFFFFF" stroke-width="3.1824" stroke-miterlimit="10" width="51.1" height="31.2"/>
								<g>
									<rect x="511.7" y="470.6" fill="#FFFFFF" width="4.6" height="6.2"/>
									<rect x="552.9" y="470.6" fill="#FFFFFF" width="4.6" height="6.2"/>
								</g>
								<rect x="514" y="387" fill="#FFFFFF" width="5" height="17.4"/>
								<rect x="522.2" y="390.4" fill="#FFFFFF" width="2.5" height="14"/>
								
									<rect x="528.1" y="384.9" transform="matrix(0.9685 -0.249 0.249 0.9685 -81.6022 144.1604)" fill="#FFFFFF" width="2.1" height="19.5"/>
								<rect x="535.3" y="388.2" fill="#FFFFFF" width="7.3" height="16.3"/>
								<rect x="544.4" y="387" fill="#FFFFFF" width="3.4" height="17.4"/>
								
									<rect x="551.3" y="387" transform="matrix(0.9801 0.1986 -0.1986 0.9801 89.6168 -101.9457)" fill="#FFFFFF" width="3.4" height="17.4"/>
								
									<rect x="533.6" y="422.9" transform="matrix(0.9322 -0.362 0.362 0.9322 -119.25 223.0967)" fill="#FFFFFF" width="4.3" height="13.8"/>
								<rect x="514" y="433.2" fill="#FFFFFF" width="16.6" height="3"/>
								<rect x="513.1" y="428.7" fill="#FFFFFF" width="16.6" height="3"/>
								<rect x="516.9" y="424.3" fill="#FFFFFF" width="11.9" height="3"/>
								<rect x="514.1" y="420" fill="#FFFFFF" width="16.6" height="3"/>
								<rect x="512.6" y="445.3" fill="#FFFFFF" width="2.4" height="21.7"/>
								<rect x="516.4" y="451.4" fill="#FFFFFF" width="2.4" height="15.7"/>
								<rect x="520.3" y="448.8" fill="#FFFFFF" width="2.4" height="18.3"/>
								<rect x="524.2" y="452.4" fill="#FFFFFF" width="2.4" height="14.7"/>
								<rect x="528.1" y="446.9" fill="#FFFFFF" width="2.4" height="20.1"/>
							</g>
							<g>
								
									<rect x="324.1" y="451.7" fill="none" stroke="#FFFFFF" stroke-width="1.9327" stroke-miterlimit="10" width="36.7" height="15.5"/>
								
									<line fill="none" stroke="#FFFFFF" stroke-width="1.9327" stroke-miterlimit="10" x1="324.1" y1="451.7" x2="324.1" y2="476.8"/>
								
									<line fill="none" stroke="#FFFFFF" stroke-width="1.9327" stroke-miterlimit="10" x1="360.7" y1="451.7" x2="360.7" y2="476.8"/>
								<path fill="#FFFFFF" d="M351.7,439.1c0,5.1-4.2,9.3-9.3,9.3c-5.1,0-9.3-4.2-9.3-9.3"/>
							</g>
							<g>
								<g>
									<path fill="#FFFFFF" d="M378.3,476.8h-6v-20.1c0-1.1,0.9-1.9,1.9-1.9h4.1V476.8z"/>
									<path fill="#FFFFFF" d="M496.6,476.8h-6v-22.1h4.1c1.1,0,1.9,0.9,1.9,1.9V476.8z"/>
								</g>
								<g>
									<path fill="#FFFFFF" d="M414.3,463.8h-33.6v-19.3c0-3.7,3-6.7,6.7-6.7h20.3c3.7,0,6.7,3,6.7,6.7V463.8z"/>
									<path fill="#FFFFFF" d="M451.2,463.8h-33.6v-19.3c0-3.7,3-6.7,6.7-6.7h20.3c3.7,0,6.7,3,6.7,6.7V463.8z"/>
									<path fill="#FFFFFF" d="M488.1,463.8h-33.6v-19.3c0-3.7,3-6.7,6.7-6.7h20.3c3.7,0,6.7,3,6.7,6.7V463.8z"/>
									<rect x="380.7" y="465.8" fill="#FFFFFF" width="107.4" height="5.9"/>
								</g>
							</g>
							<g>
								
									<rect x="397.5" y="372.3" fill="none" stroke="#FFFFFF" stroke-width="3.1307" stroke-miterlimit="10" width="73.7" height="33.2"/>
								<g>
									<polygon fill="#FFFFFF" points="405.4,396.5 414.1,381.4 422.8,396.5 									"/>
									<polygon fill="#FFFFFF" points="425.7,381.4 434.4,396.5 443.1,381.4 									"/>
									<polygon fill="#FFFFFF" points="446.1,396.5 454.8,381.4 463.5,396.5 									"/>
								</g>
							</g>
						</g>
						<g>
							<g>
								<rect x="596.8" y="406.9" fill="#FFFFFF" width="29" height="2.4"/>
								<path fill="#FFFFFF" d="M618.2,431.6h-13.7c-2,0-3.6-1.6-3.6-3.6v-20h20.9v20C621.7,430,620.1,431.6,618.2,431.6z"/>
							</g>
							<g>
								<path fill="#FFFFFF" d="M623,472h32.8c8.5,0,15.4-6.9,15.4-15.4v-8h-63.5v8C607.6,465.1,614.6,472,623,472z"/>
								<rect x="605.4" y="446.3" fill="#FFFFFF" width="68.1" height="3.4"/>
								<g>
									<rect x="654.4" y="470.6" fill="#FFFFFF" width="3.1" height="6.3"/>
									<rect x="621.2" y="470.6" fill="#FFFFFF" width="3.1" height="6.3"/>
								</g>
								<path fill="none" stroke="#FFFFFF" stroke-width="2.0386" stroke-miterlimit="10" d="M666.1,448.1v-46c0,0,1-14.9-14-2.7"/>
								<path fill="#FFFFFF" d="M644.5,397.5c3.4-1.2,6.6-0.8,8.2,1.3c1.6,2.1,1.1,5.4-1,8.3L644.5,397.5z"/>
							</g>
							<g>
								<rect x="604.4" y="351.1" fill="#FFFFFF" width="29.9" height="13.2"/>
								<rect x="636.7" y="351.1" fill="#FFFFFF" width="29.9" height="13.2"/>
								<rect x="636.7" y="366.7" fill="#FFFFFF" width="29.9" height="13.2"/>
								<rect x="604.4" y="366.7" fill="#FFFFFF" width="29.9" height="13.2"/>
							</g>
						</g>
						<g>
							<g>
								<path fill="#FFFFFF" d="M423.4,201.2v99.2h26.2v-99.2H423.4z M430.9,256.2c-1.2,0-2.2-2.4-2.2-5.3c0-2.9,1-5.3,2.2-5.3
									c1.2,0,2.2,2.4,2.2,5.3C433.2,253.8,432.2,256.2,430.9,256.2z"/>
								<path fill="#FFFFFF" d="M395,201.2v99.2h26.2v-99.2H395z M413.6,256.2c-1.2,0-2.2-2.4-2.2-5.3c0-2.9,1-5.3,2.2-5.3
									c1.2,0,2.2,2.4,2.2,5.3C415.8,253.8,414.8,256.2,413.6,256.2z"/>
								<polygon fill="#FFFFFF" points="395,302.7 395,309.9 395,311 395,315.6 401.5,315.6 401.5,311 443,311 443,315.6 
									449.5,315.6 449.5,311 449.5,309.9 449.5,302.7 								"/>
							</g>
							<g>
								<polygon fill="#FFFFFF" points="464.9,302.7 464.9,308.7 464.9,310.1 464.9,315.6 472.7,315.6 472.7,310.1 503.1,310.1 
									503.1,315.6 510.9,315.6 510.9,310.1 510.9,308.7 510.9,302.7 								"/>
								<rect x="464.9" y="272.2" fill="#FFFFFF" width="46" height="4.1"/>
								<path fill="#FFFFFF" d="M488.8,278.1v22.3h22.1v-22.3H488.8z M499.9,291.6c-1.3,0-2.3-1-2.3-2.3c0-1.3,1-2.3,2.3-2.3
									c1.3,0,2.3,1,2.3,2.3C502.2,290.5,501.1,291.6,499.9,291.6z"/>
								<path fill="#FFFFFF" d="M464.9,278.1v22.3h22.1v-22.3H464.9z M475.9,291.6c-1.3,0-2.3-1-2.3-2.3c0-1.3,1-2.3,2.3-2.3
									c1.3,0,2.3,1,2.3,2.3C478.2,290.5,477.2,291.6,475.9,291.6z"/>
							</g>
							<g>
								<rect x="525.8" y="290.1" fill="#FFFFFF" width="133" height="18.2"/>
								<rect x="531.5" y="287.3" fill="#FFFFFF" width="125.5" height="18.2"/>
								<rect x="642.4" y="302.8" fill="#FFFFFF" width="6.4" height="12.8"/>
								<rect x="533.1" y="302.8" fill="#FFFFFF" width="6.4" height="12.8"/>
								<path fill="#FFFFFF" d="M603,284.1h50.1v-6.9c0-4.3-3.5-7.7-7.7-7.7h-34.7c-4.3,0-7.7,3.5-7.7,7.7V284.1z"/>
								<rect x="655.2" y="268.6" fill="#FFFFFF" width="3.6" height="23.2"/>
							</g>
							<g>
								<path fill="#FFFFFF" d="M338.6,290h5.7v-37h-1.4c-2.3,0-4.3,1.9-4.3,4.3V290z"/>
								<rect x="318.1" y="288.3" fill="#FFFFFF" width="2.8" height="27.3"/>
								<rect x="341.5" y="288.3" fill="#FFFFFF" width="2.8" height="27.3"/>
								<path fill="#FFFFFF" d="M313.1,290.9h29.8v-5.3h-25.5c-2.3,0-4.3,1.9-4.3,4.3V290.9z"/>
							</g>
							<g>
								<path fill="#FFFFFF" d="M478.5,189.5V207c0,1.3,1.1,2.4,2.4,2.4H494c1.3,0,2.4-1.1,2.4-2.4v-17.5c0-1.3-1.1-2.4-2.4-2.4
									h-13.2C479.5,187.2,478.5,188.2,478.5,189.5z M488.3,203.7c-3.7,0.6-6.9-2.6-6.3-6.3c0.4-2.3,2.2-4.1,4.5-4.5
									c3.7-0.6,6.9,2.6,6.3,6.3C492.4,201.5,490.6,203.3,488.3,203.7z"/>
								<path fill="#FFFFFF" d="M501.8,189.5V207c0,1.3,1.1,2.4,2.4,2.4h13.2c1.3,0,2.4-1.1,2.4-2.4v-17.5c0-1.3-1.1-2.4-2.4-2.4
									h-13.2C502.9,187.2,501.8,188.2,501.8,189.5z M511.7,203.7c-3.7,0.6-6.9-2.6-6.3-6.3c0.4-2.3,2.2-4.1,4.5-4.5
									c3.7-0.6,6.9,2.6,6.3,6.3C515.8,201.5,513.9,203.3,511.7,203.7z"/>
								
									<line fill="#FFFFFF" stroke="#FFFFFF" stroke-width="1.4913" stroke-miterlimit="10" x1="466.6" y1="213.8" x2="559" y2="213.8"/>
								<polyline fill="none" stroke="#FFFFFF" stroke-width="1.4913" stroke-miterlimit="10" points="534.5,213.9 534.5,233.7 
									602.1,233.7 								"/>
								<g>
									<g>
										<g>
											<path fill="#FFFFFF" d="M594.5,215.4c2.2,1.4,1.6,2.6-0.8,2c0.6,2.4-0.6,3-2,0.8c-1.4,2.2-2.6,1.6-2-0.8
												c-2.4,0.6-3-0.6-0.8-2c-2.2-1.4-1.6-2.6,0.8-2c-0.6-2.4,0.6-3,2-0.8c1.4-2.2,2.6-1.6,2,0.8
												C596.1,212.8,596.7,214,594.5,215.4z"/>
										</g>
										
											<line fill="none" stroke="#FFFFFF" stroke-width="0.7161" stroke-miterlimit="10" x1="591.7" y1="215.4" x2="591.7" y2="225.6"/>
									</g>
									<path fill="#FFFFFF" d="M598.9,223.5c0,4-3.2,7.2-7.2,7.2c-4,0-7.2-3.2-7.2-7.2"/>
								</g>
								<g>
									<rect x="531.5" y="208.1" fill="#FFFFFF" width="19.8" height="2"/>
									<rect x="530.2" y="204.7" fill="#FFFFFF" width="19.8" height="2"/>
									<rect x="532.1" y="201.4" fill="#FFFFFF" width="19.8" height="2"/>
								</g>
								<g>
									<path fill="#FFFFFF" d="M574.6,220c0,5.9-2.3,10.7-5.1,10.7s-5.1-4.8-5.1-10.7"/>
									
										<line fill="none" stroke="#FFFFFF" stroke-width="0.6107" stroke-linecap="round" stroke-miterlimit="10" x1="569.5" y1="227" x2="569.5" y2="210.5"/>
									<path fill="#FFFFFF" d="M573.1,206.6c0,3.1-1.6,5.5-3.6,5.5c-2,0-3.6-2.5-3.6-5.5c0,0,2.7,0.6,3.6,0.6
										S573.1,206.6,573.1,206.6z"/>
									<path fill="#FFFFFF" d="M572,216c-0.7,0.7-2.5,1.2-2.5,1.2s0.4-1.9,1.1-2.6c0.7-0.7,1.5-1,1.9-0.6
										C572.9,214.4,572.7,215.3,572,216z"/>
								</g>
							</g>
							<g>
								<rect x="365.6" y="192.5" fill="#FFFFFF" width="2.6" height="25.3"/>
								<circle fill="#FFFFFF" cx="367" cy="222.4" r="9"/>
								<path fill="#FFFFFF" d="M383.2,220.1c-3.2-5.7-9.3-9.6-16.3-9.6s-13.1,3.9-16.3,9.6H383.2z"/>
							</g>
							<g>
								<g>
									<rect x="217.1" y="275.1" fill="#FFFFFF" width="88.3" height="5"/>
									<rect x="217.1" y="282.2" fill="#FFFFFF" width="23.6" height="33.4"/>
									<rect x="271.5" y="282.2" fill="#FFFFFF" width="2.6" height="33.4"/>
								</g>
								<g>
									<polygon fill="#FFFFFF" points="285.5,273.4 282.9,273.4 278.7,257.2 281.3,257.2 									"/>
									<rect x="282.9" y="270.7" fill="#FFFFFF" width="15.3" height="2.7"/>
								</g>
								<g>
									
										<rect x="248" y="263.3" transform="matrix(0.9322 -0.362 0.362 0.9322 -80.2576 108.5877)" fill="#FFFFFF" width="3.2" height="10.4"/>
									<rect x="233.2" y="271" fill="#FFFFFF" width="12.6" height="2.2"/>
									<rect x="232.6" y="267.7" fill="#FFFFFF" width="12.6" height="2.2"/>
									<rect x="235.4" y="264.3" fill="#FFFFFF" width="9" height="2.2"/>
									<rect x="233.3" y="261.1" fill="#FFFFFF" width="12.6" height="2.2"/>
								</g>
							</g>
						</g>
						<g>
							<g>
								
									<rect x="226.6" y="530.3" fill="none" stroke="#FFFFFF" stroke-width="2.8573" stroke-miterlimit="10" width="45.3" height="105.3"/>
								
									<line fill="none" stroke="#FFFFFF" stroke-width="2.8573" stroke-miterlimit="10" x1="226.6" y1="530.3" x2="271.9" y2="530.3"/>
								
									<line fill="none" stroke="#FFFFFF" stroke-width="2.8573" stroke-miterlimit="10" x1="226.6" y1="545.4" x2="271.9" y2="545.4"/>
								
									<line fill="none" stroke="#FFFFFF" stroke-width="2.8573" stroke-miterlimit="10" x1="226.6" y1="560.5" x2="271.9" y2="560.5"/>
								
									<line fill="none" stroke="#FFFFFF" stroke-width="2.8573" stroke-miterlimit="10" x1="226.6" y1="575.6" x2="271.9" y2="575.6"/>
								
									<line fill="none" stroke="#FFFFFF" stroke-width="2.8573" stroke-miterlimit="10" x1="226.6" y1="590.7" x2="271.9" y2="590.7"/>
								
									<line fill="none" stroke="#FFFFFF" stroke-width="2.8573" stroke-miterlimit="10" x1="226.6" y1="605.8" x2="271.9" y2="605.8"/>
								<path fill="#FFFFFF" d="M250.9,605.8v29.8h21v-29.8H250.9z M261.4,623.2c-1.4,0-2.4-1.1-2.4-2.4c0-1.4,1.1-2.4,2.4-2.4
									c1.4,0,2.4,1.1,2.4,2.4C263.9,622.1,262.8,623.2,261.4,623.2z"/>
								<path fill="#FFFFFF" d="M226.6,605.8v29.8h21v-29.8H226.6z M237.1,623.2c-1.4,0-2.4-1.1-2.4-2.4c0-1.4,1.1-2.4,2.4-2.4
									c1.4,0,2.4,1.1,2.4,2.4C239.6,622.1,238.5,623.2,237.1,623.2z"/>
							</g>
							<g>
								<g>
									<path fill="#FFFFFF" d="M150.1,554.6c-5.6,0-11.5,13.7-11.5,34c0,20.4,6,34,11.5,34c5.6,0,11.5-13.7,11.5-34
										C161.6,568.2,155.6,554.6,150.1,554.6z"/>
									<path fill="#FFFFFF" d="M150.1,548.5c-8.8,0-16,17.9-16,40c0,22.1,7.2,40,16,40c8.8,0,16-17.9,16-40
										C166.1,566.5,158.9,548.5,150.1,548.5z M150.1,624.7c-7.6,0-13.6-15.9-13.6-36.1s6-36.1,13.6-36.1
										c7.6,0,13.6,15.9,13.6,36.1S157.7,624.7,150.1,624.7z"/>
								</g>
								<path fill="none" stroke="#FFFFFF" stroke-width="3.1307" stroke-miterlimit="10" d="M140,617l-4.9,15.4
									c-0.5,1.5,0.7,3.1,2.3,3.1h25.4c1.6,0,2.8-1.6,2.3-3.1l-5-15.7"/>
							</g>
							<path fill="#FFFFFF" d="M198.4,520.6c-6.6,0-12,5.4-12,12c0,6.6,5.4,12,12,12c6.6,0,12-5.4,12-12
								C210.4,526,205,520.6,198.4,520.6z M198.4,522.5c0.6,0,1.1,0.5,1.1,1c0,0.6-0.5,1.1-1,1.1c-0.6,0-1.1-0.5-1.1-1
								C197.3,523,197.8,522.5,198.4,522.5z M198.8,527.3v5.3c0,0.1-0.1,0.3-0.2,0.4l-4.6,2.7c-0.1,0-0.1,0.1-0.2,0.1
								c-0.1,0-0.3-0.1-0.4-0.2c-0.1-0.2-0.1-0.5,0.1-0.6l4.3-2.6v-5.1c0-0.2,0.2-0.4,0.4-0.4C198.6,526.9,198.8,527.1,198.8,527.3z
								 M189.7,527.6c0.3-0.5,0.9-0.7,1.4-0.4c0.5,0.3,0.7,0.9,0.4,1.4c-0.2,0.3-0.6,0.5-0.9,0.5c-0.2,0-0.4,0-0.5-0.1
								C189.5,528.7,189.4,528.1,189.7,527.6z M188.3,532.6c0-0.6,0.5-1.1,1.1-1.1c0.6,0,1.1,0.5,1.1,1.1c0,0.6-0.5,1.1-1,1.1
								C188.8,533.7,188.3,533.2,188.3,532.6z M191.1,538c-0.2,0.1-0.3,0.1-0.5,0.1c-0.4,0-0.7-0.2-0.9-0.5
								c-0.3-0.5-0.1-1.1,0.4-1.4c0.5-0.3,1.1-0.1,1.4,0.4C191.8,537.1,191.6,537.8,191.1,538z M193.3,523.9
								c0.5-0.3,1.1-0.1,1.4,0.4c0.3,0.5,0.1,1.1-0.4,1.4c-0.2,0.1-0.3,0.1-0.5,0.1c-0.4,0-0.7-0.2-0.9-0.5
								C192.7,524.8,192.8,524.2,193.3,523.9z M194.8,541c-0.2,0.3-0.5,0.5-0.9,0.5c-0.2,0-0.4,0-0.5-0.1c-0.5-0.3-0.7-0.9-0.4-1.4
								c0.3-0.5,0.9-0.7,1.4-0.4C194.9,539.8,195.1,540.5,194.8,541z M198.4,542.7c-0.6,0-1.1-0.5-1.1-1.1c0-0.6,0.5-1.1,1.1-1.1
								c0.6,0,1.1,0.5,1.1,1.1C199.5,542.2,199,542.7,198.4,542.7z M202,524.2c0.3-0.5,0.9-0.7,1.4-0.4c0.5,0.3,0.7,0.9,0.4,1.4
								c-0.2,0.3-0.5,0.5-0.9,0.5c-0.2,0-0.4,0-0.5-0.1C201.9,525.4,201.7,524.7,202,524.2z M203.5,541.3c-0.2,0.1-0.3,0.1-0.5,0.1
								c-0.4,0-0.7-0.2-0.9-0.5c-0.3-0.5-0.1-1.1,0.4-1.4c0.5-0.3,1.1-0.1,1.4,0.4C204.1,540.4,204,541,203.5,541.3z M205.7,527.2
								c0.5-0.3,1.1-0.1,1.4,0.4c0.3,0.5,0.1,1.1-0.4,1.4c-0.2,0.1-0.3,0.1-0.5,0.1c-0.4,0-0.7-0.2-0.9-0.5
								C205,528.1,205.2,527.4,205.7,527.2z M207.1,537.7c-0.2,0.3-0.5,0.5-0.9,0.5c-0.2,0-0.4,0-0.5-0.1c-0.5-0.3-0.7-0.9-0.4-1.4
								c0.3-0.5,0.9-0.7,1.4-0.4C207.3,536.5,207.4,537.1,207.1,537.7z M208.5,532.6c0,0.6-0.5,1.1-1.1,1.1c-0.6,0-1.1-0.5-1.1-1.1
								c0,0,0,0,0,0c0,0,0,0,0,0c0-0.6,0.5-1.1,1-1.1C208,531.5,208.5,532,208.5,532.6C208.5,532.6,208.5,532.6,208.5,532.6
								C208.5,532.6,208.5,532.6,208.5,532.6z"/>
							<path fill="#FFFFFF" d="M207.5,608.3h-15.9c-4.2,0-7.6,3.4-7.6,7.6v11.8v3.4v4.4h5v-4.4h21.2v4.4h5v-4.4v-3.4V616
								C215.1,611.8,211.7,608.3,207.5,608.3z"/>
							<g>
								<circle fill="#FFFFFF" cx="191.2" cy="556.9" r="2.1"/>
								<circle fill="#FFFFFF" cx="198.4" cy="556.9" r="2.1"/>
								<circle fill="#FFFFFF" cx="205.6" cy="556.9" r="2.1"/>
							</g>
							<g>
								<g>
									<rect x="148.8" y="498.2" fill="#FFFFFF" width="2.6" height="14.1"/>
									<polygon fill="#FFFFFF" points="136.3,524.5 150.1,509.4 163.8,524.5 									"/>
								</g>
								<circle fill="#FFFFFF" cx="150.1" cy="524.5" r="3.9"/>
							</g>
						</g>
						<g>
							<g>
								<path fill="#FFFFFF" d="M250.1,347.7c-12.3,0-22.3,14.3-22.3,32c0,17.7,10,32,22.3,32c12.3,0,22.3-14.3,22.3-32
									C272.4,362,262.4,347.7,250.1,347.7z M250.1,408.7c-10.9,0-19.7-13.1-19.7-29.1c0-16,8.8-29.1,19.7-29.1
									s19.7,13.1,19.7,29.1C269.8,395.7,260.9,408.7,250.1,408.7z"/>
								<path fill="#FFFFFF" d="M250.1,353.9c-9,0-16.3,11.5-16.3,25.7s7.3,25.7,16.3,25.7c9,0,16.3-11.5,16.3-25.7
									S259.1,353.9,250.1,353.9z"/>
							</g>
							<g>
								<g>
									<path fill="#FFFFFF" d="M184.8,470.7h-2.9c-6.1,0-11.1-5-11.1-11.1V455h25.1v4.7C195.9,465.7,190.9,470.7,184.8,470.7z"/>
									<path fill="#FFFFFF" d="M183.4,434L183.4,434c-5.6,0-10.2,4.6-10.2,10.2v9h20.4v-9C193.6,438.6,189,434,183.4,434z"/>
									<rect x="179.3" y="458.2" fill="#FFFFFF" width="8.2" height="18.7"/>
								</g>
								<g>
									<path fill="none" stroke="#FFFFFF" stroke-width="1.1914" stroke-miterlimit="10" d="M203.3,444.1H217
										c1.7,0,3.2,1.4,3.2,3.2l0,0c0,1.7-1.4,3.2-3.2,3.2h-16.5v-2.4"/>
									<path fill="#FFFFFF" d="M213.2,463.5h-5.7c-1.6,0-2.9-1.3-2.9-2.9v-10.2h11.6v10.2C216.1,462.2,214.8,463.5,213.2,463.5z"
										/>
								</g>
							</g>
							<g>
								<rect x="203.2" y="418.8" fill="#FFFFFF" width="25.7" height="3.2"/>
								<g>
									<rect x="217.1" y="414.2" fill="#FFFFFF" width="7" height="3.1"/>
									<g>
										<rect x="207.7" y="406.5" fill="#FFFFFF" width="5.9" height="10.5"/>
										
											<line fill="none" stroke="#FFFFFF" stroke-width="1.0436" stroke-miterlimit="10" x1="208.6" y1="413.5" x2="213.6" y2="399.7"/>
									</g>
								</g>
							</g>
							<g>
								<rect x="225.3" y="433.8" fill="#FFFFFF" width="49.5" height="5.8"/>
								<g>
									<rect x="232.8" y="473.3" fill="#FFFFFF" width="2.3" height="3.5"/>
									<rect x="265.1" y="473.3" fill="#FFFFFF" width="2.3" height="3.5"/>
								</g>
								<path fill="#FFFFFF" d="M265.7,425.1c0,5.2-7,9.4-15.6,9.4s-15.6-4.2-15.6-9.4"/>
								<path fill="#FFFFFF" d="M250.4,418.2h-0.5c-0.6,0-1.1,0.5-1.1,1.1v8.3c0,0.6,0.5,1.1,1.1,1.1h0.5c0.6,0,1.1-0.5,1.1-1.1
									v-8.3C251.5,418.7,251,418.2,250.4,418.2z"/>
								<path fill="#FFFFFF" d="M251.5,420.4h-2.9c-0.9,0-1.6-0.7-1.6-1.6l0,0c0-0.9,0.7-1.6,1.6-1.6h2.9c0.9,0,1.6,0.7,1.6,1.6l0,0
									C253.1,419.7,252.4,420.4,251.5,420.4z"/>
								<path fill="#FFFFFF" d="M230.3,466.8v7.4h39.5v-7.4H230.3z M254.1,472h-8v-3h8V472z"/>
								<path fill="#FFFFFF" d="M251.5,440.7v24.9h15.9v-24.9H251.5z M255.8,455.6c-1.3,0-2.4-1.1-2.4-2.4c0-1.3,1.1-2.4,2.4-2.4
									c1.3,0,2.4,1.1,2.4,2.4C258.2,454.5,257.1,455.6,255.8,455.6z"/>
								<path fill="#FFFFFF" d="M232.8,440.7v24.9h15.9v-24.9H232.8z M244.4,455.6c-1.3,0-2.4-1.1-2.4-2.4c0-1.3,1.1-2.4,2.4-2.4
									s2.4,1.1,2.4,2.4C246.8,454.5,245.7,455.6,244.4,455.6z"/>
							</g>
							<g>
								
									<line fill="none" stroke="#FFFFFF" stroke-width="1.1038" stroke-miterlimit="10" x1="175.9" y1="359.3" x2="208.9" y2="359.3"/>
								<g>
									
										<rect x="175.9" y="381" fill="none" stroke="#FFFFFF" stroke-width="1.1038" stroke-miterlimit="10" width="33" height="8.5"/>
									<path fill="#FFFFFF" stroke="#FFFFFF" stroke-width="1.1038" stroke-miterlimit="10" d="M193.6,359.3V381h15.3v-21.7H193.6
										z M201.2,372.8c-1.5,0-2.6-1.2-2.6-2.6c0-1.5,1.2-2.6,2.6-2.6c1.5,0,2.6,1.2,2.6,2.6C203.9,371.6,202.7,372.8,201.2,372.8z
										"/>
									<path fill="#FFFFFF" stroke="#FFFFFF" stroke-width="1.1038" stroke-miterlimit="10" d="M175.9,359.3V381h15.3v-21.7H175.9
										z M183.5,372.8c-1.5,0-2.6-1.2-2.6-2.6c0-1.5,1.2-2.6,2.6-2.6s2.6,1.2,2.6,2.6C186.2,371.6,185,372.8,183.5,372.8z"/>
								</g>
							</g>
						</g>
						<g>
							<g>
								<path fill="#FFFFFF" d="M327.4,635.6h-5.7v-23c0-1.1,0.9-2,2-2h3.7V635.6z"/>
								<path fill="#FFFFFF" d="M368.6,635.6h-5.7v-25h3.7c1.1,0,2,0.9,2,2V635.6z"/>
								<path fill="#FFFFFF" d="M361.1,620.9h-32.1v-22.5c0-3.8,3.1-6.9,6.9-6.9h18.2c3.8,0,6.9,3.1,6.9,6.9V620.9z"/>
								<rect x="329.1" y="623.1" fill="#FFFFFF" width="32.1" height="6.6"/>
							</g>
							<g>
								<g>
									<polygon fill="#FFFFFF" points="396.5,610.9 381.3,610.9 385.6,602 392.2,602 									"/>
									<polygon fill="#FFFFFF" points="386.5,610.2 388.9,613.2 391.3,610.2 									"/>
									
										<line fill="none" stroke="#FFFFFF" stroke-width="1.1392" stroke-miterlimit="10" x1="388.9" y1="606.6" x2="388.9" y2="619.1"/>
									<rect x="385.3" y="618.2" fill="#FFFFFF" width="7.2" height="1.2"/>
								</g>
								<path fill="#FFFFFF" d="M395.1,620.6h-12.3c-1.3,0-2.4,1.1-2.4,2.4v8.3v1.9v2.4h2.8v-2.4h11.7v2.4h2.8v-2.4v-1.9V623
									C397.5,621.7,396.4,620.6,395.1,620.6z M395.2,625.9h-12.5v-2.3h12.5V625.9z"/>
							</g>
							<g>
								<g>
									<polyline fill="none" stroke="#FFFFFF" stroke-width="2.0871" stroke-miterlimit="10" points="326.5,539.4 326.5,550.2 
										326.5,569.4 390.7,569.4 									"/>
									
										<line fill="none" stroke="#FFFFFF" stroke-width="2.0871" stroke-miterlimit="10" x1="371.2" y1="553.2" x2="326.5" y2="553.2"/>
								</g>
								<g>
									<rect x="331.9" y="537.5" fill="#FFFFFF" width="3.6" height="12.7"/>
									<rect x="337.7" y="540.1" fill="#FFFFFF" width="1.8" height="10.2"/>
									
										<rect x="342.1" y="536" transform="matrix(0.9685 -0.2489 0.2489 0.9685 -124.3788 102.4346)" fill="#FFFFFF" width="1.5" height="14.2"/>
									<rect x="347.4" y="538.3" fill="#FFFFFF" width="5.3" height="11.9"/>
									<rect x="354" y="537.5" fill="#FFFFFF" width="2.5" height="12.7"/>
									
										<rect x="359" y="537.5" transform="matrix(0.9801 0.1986 -0.1986 0.9801 115.1914 -60.716)" fill="#FFFFFF" width="2.5" height="12.7"/>
								</g>
								<g>
									
										<rect x="384.5" y="552.1" transform="matrix(-0.9586 0.2846 -0.2846 -0.9586 914.5032 986.6229)" fill="#FFFFFF" width="2.2" height="15.3"/>
									<rect x="377.7" y="555.1" fill="#FFFFFF" width="4.1" height="12.3"/>
									<rect x="374.5" y="555.2" fill="#FFFFFF" width="1.9" height="12.1"/>
									<g>
										<rect x="360.2" y="564.6" fill="#FFFFFF" width="12.7" height="2.8"/>
										<rect x="361.5" y="562.1" fill="#FFFFFF" width="9.8" height="1.6"/>
										<rect x="359" y="559.2" fill="#FFFFFF" width="12.7" height="1.9"/>
									</g>
								</g>
							</g>
							<g>
								<g>
									<path fill="#FFFFFF" d="M445.9,590.7c0,2.9-2.3,5.2-5.1,5.2c-2.8,0-5.1-2.3-5.1-5.2"/>
									<path fill="#FFFFFF" d="M444.5,584.3c0,2.1-1.7,3.8-3.8,3.8c-2.1,0-3.8-1.7-3.8-3.8"/>
									<rect x="440.1" y="581.2" fill="#FFFFFF" width="1.3" height="16"/>
								</g>
								<g>
									<rect x="409.2" y="599" fill="#FFFFFF" width="63.1" height="3"/>
									<rect x="420" y="630.5" fill="#FFFFFF" width="1.8" height="5.1"/>
									<rect x="459.8" y="630.5" fill="#FFFFFF" width="1.8" height="5.1"/>
									<path fill="#FFFFFF" d="M411.7,603.4v12.9h18.2v-12.9H411.7z M420.8,612.1c-1.2,0-2.3-1-2.3-2.3s1-2.3,2.3-2.3
										c1.2,0,2.3,1,2.3,2.3S422.1,612.1,420.8,612.1z"/>
									<path fill="#FFFFFF" d="M431.7,603.4v12.9h18.2v-12.9H431.7z M440.8,612.1c-1.2,0-2.3-1-2.3-2.3s1-2.3,2.3-2.3
										c1.2,0,2.3,1,2.3,2.3S442,612.1,440.8,612.1z"/>
									<path fill="#FFFFFF" d="M451.6,603.4v12.9h18.2v-12.9H451.6z M460.7,612.1c-1.2,0-2.3-1-2.3-2.3s1-2.3,2.3-2.3
										c1.2,0,2.3,1,2.3,2.3S461.9,612.1,460.7,612.1z"/>
									<path fill="#FFFFFF" d="M451.6,618v11.5h-1.7V618h-18.2v11.5h-1.7V618h-18.2v11.5v1.5v1.5h58.1V631v-1.5V618H451.6z
										 M420.8,626.8c-1.2,0-2.3-1-2.3-2.3s1-2.3,2.3-2.3c1.2,0,2.3,1,2.3,2.3S422.1,626.8,420.8,626.8z M440.8,626.8
										c-1.2,0-2.3-1-2.3-2.3s1-2.3,2.3-2.3c1.2,0,2.3,1,2.3,2.3S442,626.8,440.8,626.8z M460.7,626.8c-1.2,0-2.3-1-2.3-2.3
										s1-2.3,2.3-2.3c1.2,0,2.3,1,2.3,2.3S461.9,626.8,460.7,626.8z"/>
								</g>
							</g>
							<g>
								<rect x="402.8" y="575.2" fill="#FFFFFF" width="68.3" height="2.4"/>
								<rect x="407.2" y="520.1" fill="#FFFFFF" width="34.4" height="15.2"/>
								<rect x="444.4" y="520.1" fill="#FFFFFF" width="22.4" height="15.2"/>
								<rect x="444.4" y="538" fill="#FFFFFF" width="22.4" height="34.4"/>
								<path fill="#FFFFFF" d="M407.2,538v34.4h34.4V538H407.2z M420.4,560.7c0.4,1.6-0.3,2.1-1.2,0.9v3.1h1.7l0.9,5.7H416l0.9-5.7
									h1.7v-3.1c-0.9,1.1-1.6,0.7-1.2-0.9c-1.8,0.5-2.2-0.4-0.6-1.4c-1.6-1-1.2-1.9,0.6-1.4c-0.5-1.8,0.4-2.2,1.4-0.6
									c1-1.6,1.9-1.2,1.4,0.6c1.8-0.5,2.2,0.4,0.6,1.4C422.6,560.2,422.2,561.1,420.4,560.7z M431.4,560.2
									c0.2,0.1,0.4,0.4,0.3,0.6c-0.1,0.2-0.3,0.3-0.5,0.3c-0.1,0-0.1,0-0.2,0l-1.6-0.7l0.7,1.6c0.1,0.3,0,0.5-0.3,0.6
									c-0.1,0-0.1,0-0.2,0c-0.2,0-0.4-0.1-0.5-0.3l-0.4-1v3.3h2.7l-0.9,5.7h-4l-0.9-5.7h2.7v-3.4l-0.4,1.1
									c-0.1,0.2-0.3,0.3-0.5,0.3c-0.1,0-0.1,0-0.2,0c-0.2-0.1-0.4-0.4-0.3-0.6l0.7-1.6l-1.6,0.7c-0.1,0-0.1,0-0.2,0
									c-0.2,0-0.4-0.1-0.5-0.3c-0.1-0.3,0-0.5,0.3-0.6l1.6-0.7l-1.6-0.7c-0.2-0.1-0.4-0.4-0.3-0.6c0.1-0.2,0.4-0.4,0.6-0.3
									l1.6,0.7L427,557c-0.1-0.3,0-0.5,0.3-0.6c0.3-0.1,0.5,0,0.6,0.3l0.7,1.6l0.7-1.6c0.1-0.2,0.4-0.4,0.6-0.3
									c0.2,0.1,0.4,0.4,0.3,0.6l-0.7,1.6l1.6-0.7c0.3-0.1,0.5,0,0.6,0.3c0.1,0.3,0,0.5-0.3,0.6l-1.6,0.7L431.4,560.2z"/>
							</g>
						</g>
					</g>
				</g>
			</g>
		</g>
	</g>
</g>
</svg>
