<?xml version="1.0" encoding="utf-8"?>
<!-- Generator: Adobe Illustrator 17.1.0, SVG Export Plug-In . SVG Version: 6.00 Build 0)  -->
<!DOCTYPE svg PUBLIC "-//W3C//DTD SVG 1.1//EN" "http://www.w3.org/Graphics/SVG/1.1/DTD/svg11.dtd">
<svg version="1.1" xmlns="http://www.w3.org/2000/svg" xmlns:xlink="http://www.w3.org/1999/xlink" x="0px" y="0px"
	 viewBox="0 0 15 13" enable-background="new 0 0 15 13" xml:space="preserve">
<g id="Rounded_Rectangle_3_1_" enable-background="new    ">
	<g id="Rounded_Rectangle_3">
		<g>
			<path fill="#459ECE" d="M1,0C0.9,0,0.7,0,0.6,0.1c-0.2,0.2-0.2,0.5,0,0.7l12,12C12.8,13,12.9,13,13,13s0.3,0,0.4-0.1
				c0.2-0.2,0.2-0.5,0-0.7l-12-12C1.2,0,1.1,0,1,0L1,0z"/>
		</g>
	</g>
</g>
<g id="Rounded_Rectangle_3_copy_1_" enable-background="new    ">
	<g id="Rounded_Rectangle_3_copy">
		<g>
			<path fill="#459ECE" d="M13.5,0c-0.1,0-0.3,0-0.4,0.1l-12,12c-0.2,0.2-0.2,0.5,0,0.7C1.3,12.9,1.4,13,1.5,13c0.1,0,0.3,0,0.4-0.1
				l12-12c0.2-0.2,0.2-0.5,0-0.7C13.8,0,13.6,0,13.5,0L13.5,0z"/>
		</g>
	</g>
</g>
</svg>
